<svg width="64" height="64" viewBox="0 0 64 64" fill="none" xmlns="http://www.w3.org/2000/svg">
<path d="M41.0024 4.99995C41.4314 5.22643 41.4314 5.22643 41.8896 5.16938C41.9707 5.1212 42.0517 5.07302 42.1353 5.02338C43.0692 4.48149 44.1854 4.47466 45.2305 4.70161C46.2813 5.07607 47.1041 5.77262 47.6274 6.75776C47.853 7.2592 47.9667 7.70264 48.0024 8.24995C48.121 8.2551 48.2396 8.26026 48.3618 8.26557C49.2261 8.39354 50.0043 8.91526 50.5493 9.58588C51.199 10.5549 51.5039 11.5867 51.3774 12.7499C51.3394 12.9175 51.2988 13.0845 51.2524 13.2499C51.4149 13.2757 51.5773 13.3015 51.7446 13.3281C52.8012 13.5656 53.6496 14.2352 54.2524 15.1249C54.7344 16.0076 54.812 16.886 54.7524 17.8749C54.7112 17.9574 54.6699 18.0399 54.6274 18.1249C54.7198 18.1191 54.8121 18.1133 54.9072 18.1074C56.4768 18.0515 57.7456 18.5585 58.8975 19.6249C59.9776 20.7555 60.4178 22.0752 60.5415 23.6093C60.4913 25.0782 59.9043 26.4794 58.9009 27.5468C58.4008 28.0126 57.8695 28.3367 57.2524 28.6249C57.1759 28.6635 57.0994 28.702 57.0205 28.7416C56.3353 29.047 55.6414 29.0596 54.8989 29.0864C54.253 29.1492 53.932 29.4142 53.4814 29.867C53.3779 29.9704 53.2744 30.0737 53.1678 30.1803C53.0547 30.2945 52.9417 30.4087 52.8252 30.5263C52.7034 30.6484 52.5816 30.7705 52.4597 30.8925C52.1247 31.2282 51.7904 31.5646 51.4563 31.9012C51.0959 32.264 50.7348 32.626 50.3737 32.9882C49.7479 33.6159 49.1226 34.2441 48.4975 34.8725C47.5093 35.866 46.5199 36.8582 45.5303 37.8502C45.1918 38.1896 44.8532 38.529 44.5147 38.8685C44.4301 38.9533 44.3455 39.0381 44.2583 39.1255C43.2951 40.0913 42.3322 41.0573 41.3694 42.0235C41.2813 42.1118 41.1933 42.2002 41.1026 42.2912C39.6766 43.7222 38.2513 45.154 36.8262 46.5859C35.363 48.0561 33.8985 49.525 32.4331 50.993C31.5293 51.8984 30.6265 52.8048 29.725 53.7125C29.1069 54.3347 28.4877 54.9557 27.8676 55.5759C27.5099 55.9336 27.1528 56.2918 26.7971 56.6515C26.4711 56.981 26.1437 57.309 25.8151 57.6359C25.6409 57.81 25.4683 57.9856 25.2957 58.1612C24.4355 59.0125 23.6314 59.5717 22.3853 59.5703C22.2475 59.573 22.1097 59.5757 21.9678 59.5786C20.5329 59.3362 19.6176 58.3292 18.6382 57.3396C18.4801 57.1822 18.3219 57.0248 18.1635 56.8676C17.7363 56.4427 17.311 56.0158 16.8861 55.5884C16.44 55.1403 15.9924 54.6938 15.545 54.247C14.7943 53.4969 14.0449 52.7455 13.2963 51.9934C12.4318 51.1249 11.5654 50.2585 10.6979 49.3931C9.86164 48.5589 9.02682 47.7232 8.19264 46.8869C7.83835 46.5318 7.48357 46.1771 7.12838 45.8229C6.71005 45.4055 6.29299 44.9869 5.87685 44.5673C5.7243 44.4139 5.57133 44.2609 5.4179 44.1084C4.39508 43.0909 3.56958 42.2404 3.49219 40.7241C3.55058 38.7361 5.46679 37.3931 6.78009 36.0851C6.95743 35.908 7.13475 35.7309 7.31203 35.5537C7.69162 35.1745 8.07139 34.7955 8.45132 34.4167C9.05269 33.817 9.65357 33.2169 10.2544 32.6166C11.5294 31.343 12.805 30.0699 14.0806 28.7968C15.4589 27.4213 16.8371 26.0457 18.2146 24.6694C18.8113 24.0733 19.4083 23.4776 20.0056 22.8821C20.3774 22.5111 20.749 22.14 21.1205 21.7687C21.2922 21.5973 21.464 21.426 21.6358 21.2548C22.7506 20.1455 22.7506 20.1455 23.8025 18.9773C24.2055 18.5191 24.6469 18.0981 25.0826 17.6714C25.2988 17.4586 25.5149 17.2458 25.731 17.0329C25.8443 16.9215 25.9576 16.8101 26.0743 16.6954C26.4311 16.3443 26.7872 15.9924 27.1429 15.6402C27.2032 15.5804 27.2636 15.5207 27.3257 15.4591C27.449 15.3371 27.5723 15.215 27.6955 15.0929C28.522 14.2744 29.349 13.4563 30.1793 12.6416C30.7416 12.0899 31.3021 11.5364 31.8606 10.9808C32.1554 10.6877 32.4512 10.3959 32.7487 10.1056C33.0805 9.7817 33.409 9.45477 33.7369 9.12699C33.8347 9.03298 33.9325 8.93898 34.0333 8.84212C34.6204 8.2472 34.8871 7.76245 35.0475 6.93875C35.2673 6.07555 36.0386 5.36772 36.7524 4.87495C38.0601 4.16166 39.714 4.34738 41.0024 4.99995ZM36.6875 6.40717C36.3798 6.76933 36.1029 7.15535 36.0024 7.62495C36.1367 8.09365 36.3869 8.50274 36.6237 8.92707C37.6193 10.7225 38.3209 12.6515 38.8774 14.6249C39.3423 14.47 39.4127 14.3167 39.6826 13.915C39.7653 13.7921 39.8481 13.6692 39.9333 13.5426C40.0206 13.41 40.1078 13.2773 40.1978 13.1406C40.287 13.0057 40.3762 12.8709 40.4681 12.7319C41.011 11.8998 41.5234 11.0586 41.9868 10.1796C42.0365 10.0855 42.0863 9.99131 42.1375 9.89429C42.4121 9.35515 42.6059 8.83708 42.7524 8.24995C43.0412 8.2912 43.3299 8.33245 43.6274 8.37495C43.7015 9.10828 43.4504 9.60925 43.1353 10.2499C43.0853 10.3538 43.0354 10.4576 42.9839 10.5646C42.576 11.3938 42.1044 12.1639 41.584 12.9262C41.355 13.2211 41.355 13.2211 41.3774 13.4999C41.5012 13.4793 41.6249 13.4587 41.7524 13.4374C43.7394 13.2018 45.3543 13.4338 47.0972 14.4785C47.3801 14.6539 47.3801 14.6539 47.7524 14.6249C47.941 14.4813 47.941 14.4813 48.1274 14.289C48.6024 13.8557 49.1107 13.6462 49.708 13.4213C50.0824 13.2034 50.1409 13.037 50.2524 12.6249C50.334 11.8094 50.1957 11.1954 49.7524 10.4999C48.9905 9.61074 48.1168 9.33961 47.0024 9.12495C46.9916 9.02827 46.9808 8.93159 46.9697 8.83198C46.8257 7.76407 46.5694 6.99826 45.7603 6.26557C44.9728 5.71916 44.1918 5.64053 43.2524 5.74995C42.6251 5.95552 42.1223 6.31692 41.6274 6.74995C41.1896 6.59103 40.8505 6.40376 40.479 6.12495C39.2165 5.27424 37.8086 5.33664 36.6875 6.40717ZM35.3774 9.12495C31.5124 12.9757 27.649 16.8281 23.7878 20.6827C23.332 21.1377 22.8762 21.5926 22.4204 22.0476C22.3297 22.1382 22.239 22.2288 22.1455 22.3221C20.6759 23.789 19.2052 25.2548 17.734 26.7201C16.2247 28.2236 14.7166 29.7282 13.2096 31.234C12.2795 32.1632 11.3486 33.0915 10.4164 34.0186C9.77739 34.6543 9.13954 35.2911 8.5026 35.9289C8.13499 36.2969 7.7669 36.6643 7.39742 37.0305C7.05904 37.3658 6.72213 37.7026 6.38634 38.0405C6.20722 38.22 6.02657 38.398 5.84586 38.5759C5.20107 39.2282 4.65344 39.8023 4.6175 40.7666C4.64479 41.4288 4.91732 41.9107 5.37744 42.3749C9.50294 44.9824 15.769 44.9556 20.3371 43.926C26.4259 42.4436 31.7822 38.7065 35.0913 33.3564C38.4195 27.8306 39.4798 21.447 37.9425 15.1657C37.5208 13.5238 36.9317 11.9747 36.2212 10.4374C36.18 10.3483 36.1389 10.2592 36.0965 10.1674C35.8988 9.75451 35.7117 9.43593 35.3774 9.12495ZM40.0024 15.4999C39.871 15.5824 39.7395 15.6649 39.604 15.7499C39.2429 16.3477 39.3871 16.9325 39.4704 17.6056C39.6266 18.9178 39.6427 20.2116 39.6353 21.5312C39.6327 22.1809 39.6301 22.8306 39.6274 23.4999C41.2362 23.4999 42.8449 23.4999 44.5024 23.4999C44.3787 23.0462 44.2549 22.5924 44.1274 22.1249C44.0583 21.1937 44.1937 20.4768 44.5024 19.6015C44.561 19.4313 44.561 19.4313 44.6208 19.2577C45.1118 17.8797 45.7201 16.558 46.7524 15.4999C44.5085 14.0247 42.2399 13.974 40.0024 15.4999ZM49.2524 14.7499C49.2524 14.7912 49.2524 14.8324 49.2524 14.8749C49.3372 14.8843 49.422 14.8936 49.5093 14.9033C50.6299 15.0616 51.5613 15.4402 52.2993 16.3281C52.724 16.9483 52.9243 17.6578 53.1274 18.3749C53.5335 18.1597 53.5335 18.1597 53.6274 17.7499C53.6927 16.7877 53.5177 16.0542 52.9243 15.2812C52.4076 14.725 51.8093 14.4331 51.0581 14.332C50.3632 14.3066 49.8665 14.4296 49.2524 14.7499ZM46.9868 16.8749C46.2713 17.7915 45.8533 18.8866 45.4556 19.9687C45.4227 20.0558 45.3898 20.1428 45.356 20.2326C45.1007 20.9565 45.0032 21.6019 45.2378 22.3535C45.3147 22.5033 45.3147 22.5033 45.3931 22.6562C45.4424 22.7574 45.4917 22.8586 45.5425 22.9628C46.1211 23.7541 46.957 23.8987 47.8618 24.0937C47.9836 24.1212 48.1054 24.1488 48.231 24.1772C48.5295 24.2445 48.8283 24.3104 49.1274 24.3749C49.1738 22.9557 48.6322 21.6838 47.8774 20.4999C47.7949 20.4174 47.7124 20.3349 47.6274 20.2499C47.6118 19.8593 47.6118 19.8593 47.6274 19.4999C48.2212 19.3749 48.2212 19.3749 48.5024 19.3749C48.5363 19.4663 48.5701 19.5577 48.605 19.6518C48.7472 19.9875 48.9129 20.2656 49.1118 20.5703C49.7339 21.5899 50.02 22.7126 50.2524 23.8749C50.6901 23.7126 51.0639 23.5184 51.4556 23.2656C53.1835 22.2176 54.9117 22.0512 56.8774 22.2499C56.8828 22.4999 56.8825 22.75 56.8774 22.9999C56.8362 23.0412 56.7949 23.0824 56.7524 23.1249C56.5154 23.1242 56.2784 23.1179 56.0415 23.1093C54.3164 23.1056 52.3791 23.5825 51.0698 24.7817C51.0063 24.8537 50.9429 24.9257 50.8774 24.9999C50.9478 25.0288 51.0182 25.0576 51.0906 25.0873C53.4593 26.0644 53.4593 26.0644 54.5259 26.6484C54.6617 26.7223 54.7975 26.7963 54.9375 26.8725C55.316 27.1759 55.395 27.4089 55.5024 27.8749C56.7459 27.7713 57.6715 27.1729 58.5024 26.2499C58.7641 25.8499 58.9562 25.4456 59.1274 24.9999C59.1595 24.9178 59.1916 24.8356 59.2246 24.7509C59.549 23.729 59.382 22.5811 58.9053 21.6362C58.2731 20.5556 57.4747 19.7136 56.2593 19.3164C55.1374 19.0263 54.0442 19.0987 53.0024 19.6249C52.7118 19.6734 52.4201 19.7162 52.1274 19.7499C52.1242 19.6442 52.121 19.5385 52.1177 19.4296C52.0631 18.3384 51.9184 17.6196 51.2134 16.7812C50.3843 16.0871 49.8593 15.9139 48.772 15.9526C48.0156 16.0434 47.5086 16.3263 46.9868 16.8749ZM39.5024 24.6249C39.3519 25.1302 39.2183 25.6357 39.0991 26.1494C37.6064 32.5346 33.915 38.214 28.2862 41.714C25.3382 43.4843 22.1516 44.7087 18.7524 45.2499C18.3078 49.012 18.7952 52.7492 20.0728 56.3046C20.1254 56.4523 20.1254 56.4523 20.1791 56.6029C20.4387 57.293 20.7124 57.8234 21.3618 58.2187C21.9478 58.4531 22.377 58.5679 22.9868 58.3749C24.0797 57.9003 24.9163 56.8538 25.7426 56.0248C25.8651 55.9023 25.9877 55.7799 26.1103 55.6575C26.4446 55.3234 26.7786 54.9889 27.1125 54.6544C27.4736 54.2928 27.835 53.9316 28.1963 53.5703C28.8216 52.9451 29.4466 52.3197 30.0715 51.6942C30.9749 50.7897 31.8787 49.8856 32.7825 48.9816C34.2491 47.5147 35.7155 46.0475 37.1816 44.5802C38.6055 43.1552 40.0295 41.7303 41.4536 40.3056C41.5415 40.2178 41.6293 40.1299 41.7198 40.0393C42.1606 39.5984 42.6014 39.1575 43.0421 38.7166C46.696 35.0614 50.3493 31.4058 54.0024 27.7499C50.9068 25.2398 46.1007 24.472 42.2368 24.4843C42.0839 24.4838 41.931 24.4834 41.7734 24.4829C41.0046 24.4837 40.2623 24.5056 39.5024 24.6249ZM7.62744 44.4999C8.18547 45.1683 8.77504 45.7898 9.39203 46.4037C9.49089 46.5026 9.58976 46.6015 9.69162 46.7034C10.016 47.0276 10.3407 47.3514 10.6655 47.6752C10.8915 47.901 11.1174 48.1267 11.3433 48.3525C11.8756 48.8844 12.4082 49.416 12.941 49.9475C13.5479 50.553 14.1545 51.1589 14.7611 51.7649C16.0078 53.0103 17.255 54.2553 18.5024 55.4999C18.6609 55.1831 18.6073 55.0892 18.5161 54.7524C18.476 54.5984 18.476 54.5984 18.4352 54.4413C18.4058 54.3291 18.3764 54.217 18.3462 54.1015C17.6402 51.2281 17.5766 48.4406 17.6274 45.4999C17.5231 45.5013 17.4189 45.5026 17.3114 45.5039C14.3308 45.5363 11.5818 45.3683 8.66858 44.6898C8.32343 44.6129 7.97718 44.552 7.62744 44.4999Z" fill="black"/>
<path d="M42.0781 28.5862C42.7508 28.5958 43.0933 28.7105 43.625 29.1252C44.1214 29.7489 44.2048 30.2599 44.1733 31.052C44.0825 31.6597 43.7591 31.9835 43.3516 32.4143C42.8717 32.7022 42.4263 32.7262 41.875 32.7502C41.625 32.3752 41.625 32.3752 41.6094 32.0706C41.8053 31.6242 42.0868 31.5453 42.5234 31.3621C42.7729 31.2673 42.7729 31.2673 42.875 31.0002C42.9219 30.495 42.9219 30.495 42.75 30.0315C42.3604 29.788 41.9471 29.7262 41.5 29.6252C41.375 29.5002 41.375 29.5002 41.3594 29.1252C41.3836 28.5443 41.5455 28.6015 42.0781 28.5862Z" fill="black"/>
<path d="M32.0703 22.1403C32.375 22.2497 32.375 22.2497 32.625 22.6247C32.7103 23.3124 32.7156 23.9295 32.4219 24.5622C31.8505 25.1636 31.355 25.455 30.5298 25.5119C29.9077 25.4847 29.4888 25.2162 29.0156 24.8356C28.716 24.4567 28.6357 24.23 28.625 23.7497C28.875 23.4997 28.875 23.4997 29.2344 23.445C29.7498 23.5171 29.8199 23.7211 30.125 24.1247C30.4914 24.2621 30.6631 24.281 31.0312 24.1481C31.2688 24.0129 31.2688 24.0129 31.375 23.7497C31.3739 23.4326 31.3586 23.1176 31.3428 22.8009C31.375 22.4997 31.375 22.4997 31.5435 22.2716C31.75 22.1247 31.75 22.1247 32.0703 22.1403Z" fill="black"/>
<path d="M35.5898 39.4334C36.2144 39.5789 36.5419 39.8905 36.9219 40.3905C37.2086 40.952 37.2219 41.5095 37.125 42.1249C36.9007 42.7876 36.4938 43.1844 35.875 43.4999C35.1193 43.692 35.1193 43.692 34.75 43.4842C34.625 43.2499 34.625 43.2499 34.6016 42.9452C34.8065 42.5029 35.0861 42.4202 35.5234 42.2367C35.7729 42.1419 35.7729 42.1419 35.875 41.8749C35.9336 41.365 35.9336 41.365 35.7178 40.9261C35.4786 40.7325 35.2752 40.6444 34.9844 40.5467C34.5104 40.3853 34.5104 40.3853 34.375 40.2499C34.3438 39.9452 34.3438 39.9452 34.375 39.6249C34.8445 39.3118 35.0515 39.3565 35.5898 39.4334Z" fill="black"/>
<path d="M22.1226 48C22.5054 47.9688 22.5054 47.9688 22.8726 48C23.0657 48.1931 23.0213 48.3963 23.0366 48.6641C23.0784 49.0551 23.1146 49.2371 23.3257 49.5781C23.6275 49.7828 23.6275 49.7828 24.0522 49.7734C24.5924 49.5934 24.6859 49.4048 24.9736 48.9414C25.1226 48.75 25.1226 48.75 25.4585 48.6797C25.7476 48.75 25.7476 48.75 25.9976 49C25.9976 49.6985 25.7868 50.0795 25.3223 50.5693C24.8269 51.0174 24.3022 51.0556 23.6572 51.0396C23.0357 50.9532 22.6247 50.6372 22.2007 50.1797C21.9204 49.7593 21.8532 49.4323 21.8491 48.9375C21.8473 48.8408 21.8456 48.7441 21.8438 48.6445C21.8726 48.375 21.8726 48.375 22.1226 48Z" fill="black"/>
<path d="M21.1263 32.75C21.2513 32.875 21.2513 32.875 21.2981 33.1719C21.2827 33.2802 21.2672 33.3885 21.2513 33.5C20.9778 33.7032 20.9778 33.7032 20.6263 33.875C20.1434 34.1068 20.1434 34.1068 19.8763 34.5469C19.8763 34.9934 19.9574 35.1616 20.2513 35.5C20.5079 35.6245 20.7615 35.7171 21.0335 35.8028C21.2513 35.875 21.2513 35.875 21.3763 36C21.4075 36.3047 21.4075 36.3047 21.3763 36.625C20.9119 36.9346 20.7047 36.9083 20.1702 36.8326C19.5709 36.6643 19.1755 36.2914 18.8597 35.7632C18.5857 35.1376 18.5917 34.6595 18.7513 34C19.1003 33.3279 19.552 32.927 20.2591 32.6485C20.5707 32.6183 20.8253 32.6687 21.1263 32.75Z" fill="black"/>
</svg>
