<svg width="64" height="64" viewBox="0 0 64 64" fill="none" xmlns="http://www.w3.org/2000/svg">
<g clip-path="url(#clip0_2395_12169)">
<path d="M34.5003 13.2496C34.6368 13.3867 34.7701 13.5271 34.8987 13.6715C35.222 14.0315 35.222 14.0315 35.6566 14.0777C36.1691 13.9923 36.5829 13.8216 37.0589 13.6202C38.1078 13.2204 39.237 13.361 40.283 13.7223C41.4839 14.2696 42.1363 15.1447 42.7313 16.2877C42.9756 16.6619 42.9756 16.6619 43.4153 16.7364C43.8549 16.749 44.2875 16.7447 44.7269 16.7262C45.9569 16.717 46.9853 17.1296 47.8753 17.9918C48.6452 18.807 49.0642 19.5649 49.2425 20.6715C49.3245 21.139 49.3245 21.139 49.6253 21.4996C50.054 21.6425 50.4793 21.7207 50.9232 21.8023C52.0989 22.0621 53.0459 22.7264 53.7269 23.7184C54.3443 24.7948 54.5432 25.9841 54.2503 27.1871C54.2091 27.3315 54.1678 27.4759 54.1253 27.6246C54.8678 27.8721 54.8678 27.8721 55.6253 28.1246C55.6176 27.9905 55.6098 27.8565 55.6019 27.7184C55.6253 27.2496 55.6253 27.2496 55.7581 26.9527C56.1211 26.6483 56.4077 26.6327 56.8753 26.6246C57.4383 26.8357 57.7726 27.2824 58.1502 27.732C58.2875 27.8953 58.4279 28.0562 58.5731 28.2125C62.5461 32.5045 64.2037 38.3409 64.0242 44.0781C63.9145 46.0145 62.9734 47.868 61.6253 49.2496C59.5133 51.1149 57.1961 51.9189 54.3753 51.7496C52.5652 51.5526 50.849 50.716 49.5003 49.4996C49.427 49.4377 49.3537 49.3759 49.2781 49.3121C47.2427 47.4659 46.8059 44.9786 46.6253 42.3746C46.2119 36.5939 43.9469 31.5098 39.6566 27.5465C35.4914 24.0813 30.3104 22.2161 24.8753 22.4996C24.7861 22.5043 24.6969 22.5089 24.605 22.5137C20.1452 22.7917 15.9981 24.6044 12.6253 27.4996C12.4692 27.6325 12.4692 27.6325 12.3099 27.7682C8.08527 31.4597 5.7727 36.7017 5.3753 42.2496C5.26246 44.1931 5.64841 45.9986 6.90655 47.5387C8.04032 48.7399 9.56589 49.5374 11.2212 49.6476C11.618 49.6562 12.0141 49.6571 12.411 49.6552C12.6385 49.6556 12.6385 49.6556 12.8705 49.6561C13.2886 49.6566 13.7067 49.6561 14.1248 49.655C14.5767 49.6542 15.0287 49.6548 15.4806 49.6553C16.2629 49.656 17.0451 49.6558 17.8274 49.6551C19.0637 49.6541 20.3 49.6555 21.5363 49.6572C21.9596 49.6578 22.3829 49.6584 22.8062 49.6589C22.912 49.6591 23.0178 49.6592 23.1267 49.6593C24.3291 49.6609 25.5315 49.6618 26.7339 49.6625C26.8438 49.6626 26.9536 49.6627 27.0668 49.6628C28.8495 49.6638 30.6321 49.6634 32.4148 49.6627C34.2459 49.6619 36.0769 49.6636 37.908 49.6673C39.0372 49.6695 40.1663 49.6697 41.2954 49.6674C42.0685 49.6659 42.8415 49.6667 43.6146 49.6693C44.0608 49.6707 44.5069 49.6711 44.953 49.6688C45.4364 49.6663 45.9197 49.6686 46.403 49.6714C46.6151 49.6691 46.6151 49.6691 46.8315 49.6668C47.7779 49.678 47.7779 49.678 48.2749 50.0436C48.5003 50.3746 48.5003 50.3746 48.5784 50.7496C48.4683 51.2783 48.3118 51.428 47.8753 51.7496C47.3888 51.8434 46.9078 51.8328 46.4137 51.8273C46.264 51.8281 46.1143 51.8289 45.96 51.8297C45.5448 51.8313 45.1298 51.8301 44.7146 51.8276C44.2666 51.8257 43.8186 51.8274 43.3706 51.8286C42.4928 51.8304 41.615 51.8289 40.7372 51.8262C39.7137 51.8232 38.6903 51.8234 37.6668 51.8238C35.839 51.8242 34.0111 51.8216 32.1833 51.8174C30.4127 51.8132 28.6421 51.8115 26.8715 51.8122C24.9422 51.8131 23.0129 51.8128 21.0836 51.8103C20.9814 51.8102 20.8791 51.8101 20.7737 51.8099C20.5683 51.8097 20.3629 51.8094 20.1575 51.8091C19.4456 51.8083 18.7337 51.8082 18.0218 51.8084C17.152 51.8085 16.2823 51.8073 15.4126 51.8044C14.9696 51.8029 14.5266 51.802 14.0835 51.8027C9.58116 51.8091 9.58116 51.8091 7.97686 50.9371C7.89532 50.8942 7.81378 50.8513 7.72976 50.8071C5.73529 49.71 4.34115 48.0509 3.6253 45.8746C3.6253 45.7921 3.6253 45.7096 3.6253 45.6246C3.5536 45.5917 3.48189 45.5589 3.40802 45.525C1.81484 44.6775 0.786564 42.7851 0.2503 41.1246C0.0157874 40.2965 -0.0439121 39.5064 -0.0387623 38.648C-0.038148 38.5268 -0.0375337 38.4056 -0.0369008 38.2807C0.0038599 35.7868 1.12697 33.7358 2.8753 31.9996C3.15901 31.7679 3.44093 31.5721 3.7503 31.3746C3.72968 31.2509 3.70905 31.1271 3.6878 30.9996C3.38915 28.4611 3.38915 28.4611 4.05694 27.4781C4.62952 26.8014 5.24288 26.3105 6.1253 26.1246C6.69512 26.0788 7.20537 26.068 7.7503 26.2496C7.75675 26.1736 7.76319 26.0975 7.76983 26.0191C8.03896 23.9395 9.33442 22.1189 10.8875 20.7716C11.8746 20.0316 12.9183 19.4834 14.1482 19.3092C14.4095 19.269 14.4095 19.269 14.5472 18.9605C14.573 18.8497 14.5987 18.7388 14.6253 18.6246C15.2128 17.6944 16.316 17.0153 17.3753 16.7496C17.7836 16.7146 18.185 16.7248 18.594 16.7418C18.8017 16.7493 19.0094 16.7557 19.2171 16.7608C19.3076 16.7645 19.3981 16.7682 19.4914 16.772C19.7993 16.7454 19.9891 16.663 20.2503 16.4996C20.4419 16.2016 20.4419 16.2016 20.6019 15.8512C21.1898 14.7296 21.9283 14.0628 23.1253 13.6246C24.2896 13.3191 25.2797 13.2871 26.3909 13.7574C26.917 13.9769 27.2998 14.1191 27.8753 13.9996C28.0994 13.804 28.2908 13.59 28.4896 13.3688C30.1936 11.7732 32.7196 11.9507 34.5003 13.2496ZM29.1473 15.524C28.511 16.0518 27.8666 16.0576 27.0687 16.0504C26.452 15.9798 25.944 15.7485 25.3768 15.5069C24.6783 15.2614 24.1542 15.4012 23.4769 15.6402C22.7966 16.0937 22.4065 16.6819 22.0159 17.3902C21.6276 18.0616 21.1438 18.4703 20.3949 18.6932C20.1107 18.7527 19.8602 18.7619 19.5701 18.7574C19.4663 18.7565 19.3624 18.7555 19.2554 18.7545C19.148 18.7529 19.0406 18.7513 18.93 18.7496C18.7163 18.7464 18.5026 18.7438 18.2889 18.7418C18.1945 18.7403 18.1002 18.7389 18.003 18.7374C17.7245 18.7395 17.7245 18.7395 17.3753 18.8746C17.3753 18.9571 17.3753 19.0396 17.3753 19.1246C17.5658 19.1657 17.5658 19.1657 17.7601 19.2076C18.7828 19.4397 19.655 19.7141 20.5687 20.2525C20.8634 20.4089 20.8634 20.4089 21.1189 20.2884C21.4147 20.0994 21.5758 19.907 21.785 19.6256C21.8595 19.5271 21.934 19.4287 22.0108 19.3272C22.0873 19.2243 22.1637 19.1213 22.2425 19.0152C23.0314 17.9561 23.6504 17.2335 25.0003 16.9996C25.8671 16.9683 26.6642 17.1082 27.3753 17.6246C27.6141 17.8628 27.8009 18.1004 28.0003 18.3746C28.3678 18.2319 28.7294 18.0796 29.0887 17.9176C29.1724 17.88 29.2561 17.8425 29.3423 17.8038C29.5141 17.7266 29.6857 17.6488 29.857 17.5704C31.8281 16.6914 34.027 16.7005 36.0677 17.3785C38.2875 18.2524 39.954 19.7115 41.0003 21.8746C41.1905 22.3687 41.355 22.8656 41.5003 23.3746C41.6931 23.3412 41.8858 23.3072 42.0784 23.273C42.2036 23.251 42.3288 23.2289 42.4578 23.2062C42.7442 23.1502 43.0292 23.0863 43.3123 23.0157C44.3577 22.7581 45.1809 22.6295 46.1566 23.1495C46.7721 23.5625 47.1796 24.0281 47.3753 24.7496C47.5485 25.9587 47.2028 27.0975 46.8753 28.2496C47.0049 28.2918 47.1344 28.334 47.2679 28.3775C47.4391 28.4338 47.6103 28.4901 47.7816 28.5465C47.8668 28.5742 47.952 28.6019 48.0399 28.6305C48.3836 28.744 48.716 28.8574 49.0399 29.0201C49.4007 29.1993 49.6195 29.1146 50.0003 28.9996C50.9809 28.4902 51.9408 27.6623 52.3753 26.6246C52.4914 25.795 52.1985 25.1788 51.7503 24.4996C51.2128 23.8483 50.3997 23.7243 49.6081 23.5644C48.7634 23.3855 48.1361 23.0186 47.6429 22.2975C47.454 21.9029 47.3642 21.4937 47.2659 21.0699C47.032 20.0769 46.6545 19.4657 45.7942 18.9112C45.2469 18.7001 44.7975 18.729 44.2191 18.7574C43.2026 18.78 42.3374 18.7554 41.5316 18.0611C41.1726 17.6753 40.9269 17.2521 40.68 16.7887C40.2908 16.0632 39.794 15.698 39.0213 15.4342C38.3196 15.2799 37.7216 15.4362 37.0941 15.7574C36.3096 16.1325 35.4243 16.1493 34.5887 15.9215C33.9667 15.6434 33.508 15.1778 33.0115 14.7213C32.4879 14.277 31.9368 14.1884 31.2586 14.2115C30.3759 14.3417 29.7667 14.9238 29.1473 15.524ZM24.5003 19.2496C23.9333 19.8184 23.9333 19.8184 23.6253 20.4996C24.739 20.4584 25.8528 20.4171 27.0003 20.3746C26.3949 19.3325 26.3949 19.3325 25.5003 18.8746C25.0199 18.8746 24.8869 18.9596 24.5003 19.2496ZM29.3753 19.9996C29.5764 20.4305 29.7075 20.6801 30.1555 20.8657C30.5161 20.959 30.8772 21.0361 31.2425 21.109C33.5585 21.632 36.2811 22.4358 38.1502 23.9762C38.4646 24.1835 38.6648 24.1386 39.0316 24.0855C39.1431 24.0706 39.2546 24.0556 39.3694 24.0401C39.4539 24.0268 39.5383 24.0134 39.6253 23.9996C39.1416 22.1158 38.1667 20.6918 36.473 19.6832C34.1924 18.4788 31.5232 18.4835 29.3753 19.9996ZM11.2503 23.2496C10.4581 24.2149 9.85736 25.2416 9.7503 26.4996C10.081 26.6404 10.081 26.6404 10.5003 26.6246C10.7072 26.4612 10.7072 26.4612 10.8992 26.2369C11.3669 25.746 11.8707 25.3529 12.4222 24.9605C12.5203 24.8906 12.6185 24.8206 12.7196 24.7485C14.4311 23.5448 16.1836 22.6397 18.1255 21.8614C18.4059 21.7442 18.4059 21.7442 18.7503 21.4996C18.6188 21.4403 18.4873 21.381 18.3519 21.3199C18.2779 21.2866 18.2039 21.2532 18.1277 21.2188C15.6668 20.3002 12.9514 21.4498 11.2503 23.2496ZM42.4378 25.1871C42.2873 25.2288 42.1368 25.2706 41.9817 25.3136C41.6126 25.4161 41.2438 25.5198 40.8753 25.6246C40.8311 26.0268 40.8311 26.0268 41.178 26.3028C41.3161 26.4238 41.4548 26.544 41.5941 26.6637C42.222 27.2215 42.7933 27.8039 43.3362 28.4449C43.3993 28.5193 43.4623 28.5937 43.5273 28.6704C43.7861 28.98 44.0263 29.2886 44.2503 29.6246C44.3328 29.6246 44.4153 29.6246 44.5003 29.6246C44.644 29.1224 44.7863 28.6199 44.9275 28.117C44.9757 27.9462 45.0242 27.7756 45.0731 27.605C45.1435 27.3588 45.2126 27.1124 45.2816 26.8658C45.3234 26.7179 45.3653 26.5699 45.4085 26.4175C45.5232 25.8954 45.5856 25.4523 45.3753 24.9527C45.0624 24.6985 44.8393 24.707 44.4451 24.7151C43.759 24.7891 43.0997 24.9987 42.4378 25.1871ZM5.7503 28.6246C5.38663 29.3519 5.64322 30.4099 5.73467 31.1949C5.74447 31.2843 5.75427 31.3737 5.76437 31.4657C5.79216 31.6867 5.83268 31.906 5.8753 32.1246C5.9578 32.1659 6.0403 32.2071 6.1253 32.2496C6.19201 32.1331 6.25872 32.0166 6.32745 31.8966C6.86543 30.9715 7.42861 30.0985 8.1018 29.2654C8.34264 28.9658 8.5023 28.7436 8.6253 28.3746C8.39107 28.3322 8.15665 28.2907 7.92217 28.2496C7.79166 28.2264 7.66114 28.2032 7.52667 28.1793C6.73948 28.072 6.33918 28.0526 5.7503 28.6246ZM52.1722 29.9137C52.0305 29.9942 52.0305 29.9942 51.886 30.0763C51.6404 30.2396 51.4495 30.4083 51.2503 30.6246C51.3109 30.6826 51.3715 30.7406 51.4339 30.8004C53.0606 32.4772 53.7503 34.6972 53.7503 36.9996C53.6019 39.1654 52.8723 41.0496 51.3572 42.6129C51.1 42.8686 51.1 42.8686 51.0003 43.2496C50.7952 43.3658 50.7952 43.3658 50.5003 43.4996C50.2177 43.6696 49.9366 43.8411 49.6566 44.0152C49.5813 44.0618 49.5061 44.1084 49.4285 44.1563C49.244 44.2706 49.0596 44.3851 48.8753 44.4996C49.0985 45.3688 49.4073 46.1088 49.8753 46.8746C49.9438 46.8551 50.0123 46.8356 50.0828 46.8155C50.776 46.6453 51.3664 46.6279 52.0784 46.6949C53.0965 46.781 53.0965 46.781 54.0003 46.3746C54.6043 45.8061 54.9869 45.3693 55.0179 44.5147C55.0208 44.3738 55.0208 44.3738 55.0238 44.2299C55.0524 43.1163 55.1355 42.1635 55.9275 41.3082C56.1776 41.0883 56.4508 40.9069 56.7293 40.7252C57.325 40.3264 57.6329 39.9829 57.8084 39.2604C57.9118 38.6587 57.8644 38.1964 57.6253 37.6246C57.324 37.2057 56.9767 36.8452 56.6019 36.4918C55.9708 35.8172 55.8471 35.0438 55.8543 34.1603C55.8753 33.8746 55.8753 33.8746 56.0003 33.4527C56.1933 32.753 56.2769 32.0349 56.0203 31.3404C55.6105 30.6201 54.9966 30.0469 54.2078 29.773C53.4586 29.5935 52.8583 29.514 52.1722 29.9137ZM46.3753 30.1246C46.0191 30.9714 45.7035 31.801 46.0618 32.6939C46.2524 33.0956 46.4649 33.4849 46.6761 33.8761C47.868 36.0864 48.3574 38.7283 48.54 41.2096C48.5615 41.7891 48.5615 41.7891 48.8753 42.2496C50.3824 41.2274 51.3528 39.7997 51.7274 38.0128C52.0151 36.2678 51.7523 34.5355 50.7767 33.0294C49.6105 31.5124 48.2445 30.5552 46.3753 30.1246ZM58.0003 30.8746C58.0023 30.9823 58.0023 30.9823 58.0043 31.0922C58.0095 31.4207 58.0127 31.7492 58.0159 32.0777C58.018 32.1907 58.0201 32.3036 58.0223 32.42C58.0268 33.0462 57.9809 33.5338 57.7503 34.1246C57.7329 34.5942 57.7657 34.8775 58.0853 35.2335C58.2619 35.3992 58.439 35.5643 58.6165 35.7291C59.3789 36.526 59.7425 37.6508 59.7542 38.7389C59.7114 39.5847 59.5438 40.2637 59.1253 40.9996C59.0831 41.0765 59.0409 41.1533 58.9974 41.2325C58.6224 41.8323 58.116 42.1739 57.5262 42.5523C57.2206 42.7463 57.2206 42.7463 57.0003 43.1246C56.975 43.4834 56.9607 43.8358 56.9534 44.1949C56.8981 45.5397 56.623 46.4933 55.6775 47.4938C54.7572 48.2729 53.7171 48.6468 52.5237 48.6324C52.4018 48.6313 52.2798 48.6302 52.1541 48.629C52.0161 48.6268 52.0161 48.6268 51.8753 48.6246C52.2007 49.0178 52.5678 49.1504 53.0394 49.3277C53.2475 49.4075 53.2475 49.4075 53.4598 49.4889C55.1188 50.0308 56.9087 49.8275 58.4534 49.0465C60.1836 48.0368 61.3681 46.5611 61.9436 44.6475C62.8331 40.3666 61.031 35.2887 58.7232 31.7464C58.5289 31.4517 58.3337 31.1596 58.1253 30.8746C58.0841 30.8746 58.0428 30.8746 58.0003 30.8746ZM4.0003 33.7496C2.81158 34.913 1.9846 36.5368 1.95278 38.2136C1.95612 39.7856 2.20205 41.0667 3.1253 42.3746C3.43549 41.9093 3.43623 41.5093 3.47686 40.9684C3.56347 40.01 3.71645 39.0801 3.92218 38.1402C3.94888 38.018 3.97559 37.8959 4.00311 37.77C4.15489 37.1014 4.33965 36.465 4.57061 35.8199C4.74064 35.3071 4.7848 35.0385 4.54717 34.5465C4.40598 34.3233 4.40598 34.3233 4.2503 34.1246C4.1678 34.0009 4.0853 33.8771 4.0003 33.7496Z" fill="black"/>
<path d="M20.7578 37.6249C21.1732 37.9319 21.3548 38.1156 21.4609 38.6249C21.3548 39.1342 21.1732 39.3179 20.7578 39.6249C20.3355 39.6939 20.1061 39.6701 19.7188 39.4921C19.4043 39.1311 19.391 38.847 19.3828 38.3749C19.699 37.6824 20.0033 37.5362 20.7578 37.6249Z" fill="black"/>
<path d="M40.875 36.3749C41.2903 36.6819 41.472 36.8656 41.5781 37.3749C41.472 37.8842 41.2903 38.0679 40.875 38.3749C40.4527 38.4439 40.2233 38.4201 39.8359 38.2421C39.5215 37.8811 39.5081 37.597 39.5 37.1249C39.8161 36.4324 40.1205 36.2862 40.875 36.3749Z" fill="black"/>
<path d="M28.375 35.1249C28.7903 35.4319 28.972 35.6156 29.0781 36.1249C28.972 36.6342 28.7903 36.8179 28.375 37.1249C27.9527 37.1939 27.7233 37.1701 27.3359 36.9921C27.0215 36.6311 27.0081 36.347 27 35.8749C27.3161 35.1824 27.6205 35.0362 28.375 35.1249Z" fill="black"/>
<path d="M13.25 34.6244C13.6653 34.9314 13.847 35.1151 13.9531 35.6244C13.847 36.1337 13.6653 36.3174 13.25 36.6244C12.8277 36.6934 12.5983 36.6696 12.2109 36.4916C11.8965 36.1306 11.8831 35.8465 11.875 35.3744C12.1911 34.6819 12.4955 34.5357 13.25 34.6244Z" fill="black"/>
<path d="M17.75 30.8749C18.1653 31.1819 18.347 31.3656 18.4531 31.8749C18.347 32.3842 18.1653 32.5679 17.75 32.8749C17.3277 32.9439 17.0983 32.9201 16.7109 32.7421C16.3965 32.3811 16.3831 32.097 16.375 31.6249C16.6911 30.9324 16.9955 30.7862 17.75 30.8749Z" fill="black"/>
<path d="M13.375 30.1244C13.7903 30.4314 13.972 30.6151 14.0781 31.1244C13.972 31.6337 13.7903 31.8174 13.375 32.1244C12.9527 32.1934 12.7233 32.1696 12.3359 31.9916C12.0215 31.6306 12.0081 31.3465 12 30.8744C12.3161 30.1819 12.6205 30.0357 13.375 30.1244Z" fill="black"/>
<path d="M32.125 28.8744C32.5403 29.1814 32.722 29.3651 32.8281 29.8744C32.722 30.3837 32.5403 30.5674 32.125 30.8744C31.7027 30.9434 31.4733 30.9196 31.0859 30.7416C30.7715 30.3806 30.7581 30.0965 30.75 29.6244C31.0661 28.9319 31.3705 28.7857 32.125 28.8744Z" fill="black"/>
<path d="M24.625 26.3749C25.0403 26.6819 25.222 26.8656 25.3281 27.3749C25.222 27.8842 25.0403 28.0679 24.625 28.3749C24.2027 28.4439 23.9733 28.4201 23.5859 28.2421C23.2715 27.8811 23.2581 27.597 23.25 27.1249C23.5661 26.4324 23.8705 26.2862 24.625 26.3749Z" fill="black"/>
</g>
<defs>
<clipPath id="clip0_2395_12169">
<rect width="64" height="64" fill="white"/>
</clipPath>
</defs>
</svg>
