<svg width="65" height="65" viewBox="0 0 65 65" fill="none" xmlns="http://www.w3.org/2000/svg">
<path d="M43.2468 15.625C43.4533 15.7267 43.66 15.8279 43.8669 15.9288C45.057 16.5124 46.2331 17.1211 47.4033 17.7435C48.3432 18.2407 49.2948 18.714 50.2468 19.1875C51.2679 19.6955 52.2874 20.2051 53.2936 20.7422C54.3513 21.3067 55.4235 21.8409 56.4968 22.375C57.8876 23.0674 59.2728 23.7676 60.6413 24.5035C60.8566 24.6171 61.0751 24.7248 61.2936 24.8321C62.1828 25.2766 62.6992 25.7674 63.1374 26.6622C63.4311 27.5695 63.3887 28.705 62.9889 29.5704C62.627 30.1909 62.1417 30.6776 61.4968 31C61.4981 31.078 61.4994 31.1559 61.5007 31.2362C61.5684 35.8836 61.5684 35.8836 60.1188 37.522C59.5746 38.0243 58.9965 38.3232 58.3005 38.5621C58.2194 38.5902 58.1384 38.6184 58.0548 38.6474C57.7806 38.7425 57.5059 38.8361 57.2311 38.9297C57.0307 38.999 56.8303 39.0683 56.6299 39.1378C56.1768 39.2948 55.7235 39.4513 55.2702 39.6075C54.4164 39.9023 53.564 40.2008 52.7116 40.4996C52.5562 40.554 52.4008 40.6085 52.2408 40.6646C52.0015 40.7485 51.7622 40.8324 51.523 40.9163C50.626 41.2307 49.7289 41.5446 48.8317 41.8584C48.7519 41.8864 48.6721 41.9143 48.5899 41.943C47.0579 42.4789 45.5254 43.0136 43.9928 43.5479C42.2415 44.1584 40.4908 44.7706 38.7403 45.3835C38.1878 45.5769 37.6353 45.7703 37.0828 45.9636C36.7625 46.0757 36.4421 46.1878 36.1218 46.2999C36.0416 46.3279 35.9614 46.356 35.8788 46.3849C34.838 46.7491 33.7973 47.1138 32.7569 47.4791C32.0281 47.7349 31.2993 47.9904 30.5704 48.2458C30.1332 48.3989 29.696 48.5523 29.259 48.706C28.7739 48.8766 28.2887 49.0465 27.8034 49.2164C27.6601 49.2669 27.5168 49.3174 27.3692 49.3695C25.0279 50.1869 22.6971 50.3625 20.3835 49.3394C19.5693 48.9289 18.8904 48.39 18.2009 47.7986C17.7988 47.4567 17.3891 47.1239 16.9811 46.7891C16.7972 46.6376 16.6133 46.4861 16.4294 46.3345C15.8894 45.8896 15.3494 45.4448 14.8093 45C14.2692 44.5553 13.7291 44.1105 13.1891 43.6656C12.0629 42.7376 12.0629 42.7376 10.9343 41.8125C10.1816 41.1974 9.43145 40.5792 8.68132 39.961C8.31117 39.6559 7.94072 39.3513 7.57 39.0469C6.74047 38.3657 5.91195 37.6832 5.0905 36.9922C4.96611 36.8877 4.84171 36.7831 4.71355 36.6753C4.20722 36.2305 3.73863 35.7836 3.35613 35.2266C3.29651 35.1423 3.23689 35.0581 3.17546 34.9712C2.69789 34.0461 2.56811 33.1281 2.57537 32.0992C2.5732 31.8611 2.571 31.6231 2.56877 31.3851C2.56751 31.015 2.56707 30.645 2.56728 30.275C2.56683 29.9142 2.56342 29.5536 2.55974 29.1929C2.56076 29.0825 2.56179 28.9721 2.56284 28.8583C2.55482 28.1966 2.48328 27.8634 1.99675 27.375C1.58678 26.5773 1.6074 25.5522 1.8239 24.6944C2.1829 23.8843 2.85649 23.29 3.66278 22.9492C4.38687 22.6845 5.13691 22.5339 5.88909 22.3712C6.05349 22.335 6.21788 22.2989 6.38225 22.2626C6.73464 22.185 7.08711 22.1079 7.43968 22.0312C7.99916 21.9094 8.5584 21.7866 9.11762 21.6637C10.004 21.4689 10.8906 21.2749 11.7772 21.0811C13.3602 20.7352 14.943 20.3882 16.5257 20.0407C17.0796 19.9191 17.6336 19.7979 18.1876 19.677C20.3201 19.214 20.3201 19.214 22.4457 18.721C22.5883 18.6868 22.7308 18.6527 22.8777 18.6175C23.3744 18.4594 23.7845 18.221 24.2082 17.9209C24.8793 17.5235 25.4797 17.4823 26.238 17.5211C28.1788 17.6147 29.9586 17.1361 31.8249 16.6563C32.1488 16.5755 32.4729 16.4959 32.797 16.4161C34.0611 16.1015 35.3121 15.7879 36.5405 15.3513C37.0455 15.197 37.5343 15.171 38.0593 15.1641C42.1465 15.0513 42.1465 15.0513 43.2468 15.625ZM37.4968 16.875C37.7428 17.0005 37.9876 17.1212 38.2424 17.2281C39.092 17.5999 39.4849 18.1343 39.8405 18.9766C40.2113 20.0911 40.1116 20.975 39.7966 22.1001C39.7111 22.5036 39.7111 22.5036 39.9079 22.857C40.0997 23.1359 40.0997 23.1359 40.3718 23.25C40.6646 23.1764 40.9502 23.0953 41.2389 23.0079C42.2004 22.7365 43.0887 22.5465 44.0514 22.9141C44.5267 23.4126 44.6668 23.9783 44.8718 24.625C44.99 24.9203 45.1176 25.2094 45.2468 25.5C45.7978 25.5 45.8327 25.4773 46.2077 25.125C46.295 25.0454 46.3824 24.9658 46.4723 24.8838C46.6539 24.7126 46.8343 24.5401 47.0134 24.3663C47.6958 23.7229 48.3735 23.3395 49.2468 23C48.9103 22.6428 48.5822 22.3768 48.1613 22.1255C48.0467 22.0566 47.9322 21.9876 47.8141 21.9166C47.63 21.8071 47.63 21.8071 47.4421 21.6954C47.1805 21.5381 46.9189 21.3807 46.6574 21.2232C46.5255 21.1439 46.3935 21.0647 46.2576 20.983C45.6884 20.6394 45.1238 20.2887 44.5593 19.9375C44.3449 19.8049 44.1306 19.6722 43.9162 19.5396C43.5681 19.3243 43.2203 19.1086 42.873 18.8921C42.4904 18.6537 42.1069 18.4166 41.7233 18.1797C41.6068 18.1067 41.4903 18.0337 41.3703 17.9585C40.3772 17.3479 39.4285 16.7928 38.2311 16.8438C38.0916 16.8483 37.952 16.8528 37.8083 16.8575C37.7055 16.8633 37.6027 16.8691 37.4968 16.875ZM31.9284 18.2618C31.7701 18.3041 31.7701 18.3041 31.6086 18.3472C31.4995 18.377 31.3904 18.4068 31.278 18.4375C31.1115 18.4823 31.1115 18.4823 30.9416 18.5279C30.6681 18.6014 30.3949 18.6755 30.1218 18.75C30.5647 19.249 31.0888 19.5634 31.653 19.9063C31.7461 19.9637 31.8393 20.021 31.9352 20.0801C32.1637 20.2207 32.3927 20.3605 32.6218 20.5C32.7687 20.1291 32.7687 20.1291 32.7389 19.7344C32.748 19.1706 32.8586 18.6692 32.9968 18.125C32.5816 18.125 32.3184 18.1564 31.9284 18.2618ZM34.2468 19.5C34.2777 20.4598 34.5061 21.1282 35.1218 21.875C35.5886 22.3003 36.0948 22.6544 36.6218 23C36.7076 23.057 36.7934 23.1139 36.8818 23.1725C37.1532 23.3514 37.4261 23.5279 37.6999 23.7032C37.7873 23.7595 37.8747 23.8158 37.9647 23.8738C38.1789 24.0074 38.3998 24.1298 38.6218 24.25C38.7043 24.2088 38.7868 24.1675 38.8718 24.125C38.7519 23.9394 38.7519 23.9394 38.6296 23.75C38.1494 22.8858 38.2323 22.2708 38.4577 21.336C38.6399 20.5587 38.5994 20.0118 38.2931 19.2715C38.0008 18.8084 37.7161 18.6508 37.1921 18.5079C36.1664 18.4116 35.0392 18.8661 34.2468 19.5ZM24.0514 20.0704C23.8858 20.3513 23.8164 20.5615 23.7468 20.875C23.8286 20.8494 23.9105 20.8238 23.9948 20.7974C25.2248 20.4343 26.5071 20.1666 27.7468 20.625C28.6056 21.095 29.0598 21.7222 29.402 22.6236C29.6386 23.5639 29.5911 24.5865 29.3561 25.5235C29.2134 25.9678 29.2134 25.9678 29.3259 26.272C29.4822 26.5221 29.4822 26.5221 29.7721 26.6089C30.2164 26.6294 30.5437 26.5221 30.9655 26.3829C32.5668 25.9021 32.5668 25.9021 33.4186 26.3438C33.9806 26.8255 34.1834 27.2416 34.3874 27.9532C34.5353 28.489 34.5353 28.489 34.7468 29C35.4077 28.9637 35.6991 28.5723 36.1139 28.1094C36.8978 27.2743 37.6904 26.8106 38.7468 26.375C38.7468 26.2925 38.7468 26.21 38.7468 26.125C38.5432 25.9695 38.5432 25.9695 38.2746 25.8208C38.1728 25.7611 38.071 25.7013 37.9661 25.6398C37.8551 25.5756 37.744 25.5115 37.6296 25.4454C36.8143 24.9657 36.0065 24.4799 35.2155 23.961C34.2359 23.3199 33.2447 22.6982 32.2507 22.0798C31.5447 21.6403 30.8417 21.1968 30.142 20.7475C27.1281 18.797 27.1281 18.797 24.0514 20.0704ZM47.8718 20C48.1933 20.3604 48.5613 20.5815 48.9743 20.8282C49.0458 20.8711 49.1173 20.9141 49.1909 20.9584C49.3437 21.0502 49.4967 21.1418 49.6498 21.2332C50.0478 21.4708 50.4447 21.7102 50.8415 21.9498C50.9198 21.997 50.998 22.0443 51.0787 22.0929C51.8125 22.5372 52.5342 22.9989 53.2497 23.472C53.6911 23.7634 53.6911 23.7634 54.1608 24.0044C54.3718 24.125 54.3718 24.125 54.4791 24.3604C54.6501 24.6777 54.8117 24.7884 55.1149 24.98C55.2157 25.044 55.3164 25.1079 55.4202 25.1738C55.528 25.2402 55.6357 25.3066 55.7468 25.375C55.9089 25.4773 55.9089 25.4773 56.0743 25.5817C56.4148 25.7927 56.7595 25.9945 57.1061 26.1954C57.2207 26.2667 57.3353 26.338 57.4533 26.4114C58.1049 26.784 58.5059 26.9389 59.2477 26.7457C59.6326 26.6134 59.9054 26.4776 60.2468 26.25C59.531 25.7824 58.7961 25.3837 58.0295 25.0064C57.9144 24.9492 57.7994 24.892 57.6809 24.8331C57.3151 24.6513 56.9489 24.4701 56.5827 24.2891C55.1128 23.5613 53.6468 22.8293 52.1974 22.0613C51.3417 21.6079 50.4801 21.1677 49.6139 20.7344C49.4717 20.6626 49.3295 20.5907 49.183 20.5167C49.0479 20.449 48.9128 20.3813 48.7736 20.3116C48.6539 20.2514 48.5341 20.1913 48.4108 20.1294C48.1365 19.983 48.1365 19.983 47.8718 20ZM20.8464 20.7618C20.6627 20.8041 20.6627 20.8041 20.4753 20.8472C20.2848 20.8919 20.2848 20.8919 20.0905 20.9375C19.9616 20.9674 19.8327 20.9972 19.6999 21.0279C19.3821 21.1015 19.0644 21.1755 18.7468 21.25C19.225 21.7701 19.8451 22.0939 20.4421 22.461C20.5635 22.5368 20.6849 22.6126 20.81 22.6907C20.9259 22.7623 21.0419 22.834 21.1613 22.9078C21.2676 22.9735 21.3739 23.0391 21.4834 23.1068C21.7334 23.27 21.7334 23.27 21.9968 23.25C21.9968 22.3838 21.9968 21.5175 21.9968 20.625C21.5689 20.625 21.2572 20.6662 20.8464 20.7618ZM23.6218 22.625C23.6605 23.5158 24.0405 24.2948 24.6746 24.9275C25.2713 25.461 25.9341 25.8782 26.6139 26.2969C26.7233 26.3651 26.8326 26.4332 26.9452 26.5035C27.212 26.6697 27.4792 26.8352 27.7468 27C27.8751 26.6149 27.8662 26.4867 27.8014 26.1016C27.7494 25.6981 27.7497 25.3982 27.8639 25.0079C28.0596 24.3246 28.1442 23.639 27.8874 22.9615C27.5343 22.3285 27.1868 22.0795 26.4968 21.875C25.5165 21.875 24.498 22.1971 23.6218 22.625ZM13.9811 23.2813C13.9038 23.3947 13.8264 23.5082 13.7468 23.625C13.8333 23.598 13.9198 23.5709 14.009 23.543C15.1612 23.2151 16.5483 22.9455 17.6921 23.4375C18.4173 23.8853 18.9216 24.6597 19.1891 25.459C19.3541 26.2922 19.2831 27.164 19.1686 28C19.1102 28.4417 19.1478 28.7269 19.3718 29.125C19.5108 29.291 19.5108 29.291 19.8639 29.2813C20.2642 29.278 20.5873 29.1904 20.9655 29.0625C21.8035 28.7956 22.5951 28.7217 23.4264 29.0391C23.9003 29.5361 24.0461 30.1033 24.2468 30.75C24.3519 31.0706 24.4591 31.3258 24.6218 31.625C24.9971 31.7625 25.1784 31.7783 25.5505 31.6246C25.6513 31.5603 25.7522 31.496 25.8561 31.4297C25.9655 31.3601 26.0749 31.2905 26.1877 31.2188C26.4534 31.0308 26.6881 30.8378 26.9264 30.6172C27.4536 30.137 28.0933 29.8921 28.7468 29.625C28.4086 29.2668 28.0747 28.9949 27.6559 28.7364C27.5389 28.6637 27.4219 28.591 27.3013 28.5161C27.1119 28.3999 27.1119 28.3999 26.9186 28.2813C26.7866 28.1996 26.6546 28.1178 26.5186 28.0336C26.0952 27.7716 25.671 27.5107 25.2468 27.25C24.9676 27.0783 24.6885 26.9066 24.4094 26.7349C23.9964 26.481 23.5835 26.2271 23.1704 25.9735C22.3509 25.47 21.5353 24.961 20.7233 24.4454C20.011 23.9936 19.2966 23.546 18.5749 23.1094C18.4622 23.0407 18.4622 23.0407 18.3472 22.9705C17.0026 22.1635 15.104 21.954 13.9811 23.2813ZM11.2614 22.8723C11.1375 22.899 11.0136 22.9257 10.886 22.9533C10.7524 22.9826 10.6188 23.0119 10.4811 23.042C10.2752 23.0869 10.2752 23.0869 10.0651 23.1327C9.77458 23.1962 9.48416 23.2599 9.19377 23.3238C8.74873 23.4215 8.30342 23.5179 7.85808 23.6143C7.57616 23.6761 7.29426 23.7379 7.01238 23.7999C6.87878 23.8286 6.74518 23.8574 6.60753 23.8871C6.4217 23.9283 6.4217 23.9283 6.2321 23.9704C6.12304 23.9943 6.01397 24.0182 5.9016 24.0428C5.59014 24.1193 5.59014 24.1193 5.24675 24.375C5.55264 24.6328 5.86383 24.8833 6.17644 25.1329C6.30539 25.2417 6.30539 25.2417 6.43694 25.3528C6.87998 25.7011 7.2011 25.9345 7.778 25.879C7.9768 25.8403 8.17471 25.7969 8.37175 25.75C8.49382 25.7264 8.61589 25.7027 8.74166 25.6782C9.14293 25.6001 9.54242 25.5157 9.94207 25.4297C10.0801 25.4005 10.2181 25.3712 10.3603 25.3411C10.6975 25.2696 11.0347 25.1975 11.3718 25.125C11.4194 24.9621 11.4194 24.9621 11.4679 24.7959C11.511 24.6519 11.554 24.5078 11.5983 24.3594C11.6404 24.2173 11.6824 24.0752 11.7258 23.9288C11.8675 23.5126 12.041 23.1379 12.2468 22.75C11.8906 22.75 11.608 22.7971 11.2614 22.8723ZM41.9343 24.4297C41.174 24.6732 40.4152 24.714 39.6218 24.75C40.1788 25.2233 40.7838 25.5997 41.403 25.9844C41.8101 26.2383 42.2165 26.4932 42.6218 26.75C42.7248 26.8154 42.8279 26.8807 42.9341 26.948C43.0332 27.0122 43.1324 27.0764 43.2345 27.1426C43.3675 27.2282 43.3675 27.2282 43.5031 27.3156C44.6892 28.2134 45.1076 29.7672 45.4968 31.125C45.7443 31.0425 45.9918 30.96 46.2468 30.875C46.197 30.7653 46.197 30.7653 46.1462 30.6534C45.6896 29.5436 45.5957 28.4341 45.4968 27.25C45.4228 27.2317 45.3488 27.2133 45.2726 27.1944C44.7112 27.035 44.2403 26.8845 43.8791 26.3946C43.6222 25.8714 43.4899 25.3065 43.3464 24.7437C43.2841 24.3916 43.2841 24.3916 43.1218 24.25C42.6797 24.2205 42.3486 24.2814 41.9343 24.4297ZM47.7468 25.875C47.1732 26.7196 47.033 27.62 47.1218 28.625C47.2613 29.3249 47.4048 29.926 47.9968 30.375C48.1205 30.2925 48.2443 30.21 48.3718 30.125C48.3447 30.0508 48.3176 29.9765 48.2897 29.9C47.8805 28.6817 47.8495 27.6881 48.363 26.4996C48.4968 26.25 48.4968 26.25 48.7468 26C49.1843 25.9688 49.1843 25.9688 49.6218 26C49.8718 26.25 49.8718 26.25 49.9108 26.5938C49.8718 27 49.8718 27 49.6843 27.3672C49.3599 28.0294 49.4613 28.5648 49.6843 29.2422C49.7455 29.412 49.8075 29.5814 49.8718 29.75C50.1605 29.6675 50.4493 29.585 50.7468 29.5C50.7305 29.4261 50.7142 29.3521 50.6974 29.2759C50.6435 28.9668 50.6085 28.6889 50.6218 28.375C50.903 28.0235 50.903 28.0235 51.2468 27.75C51.4858 27.515 51.4858 27.515 51.6218 27.25C51.587 26.9508 51.587 26.9508 51.4968 26.625C51.4733 26.1641 51.4733 26.1641 51.4968 25.75C51.7468 25.5 51.7468 25.5 52.1139 25.461C52.4968 25.5 52.4968 25.5 52.7155 25.6329C53.1998 26.3835 53.1723 27.1514 52.9968 28C52.8014 28.4532 52.8014 28.4532 52.6218 28.75C53.261 28.6165 53.8808 28.4712 54.4968 28.25C54.3113 26.9239 53.7923 25.7406 52.6999 24.9141C50.9136 23.7182 49.0779 24.4214 47.7468 25.875ZM12.9968 25.875C13.0483 26.8202 13.302 27.5544 13.9826 28.2364C14.8451 28.9529 15.8029 29.5608 16.7306 30.189C17.3626 30.6175 17.989 31.0536 18.6139 31.4922C18.7174 31.5648 18.8208 31.6373 18.9273 31.712C19.3473 32.0066 19.767 32.3015 20.1868 32.5964C21.3571 33.4181 22.5291 34.2371 23.7077 35.0469C23.8615 35.153 23.8615 35.153 24.0185 35.2613C24.1124 35.3256 24.2062 35.3899 24.3029 35.4561C24.4273 35.5415 24.4273 35.5415 24.5542 35.6287C24.7264 35.7612 24.7264 35.7612 24.8718 35.75C24.9543 34.9663 25.0368 34.1825 25.1218 33.375C24.9284 33.3261 24.735 33.2771 24.5358 33.2266C23.9489 33.0453 23.6117 32.8902 23.2468 32.375C23.0534 31.9245 22.8999 31.4655 22.7468 31C22.665 30.7911 22.5821 30.5826 22.4968 30.375C22.0038 30.4269 21.5693 30.4759 21.0983 30.6329C20.3208 30.8241 19.3964 30.9401 18.6559 30.5879C18.1335 30.1966 17.823 29.7046 17.6755 29.0669C17.5947 28.3952 17.6515 27.7915 17.7468 27.125C17.8245 26.2955 17.7382 25.8076 17.2468 25.125C16.7856 24.7132 16.4643 24.6795 15.862 24.6973C14.8374 24.8453 13.8669 25.3287 12.9968 25.875ZM10.1608 26.9375C10.0731 26.9554 9.98534 26.9733 9.89495 26.9917C9.67882 27.0359 9.46278 27.0804 9.24675 27.125C9.24675 27.2075 9.24675 27.29 9.24675 27.375C9.41934 27.5336 9.41934 27.5336 9.65105 27.689C9.73966 27.7518 9.82828 27.8147 9.91957 27.8794C10.0172 27.9476 10.1149 28.0158 10.2155 28.086C10.4235 28.2336 10.6313 28.3814 10.839 28.5293C10.9476 28.6066 11.0561 28.6839 11.168 28.7635C11.6975 29.1445 12.2182 29.5369 12.7389 29.9297C13.8461 30.7635 14.96 31.5877 16.0769 32.4083C16.5714 32.7718 17.0653 33.1359 17.5593 33.5C17.7572 33.6459 17.9551 33.7917 18.153 33.9375C19.3405 34.8125 19.3405 34.8125 19.6379 35.0317C19.8341 35.1763 20.0304 35.3209 20.2267 35.4655C20.7466 35.8485 21.2663 36.2317 21.7858 36.6153C21.8943 36.6954 22.0029 36.7754 22.1147 36.858C22.3232 37.0119 22.5317 37.1658 22.7402 37.3199C22.8339 37.389 22.9276 37.4581 23.0241 37.5293C23.1065 37.5902 23.1889 37.6511 23.2739 37.7138C23.7421 38.0691 23.7421 38.0691 24.3249 38.0938C24.4641 38.0629 24.6033 38.0319 24.7468 38C24.788 37.9175 24.8293 37.835 24.8718 37.75C24.7564 37.6711 24.641 37.5921 24.5221 37.5108C23.2398 36.6319 21.965 35.7426 20.6923 34.8498C20.169 34.4829 19.6454 34.1165 19.1218 33.75C18.9139 33.6045 18.7061 33.459 18.4982 33.3135C17.9705 32.9441 17.4426 32.575 16.9148 32.2058C16.6028 31.9875 16.2909 31.769 15.9792 31.5503C15.575 31.267 15.17 30.9849 14.7643 30.7037C14.5736 30.5707 14.3828 30.4377 14.1921 30.3047C14.1056 30.2452 14.0191 30.1856 13.93 30.1243C12.7092 29.2703 11.828 28.2254 11.4968 26.75C11.0366 26.75 10.609 26.8446 10.1608 26.9375ZM55.9968 27.375C55.9968 27.4575 55.9968 27.54 55.9968 27.625C56.1205 27.5838 56.2443 27.5425 56.3718 27.5C56.248 27.4588 56.1243 27.4175 55.9968 27.375ZM31.6081 27.7618C31.4667 27.8041 31.4667 27.8041 31.3224 27.8472C31.2253 27.877 31.1281 27.9068 31.028 27.9375C30.9289 27.9674 30.8298 27.9972 30.7277 28.0279C30.4839 28.1013 30.2403 28.1756 29.9968 28.25C30.6441 28.8025 31.3697 29.2241 32.0951 29.6644C33.5695 30.5772 34.5752 31.58 35.1218 33.25C35.2479 32.8576 35.2297 32.6424 35.1218 32.25C35.0943 31.9692 35.0711 31.6878 35.0514 31.4063C35.041 31.26 35.0305 31.1137 35.0197 30.9629C35.0121 30.8514 35.0046 30.7399 34.9968 30.625C34.9199 30.5994 34.843 30.5738 34.7638 30.5474C34.3415 30.4066 33.9191 30.2658 33.4968 30.125C33.3688 29.8658 33.3688 29.8658 33.2468 29.5C33.1936 29.3446 33.1404 29.1891 33.0856 29.0289C33.0298 28.8605 32.9741 28.692 32.9186 28.5235C32.8756 28.3936 32.8756 28.3936 32.8317 28.261C32.7616 28.0491 32.6916 27.8371 32.6218 27.625C32.2123 27.625 31.9842 27.6478 31.6081 27.7618ZM37.3718 29.125C36.7721 29.8824 36.5582 30.6726 36.5715 31.628C36.6767 32.4067 36.973 33.1418 37.2468 33.875C37.453 33.7925 37.6593 33.71 37.8718 33.625C37.8447 33.5522 37.8176 33.4794 37.7897 33.4043C37.3689 32.1653 37.335 31.0786 37.863 29.8702C37.9968 29.625 37.9968 29.625 38.2468 29.375C38.5173 29.3506 38.5173 29.3506 38.8249 29.3594C38.9781 29.3628 38.9781 29.3628 39.1344 29.3663C39.2519 29.3706 39.2519 29.3706 39.3718 29.375C39.4099 30.1116 39.3288 30.4609 38.9968 31.125C38.9217 31.9009 39.0664 32.4125 39.3718 33.125C39.7018 33.0425 40.0318 32.96 40.3718 32.875C40.2893 32.7513 40.2068 32.6275 40.1218 32.5C40.0593 32.0704 40.0593 32.0704 40.1218 31.625C40.3659 31.4499 40.6164 31.2834 40.8718 31.125C41.0879 30.6646 41.1589 30.4866 40.9968 30C40.9733 29.5547 40.9733 29.5547 40.9968 29.125C41.2468 28.875 41.2468 28.875 41.4899 28.8506C41.7422 28.8588 41.9945 28.8669 42.2468 28.875C42.5602 29.8225 42.8095 30.6929 42.3757 31.6392C42.2584 31.8482 42.1287 32.05 41.9968 32.25C42.636 32.1165 43.2558 31.9712 43.8718 31.75C43.8667 30.6032 43.5119 29.6012 42.7599 28.7237C41.8911 27.9114 41.0459 27.6715 39.8664 27.7071C38.8328 27.8272 38.0792 28.3904 37.3718 29.125ZM3.49675 25.125C3.30024 25.5181 3.30701 25.9473 3.37175 26.375C3.627 26.918 3.96353 27.2021 4.44207 27.5547C4.58896 27.6645 4.73576 27.7744 4.8825 27.8843C4.96141 27.943 5.04032 28.0018 5.12163 28.0622C5.57161 28.4001 6.01417 28.7475 6.45769 29.0938C6.65087 29.2442 6.84407 29.3946 7.03728 29.545C7.18239 29.658 7.18239 29.658 7.33043 29.7732C7.8024 30.1407 8.27459 30.5079 8.74675 30.875C8.93425 31.0209 9.12175 31.1667 9.30925 31.3125C9.44847 31.4208 9.44847 31.4208 9.5905 31.5313C17.1843 37.4375 17.1843 37.4375 17.4657 37.6565C17.6524 37.8017 17.8391 37.9468 18.0258 38.0919C18.5077 38.4664 18.9891 38.8417 19.4694 39.2183C21.9285 41.3272 21.9285 41.3272 24.9968 41.875C25.3032 41.7993 25.6022 41.7181 25.904 41.627C25.9954 41.5997 26.0869 41.5724 26.1811 41.5443C27.5546 41.1267 28.9072 40.6445 30.2624 40.1719C30.566 40.0665 30.8696 39.9611 31.1733 39.8558C31.7234 39.6649 32.2736 39.4738 32.8236 39.2826C34.2181 38.7978 35.6136 38.316 37.0091 37.8343C37.7248 37.5873 38.4404 37.34 39.1559 37.0928C39.2979 37.0438 39.4399 36.9947 39.5862 36.9442C40.438 36.6499 41.2898 36.3556 42.1415 36.0612C42.8485 35.8168 43.5554 35.5725 44.2624 35.3282C44.4023 35.2798 44.5423 35.2314 44.6865 35.1816C46.522 34.5473 48.3579 33.9145 50.1943 33.2832C51.4792 32.8415 52.7637 32.399 54.0481 31.9561C54.8872 31.6668 55.7266 31.3783 56.5662 31.0906C57.0373 30.9289 57.508 30.7664 57.9787 30.6036C58.1907 30.5304 58.4028 30.4577 58.6151 30.3853C58.9013 30.2877 59.1871 30.1887 59.4728 30.0894C59.5541 30.062 59.6354 30.0347 59.7191 30.0065C60.5709 29.707 61.205 29.3176 61.6218 28.5C61.6637 28.0311 61.6637 28.0311 61.6218 27.625C60.5377 27.9053 59.4763 28.2433 58.4137 28.5953C58.2364 28.6537 58.0591 28.7121 57.8818 28.7705C57.5059 28.8943 57.1301 29.0183 56.7543 29.1425C56.1604 29.3388 55.5664 29.5345 54.9723 29.7302C54.772 29.7962 54.5717 29.8622 54.3714 29.9281C54.2725 29.9607 54.1736 29.9933 54.0717 30.0269C53.7722 30.1255 53.4728 30.2242 53.1734 30.3229C51.579 30.8484 49.9835 31.3705 48.3874 31.8907C46.0636 32.6484 43.7409 33.4096 41.4186 34.1719C40.7359 34.3961 40.0531 34.6202 39.3703 34.8443C39.2862 34.8719 39.2021 34.8995 39.1155 34.9279C37.9268 35.3181 36.738 35.7079 35.549 36.0972C35.4037 36.1448 35.2584 36.1924 35.1088 36.2414C34.3987 36.4739 33.6886 36.7061 32.9784 36.9379C31.7104 37.3519 30.443 37.7671 29.1775 38.1884C28.6074 38.3781 28.037 38.5669 27.4666 38.7555C27.198 38.8446 26.9296 38.9342 26.6614 39.0243C26.2931 39.1479 25.9243 39.2699 25.5553 39.3917C25.3939 39.4465 25.3939 39.4465 25.2293 39.5025C24.6346 39.6967 24.1306 39.8066 23.4968 39.75C23.1261 39.5567 23.1261 39.5567 22.7546 39.2813C22.6856 39.2311 22.6167 39.1808 22.5456 39.129C22.3193 38.9632 22.0955 38.7943 21.8718 38.625C21.7164 38.5092 21.561 38.3935 21.4054 38.2779C21.0722 38.0293 20.74 37.7795 20.4084 37.5289C19.8446 37.1035 19.2766 36.6841 18.7077 36.2657C18.6083 36.1926 18.509 36.1195 18.4066 36.0441C18.2043 35.8954 18.002 35.7466 17.7997 35.5978C17.3026 35.2323 16.8059 34.8661 16.3093 34.5C16.1113 34.3542 15.9134 34.2084 15.7155 34.0625C15.3197 33.7709 14.9238 33.4792 14.528 33.1875C14.43 33.1153 14.332 33.0431 14.231 32.9687C14.0334 32.8231 13.8358 32.6775 13.6382 32.5318C13.1389 32.1639 12.6395 31.7961 12.1398 31.4288C11.1324 30.6878 10.1276 29.9436 9.12816 29.1918C8.29377 28.5649 7.45343 27.9462 6.61248 27.3282C6.18168 27.0115 5.7518 26.6937 5.32244 26.375C5.213 26.294 5.10356 26.2129 4.9908 26.1294C4.77919 25.9726 4.56773 25.8156 4.35646 25.6583C4.26193 25.5884 4.16739 25.5184 4.07 25.4463C3.98627 25.3842 3.90254 25.322 3.81627 25.2579C3.64381 25.1133 3.64381 25.1133 3.49675 25.125ZM27.2468 32.5C26.5788 33.6327 26.3795 34.6938 26.4968 36C26.6228 36.402 26.786 36.7609 26.9968 37.125C27.368 37.0632 27.368 37.0632 27.7468 37C27.7197 36.9063 27.6926 36.8125 27.6647 36.7159C27.3209 35.4519 27.1692 34.3421 27.7468 33.125C27.9733 32.8047 27.9733 32.8047 28.2468 32.625C28.6374 32.5782 28.6374 32.5782 28.9968 32.625C29.2468 32.875 29.2468 32.875 29.2858 33.2891C29.244 33.7822 29.1198 33.9617 28.8718 34.375C28.7822 35.1363 29.0059 35.7876 29.2468 36.5C29.5768 36.3763 29.9068 36.2525 30.2468 36.125C30.1643 36.0013 30.0818 35.8775 29.9968 35.75C29.9646 35.4132 29.9856 35.0894 29.9968 34.75C30.0921 34.7191 30.1875 34.6882 30.2858 34.6563C30.671 34.4771 30.791 34.3685 30.9968 34C31.0057 33.5972 31.0057 33.5972 30.9421 33.1719C30.8879 32.7374 30.8879 32.7374 30.8718 32.375C31.1218 32.125 31.1218 32.125 31.3649 32.1006C31.6172 32.1088 31.8695 32.1169 32.1218 32.125C32.6874 33.7985 32.6874 33.7985 32.384 34.5171C32.2954 34.6927 32.203 34.8665 32.1061 35.0376C31.9777 35.2473 31.9777 35.2473 31.9968 35.5C32.636 35.3665 33.2558 35.2212 33.8718 35C33.7082 33.7164 33.3511 32.5799 32.3727 31.6841C30.6132 30.3936 28.5922 30.9291 27.2468 32.5ZM4.24675 29.5C4.23424 29.9934 4.22525 30.4867 4.21929 30.9802C4.21558 31.229 4.20923 31.4778 4.20281 31.7266C4.1907 32.925 4.32017 34.0128 5.16423 34.9317C5.66717 35.4003 6.20906 35.8225 6.74675 36.25C6.96061 36.4241 7.17416 36.5986 7.38738 36.7735C7.50082 36.8663 7.61425 36.9591 7.73113 37.0547C8.47838 37.667 9.2235 38.2819 9.96904 38.8962C10.4157 39.2643 10.8625 39.6321 11.3093 40C11.4863 40.1459 11.6634 40.2917 11.8405 40.4375C11.9282 40.5097 12.0158 40.5819 12.1061 40.6563C15.028 43.0625 15.028 43.0625 15.2937 43.2814C15.4705 43.4269 15.6473 43.5725 15.8241 43.718C16.2719 44.0866 16.7194 44.4557 17.1662 44.8257C17.6081 45.1915 18.051 45.556 18.495 45.9191C18.6601 46.0542 18.825 46.1895 18.9897 46.3251C20.7913 47.8047 22.3556 48.5358 24.7091 48.404C25.502 48.3242 26.2384 48.0394 26.9811 47.7657C27.1717 47.6985 27.3624 47.6316 27.5533 47.5651C27.9728 47.4183 28.3915 47.2695 28.8099 47.1195C29.5455 46.8565 30.2841 46.6025 31.0231 46.3492C33.8015 45.3957 36.5733 44.4239 39.3409 43.4396C41.3681 42.7189 43.4 42.0129 45.4343 41.3125C48.2599 40.3396 51.0795 39.3506 53.8944 38.3473C54.5063 38.1294 55.1188 37.913 55.7322 37.6994C55.9862 37.611 56.24 37.5222 56.4937 37.4332C56.7846 37.3314 57.0757 37.2303 57.3672 37.1301C58.6604 36.6777 58.6604 36.6777 59.5202 35.647C59.9384 34.5271 59.9574 33.2781 59.8079 32.1052C59.7877 31.9467 59.7676 31.7883 59.7468 31.625C57.4249 32.3896 55.1083 33.1677 52.8014 33.9766C50.5464 34.7673 48.2874 35.546 46.0269 36.3208C45.2103 36.6007 44.3938 36.8806 43.5773 37.1607C43.4883 37.1912 43.3992 37.2218 43.3075 37.2533C41.5883 37.843 39.8703 38.4362 38.153 39.0313C38.0244 39.0759 37.8958 39.1204 37.7632 39.1663C37.2451 39.3459 36.7271 39.5254 36.209 39.705C34.7217 40.2205 33.2342 40.7353 31.7466 41.2497C31.45 41.3522 31.1535 41.4548 30.8571 41.5574C29.9457 41.8729 29.034 42.1873 28.1218 42.5C28.0087 42.5389 27.8956 42.5778 27.7791 42.6178C27.4681 42.7244 27.1568 42.8302 26.8454 42.9356C26.7565 42.9661 26.6676 42.9967 26.576 43.0281C24.8978 43.5918 23.2509 43.4762 21.6374 42.75C20.854 42.331 20.1815 41.7581 19.495 41.2001C19.0525 40.8435 18.6023 40.4966 18.153 40.1485C17.9609 39.9993 17.7689 39.85 17.5768 39.7007C17.4809 39.6262 17.3849 39.5516 17.2861 39.4748C16.8145 39.1084 16.3431 38.7417 15.8718 38.375C15.6843 38.2292 15.4968 38.0834 15.3093 37.9375C12.4968 35.75 12.4968 35.75 9.68425 33.5625C9.59136 33.4903 9.49847 33.4181 9.40276 33.3436C9.21606 33.1984 9.02938 33.0532 8.8427 32.9079C8.36171 32.5338 7.88054 32.1598 7.3991 31.7862C7.20248 31.6335 7.00587 31.4808 6.80925 31.3282C6.71531 31.2553 6.62137 31.1825 6.52459 31.1074C5.91394 30.633 5.31062 30.1511 4.7155 29.6573C4.50782 29.4757 4.50782 29.4757 4.24675 29.5ZM35.2468 33.25C35.288 33.6625 35.3293 34.075 35.3718 34.5C35.4955 34.4175 35.6193 34.335 35.7468 34.25C35.623 33.92 35.4993 33.59 35.3718 33.25C35.3305 33.25 35.2893 33.25 35.2468 33.25Z" fill="black"/>
</svg>
