<svg width="66" height="66" viewBox="0 0 66 66" fill="none" xmlns="http://www.w3.org/2000/svg">
<path d="M4.5625 28.9375H61.4375V33L59.4062 35.0312L54.3281 37.0625L52.2969 42.1406L55.3438 48.2344L61.4375 50.2656V55.3438H4.5625V28.9375Z" stroke="black" stroke-width="2.03125"/>
<path d="M18.5781 28.8638H4.5625V55.27H61.8438V50.1919" stroke="black" stroke-width="4.0625" stroke-linecap="round" stroke-linejoin="round"/>
<path d="M61.8438 34.9573V28.8635H17.9688" stroke="black" stroke-width="4.0625" stroke-linecap="round" stroke-linejoin="round"/>
<path d="M61.8438 28.8637L32.3906 14.8481C28.3557 12.7973 23.7423 12.1828 19.3112 13.1059C14.8801 14.0291 10.896 16.4347 8.01565 19.9262C5.86528 22.4162 4.64488 25.5748 4.5625 28.8637" stroke="black" stroke-width="4.0625" stroke-linecap="round" stroke-linejoin="round"/>
<path d="M21.0156 49.1763C24.6055 49.1763 27.5157 46.2661 27.5157 42.6763C27.5157 39.0864 24.6055 36.1763 21.0156 36.1763C17.4258 36.1763 14.5156 39.0864 14.5156 42.6763C14.5156 46.2661 17.4258 49.1763 21.0156 49.1763Z" stroke="black" stroke-width="4.0625" stroke-linecap="round" stroke-linejoin="round"/>
<path d="M41.125 46.9416C43.4809 46.9416 45.3906 45.0318 45.3906 42.676C45.3906 40.3202 43.4809 38.4104 41.125 38.4104C38.7692 38.4104 36.8594 40.3202 36.8594 42.676C36.8594 45.0318 38.7692 46.9416 41.125 46.9416Z" stroke="black" stroke-width="4.0625" stroke-miterlimit="10"/>
<path d="M61.8496 50.1916C60.7451 50.3726 59.6145 50.3112 58.5361 50.0117C57.4577 49.7122 56.4573 49.1818 55.6043 48.4572C54.7513 47.7326 54.0661 46.8311 53.5962 45.8153C53.1263 44.7995 52.8828 43.6937 52.8828 42.5745C52.8828 41.4552 53.1263 40.3494 53.5962 39.3336C54.0661 38.3178 54.7513 37.4164 55.6043 36.6918C56.4573 35.9672 57.4577 35.4367 58.5361 35.1372C59.6145 34.8377 60.7451 34.7763 61.8496 34.9573" stroke="black" stroke-width="4.0625" stroke-linecap="round" stroke-linejoin="round"/>
</svg>
