<svg width="64" height="64" viewBox="0 0 64 64" fill="none" xmlns="http://www.w3.org/2000/svg">
<path d="M7.85377 32.7334C7.94139 32.7332 8.029 32.7329 8.11928 32.7327C8.41508 32.732 8.71088 32.7321 9.00669 32.7323C9.22003 32.732 9.43336 32.7316 9.6467 32.7312C10.2347 32.7302 10.8227 32.73 11.4106 32.7299C12.0441 32.7296 12.6775 32.7287 13.311 32.7279C14.6968 32.7262 16.0826 32.7254 17.4684 32.7249C18.3332 32.7245 19.198 32.724 20.0628 32.7234C22.4558 32.7219 24.8487 32.7206 27.2417 32.7202C27.4715 32.7201 27.4715 32.7201 27.706 32.7201C27.9363 32.7201 27.9363 32.7201 28.1714 32.72C28.4826 32.72 28.7939 32.7199 29.1051 32.7198C29.3367 32.7198 29.3367 32.7198 29.573 32.7198C32.0759 32.7193 34.5788 32.7171 37.0817 32.7142C39.6495 32.7112 42.2173 32.7097 44.7852 32.7095C46.2277 32.7094 47.6702 32.7087 49.1127 32.7064C50.3407 32.7045 51.5688 32.7038 52.7968 32.7049C53.4237 32.7054 54.0506 32.7052 54.6775 32.7035C55.251 32.7019 55.8245 32.702 56.398 32.7036C56.6059 32.7038 56.8137 32.7034 57.0216 32.7023C57.3035 32.701 57.5852 32.7019 57.8671 32.7034C58.1023 32.7033 58.1023 32.7033 58.3422 32.7032C58.786 32.7539 59.022 32.8574 59.3762 33.1249C59.5196 33.4117 59.5175 33.5731 59.5187 33.892C59.5194 34.0004 59.5202 34.1088 59.5209 34.2205C59.521 34.3397 59.5212 34.459 59.5213 34.5819C59.5219 34.7073 59.5226 34.8328 59.5232 34.962C59.525 35.3794 59.5259 35.7968 59.5266 36.2142C59.5273 36.5053 59.528 36.7963 59.5287 37.0873C59.53 37.6996 59.5308 38.312 59.5312 38.9243C59.5319 39.7029 59.5349 40.4814 59.5384 41.26C59.5408 41.8626 59.5414 42.4652 59.5416 43.0679C59.542 43.3544 59.543 43.641 59.5446 43.9276C59.5561 46.0713 59.45 48.172 58.8059 50.2343C58.7589 50.3863 58.7589 50.3863 58.711 50.5415C57.8284 53.263 56.3667 55.589 54.3762 57.6249C54.2125 57.8001 54.2125 57.8001 54.0456 57.9789C51.0277 61.1382 46.6019 62.934 42.272 63.1486C41.7695 63.1579 41.2676 63.1602 40.765 63.1592C40.5742 63.1598 40.3834 63.1604 40.1926 63.1611C39.6802 63.1628 39.1677 63.1629 38.6553 63.1626C38.2245 63.1624 37.7938 63.1631 37.363 63.1637C36.345 63.165 35.327 63.1651 34.3089 63.1643C33.2657 63.1636 32.2224 63.1651 31.1792 63.1678C30.2773 63.17 29.3754 63.1707 28.4735 63.1703C27.9376 63.1701 27.4017 63.1704 26.8658 63.1722C24.268 63.18 21.7134 63.1743 19.1965 62.4296C19.0901 62.3985 18.9838 62.3675 18.8742 62.3355C17.0459 61.7716 15.2813 60.9004 13.7512 59.7499C13.6472 59.672 13.5433 59.5942 13.4362 59.514C9.51989 56.4735 6.97117 52.1905 6.27863 47.2683C6.22341 46.7284 6.23164 46.1865 6.23103 45.6443C6.23041 45.5106 6.22979 45.377 6.22915 45.2393C6.22733 44.7995 6.22647 44.3596 6.22578 43.9198C6.22506 43.6137 6.22434 43.3075 6.22362 43.0014C6.22231 42.3609 6.22158 41.7204 6.22114 41.0798C6.22045 40.2578 6.21744 39.4357 6.2139 38.6137C6.21157 37.9821 6.21092 37.3505 6.21072 36.7189C6.21035 36.4157 6.20934 36.1124 6.2077 35.8092C6.20558 35.3864 6.2058 34.9636 6.20662 34.5408C6.20546 34.4149 6.20431 34.2891 6.20312 34.1594C6.20382 34.0445 6.20452 33.9295 6.20523 33.8111C6.20505 33.7112 6.20487 33.6113 6.20468 33.5083C6.26345 33.1816 6.36579 33.0754 6.62617 32.8749C7.05987 32.7303 7.39598 32.7339 7.85377 32.7334ZM8.25117 34.7499C8.25117 35.7399 8.25117 36.7299 8.25117 37.7499C24.5037 37.7499 40.7562 37.7499 57.5012 37.7499C57.5012 36.7599 57.5012 35.7699 57.5012 34.7499C41.2487 34.7499 24.9962 34.7499 8.25117 34.7499ZM8.25117 39.7499C8.25117 41.2761 8.25117 42.8024 8.25117 44.3749C8.84237 44.3157 8.84237 44.3157 9.06048 44.0696C9.11016 43.9925 9.15985 43.9155 9.21104 43.8361C9.26855 43.7489 9.32607 43.6617 9.38532 43.5719C9.44498 43.4772 9.50464 43.3826 9.56611 43.285C9.62904 43.1884 9.69197 43.0918 9.75681 42.9922C9.95725 42.6834 10.155 42.3729 10.3527 42.0624C10.4882 41.8531 10.6239 41.644 10.7597 41.4349C11.3881 40.6276 11.3881 40.6276 11.7512 39.7499C10.5962 39.7499 9.44117 39.7499 8.25117 39.7499ZM15.7512 39.7499C16.2354 40.4762 16.709 41.1581 17.259 41.828C17.7371 42.4133 18.1924 43.0057 18.6262 43.6249C19.2361 43.0694 19.6772 42.4204 20.1418 41.7421C20.2957 41.5192 20.4497 41.2964 20.6037 41.0736C20.6711 40.9755 20.7385 40.8773 20.8079 40.7762C20.9379 40.5903 21.0733 40.408 21.2135 40.2296C21.4002 40.0128 21.4002 40.0128 21.3762 39.7499C19.5199 39.7499 17.6637 39.7499 15.7512 39.7499ZM25.3762 39.7499C25.6765 40.5006 26.0982 41.1382 26.5392 41.8106C26.6892 42.0398 26.8377 42.2699 26.986 42.5001C27.0808 42.6454 27.1757 42.7907 27.2707 42.9359C27.3568 43.0681 27.443 43.2003 27.5317 43.3365C27.6041 43.4316 27.6765 43.5268 27.7512 43.6249C27.8337 43.6249 27.9162 43.6249 28.0012 43.6249C28.2139 43.374 28.4131 43.1218 28.6105 42.8593C29.182 42.1128 29.7779 41.3949 30.4015 40.6915C30.6756 40.3783 30.8681 40.1491 31.0012 39.7499C29.1449 39.7499 27.2887 39.7499 25.3762 39.7499ZM35.2512 39.7499C35.6822 40.5258 36.0973 41.2063 36.634 41.8983C37.0677 42.463 37.4886 43.0273 37.8762 43.6249C38.2239 43.2918 38.5145 42.9543 38.7902 42.5599C38.8653 42.4527 38.9404 42.3455 39.0178 42.235C39.0948 42.1239 39.1718 42.0128 39.2512 41.8983C39.3667 41.7338 39.3667 41.7338 39.4846 41.566C39.8998 40.9704 40.2637 40.3842 40.6262 39.7499C38.8524 39.7499 37.0787 39.7499 35.2512 39.7499ZM44.5012 39.7499C45.0647 40.7994 45.0647 40.7994 45.6799 41.806C45.7508 41.9144 45.8217 42.0228 45.8947 42.1344C45.9659 42.2421 46.0372 42.3498 46.1105 42.4608C46.1847 42.5738 46.2588 42.6869 46.3352 42.8033C46.515 43.0775 46.6954 43.3513 46.8762 43.6249C47.3955 43.1268 47.8479 42.5919 48.298 42.0311C48.3693 41.9428 48.4405 41.8545 48.514 41.7635C49.4469 40.8193 49.4469 40.8193 50.0012 39.7499C48.1862 39.7499 46.3712 39.7499 44.5012 39.7499ZM54.1262 39.7499C54.6749 40.6121 55.2199 41.4511 55.8215 42.2733C55.8888 42.366 55.956 42.4588 56.0253 42.5543C56.2247 42.8285 56.4252 43.1018 56.6262 43.3749C56.6964 43.471 56.7666 43.5671 56.839 43.6662C56.9065 43.7578 56.9741 43.8494 57.0437 43.9437C57.1045 44.0266 57.1654 44.1095 57.2282 44.1949C57.277 44.2543 57.3259 44.3137 57.3762 44.3749C57.4174 44.3749 57.4587 44.3749 57.5012 44.3749C57.5012 42.8486 57.5012 41.3224 57.5012 39.7499C56.3874 39.7499 55.2737 39.7499 54.1262 39.7499ZM33.0012 40.4999C32.8053 40.7084 32.8053 40.7084 32.5949 40.9921C32.2545 41.4299 31.9099 41.8623 31.5549 42.2885C31.4375 42.4295 31.4375 42.4295 31.3177 42.5734C31.1604 42.762 31.0028 42.9504 30.8448 43.1385C30.7717 43.2265 30.6986 43.3145 30.6232 43.4051C30.5248 43.5228 30.5248 43.5228 30.4243 43.6429C30.217 43.9064 30.217 43.9064 30.0012 44.3749C31.9399 44.3749 33.8787 44.3749 35.8762 44.3749C35.6925 43.9158 35.5878 43.6627 35.3044 43.2953C35.2107 43.1724 35.2107 43.1724 35.1151 43.047C35.0492 42.9618 34.9832 42.8767 34.9152 42.7889C34.3932 42.1067 33.8883 41.4199 33.4143 40.703C33.3604 40.636 33.3066 40.5689 33.2512 40.4999C33.1687 40.4999 33.0862 40.4999 33.0012 40.4999ZM52.0012 40.4999C51.824 40.6935 51.6564 40.8958 51.4934 41.1014C51.343 41.2895 51.343 41.2895 51.1896 41.4813C51.1378 41.5466 51.086 41.6119 51.0325 41.6792C50.7887 41.9844 50.5391 42.2847 50.2902 42.5858C49.4826 43.4095 49.4826 43.4095 49.0012 44.3749C50.9399 44.3749 52.8787 44.3749 54.8762 44.3749C54.3162 43.495 53.7577 42.6421 53.1418 41.8046C52.9987 41.6092 52.8558 41.4137 52.7131 41.2181C52.6512 41.1339 52.5894 41.0497 52.5256 40.963C52.3762 40.7499 52.3762 40.7499 52.2512 40.4999C52.1687 40.4999 52.0862 40.4999 52.0012 40.4999ZM13.6262 40.6249C13.4334 40.8732 13.2566 41.1208 13.0822 41.3817C13.0299 41.4588 12.9775 41.5359 12.9236 41.6153C12.8128 41.7788 12.7025 41.9425 12.5926 42.1065C12.4239 42.358 12.2537 42.6084 12.0832 42.8588C11.976 43.0174 11.8689 43.1761 11.7619 43.3348C11.7107 43.4101 11.6596 43.4854 11.6069 43.5629C11.3363 43.9363 11.3363 43.9363 11.2512 44.3749C13.0249 44.3749 14.7987 44.3749 16.6262 44.3749C16.2459 43.6898 16.2459 43.6898 15.8073 43.0712C15.7513 43.0007 15.6953 42.9302 15.6376 42.8576C15.5797 42.786 15.5218 42.7143 15.4621 42.6405C15.3403 42.4882 15.2186 42.3359 15.0969 42.1835C15.0085 42.0733 15.0085 42.0733 14.9184 41.9608C14.6189 41.5831 14.3313 41.1962 14.0437 40.8094C13.9884 40.7485 13.9331 40.6876 13.8762 40.6249C13.7937 40.6249 13.7112 40.6249 13.6262 40.6249ZM23.2512 40.6249C23.0294 40.9202 22.8223 41.216 22.6184 41.5233C22.495 41.7063 22.3717 41.8892 22.2482 42.0721C22.1862 42.1646 22.1242 42.257 22.0604 42.3522C21.7875 42.7562 21.5075 43.1553 21.2277 43.5546C20.9158 43.9307 20.9158 43.9307 20.7512 44.3749C22.4424 44.3749 24.1337 44.3749 25.8762 44.3749C25.3373 43.4511 24.8034 42.5441 24.2121 41.6561C24.1466 41.5556 24.0811 41.455 24.0136 41.3514C23.9192 41.2093 23.9192 41.2093 23.8229 41.0643C23.767 40.9796 23.711 40.8949 23.6534 40.8076C23.6031 40.7473 23.5529 40.687 23.5012 40.6249C23.4187 40.6249 23.3362 40.6249 23.2512 40.6249ZM42.5012 40.6249C42.4409 40.7106 42.4409 40.7106 42.3793 40.7981C42.1909 41.066 42.0023 41.3337 41.8137 41.6014C41.7458 41.6979 41.6779 41.7943 41.608 41.8937C41.1372 42.5613 40.6578 43.2212 40.1672 43.8744C39.9782 44.1095 39.9782 44.1095 40.0012 44.3749C41.6099 44.3749 43.2187 44.3749 44.8762 44.3749C44.5643 43.5952 44.1341 42.9281 43.6887 42.2186C43.6025 42.0794 43.5163 41.9402 43.4274 41.7968C43.3448 41.6646 43.2621 41.5325 43.177 41.3964C43.1013 41.2753 43.0256 41.1543 42.9477 41.0295C42.7753 40.7372 42.7753 40.7372 42.5012 40.6249ZM8.25117 46.3749C8.66553 49.4825 9.53591 52.2556 11.5012 54.7499C11.5562 54.8202 11.6113 54.8905 11.668 54.9629C14.3581 58.3594 18.1773 60.4684 22.4669 61.0646C23.3112 61.1562 24.1579 61.1444 25.0062 61.145C25.1947 61.1456 25.3831 61.1462 25.5715 61.1469C26.0809 61.1485 26.5903 61.1493 27.0996 61.1499C27.4191 61.1503 27.7385 61.1508 28.058 61.1513C29.0609 61.153 30.0638 61.1543 31.0668 61.1547C32.218 61.1553 33.3691 61.1575 34.5203 61.1611C35.4143 61.1638 36.3083 61.1651 37.2023 61.1652C37.7343 61.1654 38.2662 61.1661 38.7981 61.1683C44.382 61.1907 48.8887 60.1732 53.0012 56.1796C53.8896 55.2918 54.5965 54.3188 55.2512 53.2499C55.2979 53.1744 55.3445 53.0989 55.3927 53.0211C55.9573 52.0901 56.3716 51.1217 56.7277 50.0936C56.7625 49.9956 56.7973 49.8976 56.8331 49.7967C57.2049 48.6592 57.3084 47.5961 57.5012 46.3749C41.2487 46.3749 24.9962 46.3749 8.25117 46.3749Z" fill="black"/>
<path d="M26.7898 20.3281C27.5181 20.5997 27.8984 21.1544 28.3757 21.75C28.4597 21.8531 28.5436 21.9562 28.6301 22.0625C28.7951 22.2672 28.959 22.4728 29.1218 22.6792C29.3903 23.0184 29.6636 23.3532 29.9382 23.6875C30.4645 24.3291 30.9839 24.9758 31.5007 25.625C32.2079 25.3804 32.8193 24.9647 33.449 24.5681C34.0068 24.2289 34.4554 24.0139 35.1257 24C35.5669 24.1606 35.7393 24.3675 35.9753 24.7666C36.0358 24.8673 36.0962 24.968 36.1584 25.0718C36.2198 25.177 36.2812 25.2822 36.3445 25.3906C36.4078 25.4968 36.4711 25.603 36.5364 25.7124C36.6923 25.9743 36.847 26.2368 37.0007 26.5C38.0917 25.9805 38.8635 24.8509 39.635 23.9458C39.7222 23.8451 39.8093 23.7444 39.8992 23.6406C39.9783 23.5481 40.0574 23.4556 40.1389 23.3604C40.389 23.1118 40.5389 22.9791 40.8757 22.875C41.5816 22.9292 42.1227 23.1338 42.7512 23.4331C42.8923 23.4986 42.8923 23.4986 43.0363 23.5655C43.2367 23.6586 43.4368 23.7523 43.6367 23.8465C43.9481 23.9931 44.26 24.1382 44.5723 24.2829C45.333 24.6358 46.0929 24.9907 46.8508 25.3498C47.1176 25.4762 47.3847 25.6021 47.6521 25.7273C47.878 25.8331 48.1032 25.9404 48.3277 26.0493C48.867 26.3013 48.867 26.3013 49.449 26.3828C49.9079 26.1808 50.2981 25.9016 50.7038 25.6094C50.8823 25.4846 51.0609 25.3599 51.2395 25.2354C51.5461 25.0198 51.8516 24.8029 52.1565 24.585C52.6538 24.2442 52.9991 24.0166 53.6023 23.9375C54.6191 24.416 55.1556 25.9537 55.6726 26.8984C56.3039 28.0588 56.3039 28.0588 56.97 29.1992C57.041 29.3169 57.041 29.3169 57.1136 29.4369C57.2317 29.63 57.3522 29.8217 57.4729 30.0132C57.6812 30.5063 57.6713 30.8414 57.6257 31.375C57.3079 31.7489 57.106 31.8553 56.6257 31.9453C56.1346 31.8532 55.9219 31.6324 55.6257 31.25C55.3411 30.782 55.0892 30.2984 54.8367 29.8125C54.2602 28.7243 53.6694 27.6593 53.0007 26.625C51.9882 27.3187 50.9776 28.0151 49.9709 28.7173C49.6061 28.9716 49.2407 29.2251 48.8752 29.4785C48.367 29.8312 47.8613 30.1871 47.3567 30.5449C47.1105 30.7175 46.8642 30.89 46.6179 31.0625C46.5042 31.1442 46.3905 31.2258 46.2734 31.3099C45.4854 31.8578 45.4854 31.8578 44.9455 31.9424C44.4698 31.8421 44.286 31.6359 44.0007 31.25C43.9304 30.875 43.9304 30.875 44.0007 30.5C44.329 30.0294 44.6761 29.7214 45.1511 29.4038C45.3348 29.2799 45.3348 29.2799 45.5222 29.1536C45.6492 29.0694 45.7762 28.9852 45.907 28.8984C46.0359 28.8118 46.1648 28.7252 46.2976 28.636C46.6147 28.4231 46.9324 28.2111 47.2507 28C46.7871 27.6081 46.2643 27.3814 45.7165 27.1323C45.5663 27.0633 45.5663 27.0633 45.413 26.9928C45.2015 26.8958 44.9899 26.799 44.7782 26.7025C44.4555 26.5555 44.1334 26.4073 43.8113 26.259C43.6052 26.1647 43.3992 26.0703 43.1931 25.9761C43.0974 25.9321 43.0017 25.888 42.903 25.8427C42.401 25.6146 41.9037 25.4131 41.3757 25.25C40.8049 25.8075 40.2556 26.3747 39.7351 26.9795C39.2899 27.4933 38.8316 27.9956 38.3757 28.5C38.4284 28.5891 38.4811 28.6782 38.5354 28.77C39.2903 30.0898 39.2903 30.0898 39.2507 30.75C38.9373 31.2103 38.7405 31.35 38.196 31.4688C37.4846 31.319 37.1924 30.7868 36.8003 30.2002C36.5922 29.8701 36.3893 29.5375 36.1882 29.2031C36.0517 28.9781 35.915 28.7531 35.7781 28.5283C35.712 28.4196 35.6459 28.3109 35.5779 28.1989C35.3177 27.782 35.0418 27.3771 34.7612 26.9738C34.6257 26.75 34.6257 26.75 34.6257 26.5C33.7077 26.934 32.842 27.4338 31.978 27.9663C31.5974 28.2008 31.2158 28.4336 30.8342 28.6665C30.7559 28.7144 30.6776 28.7622 30.5968 28.8115C29.7306 29.34 28.8584 29.8582 27.9851 30.375C27.9115 30.4186 27.838 30.4622 27.7622 30.5071C26.1802 31.4443 26.1802 31.4443 25.3757 31.375C25.071 31.1797 25.071 31.1797 24.8757 30.875C24.8054 30.4453 24.8054 30.4453 24.8757 30C25.3263 29.4695 25.837 29.1435 26.4324 28.8032C26.52 28.752 26.6076 28.7007 26.6978 28.648C26.9754 28.4857 27.2536 28.3248 27.532 28.1641C27.8121 28.0019 28.092 27.8394 28.3715 27.6762C28.5448 27.5749 28.7186 27.4743 28.8927 27.3744C29.3332 27.1376 29.3332 27.1376 29.6257 26.75C28.919 25.8567 28.1969 24.9768 27.4694 24.1004C27.3963 24.012 27.3231 23.9236 27.2478 23.8325C27.1821 23.7534 27.1165 23.6743 27.0489 23.5928C26.8978 23.4028 26.7604 23.202 26.6257 23C26.1636 23.1652 25.8134 23.3666 25.427 23.668C25.2656 23.7927 25.2656 23.7927 25.1009 23.9199C24.9879 24.0082 24.8749 24.0965 24.7585 24.1875C23.7299 24.9822 22.6909 25.7553 21.6257 26.5C22.1402 27.2289 22.7099 27.8773 23.3253 28.5208C24.4578 29.7183 24.4578 29.7183 24.571 30.4609C24.5007 30.875 24.5007 30.875 24.3054 31.1797C23.8701 31.4588 23.6351 31.4613 23.1257 31.375C22.4163 30.9703 21.9318 30.2508 21.4324 29.624C21.1139 29.2355 20.7807 28.8671 20.4382 28.5C19.9061 27.9283 19.4089 27.3368 18.9192 26.728C18.3875 26.0884 17.8182 25.4828 17.2507 24.875C16.7264 25.0671 16.4638 25.451 16.1413 25.8828C16.0195 26.042 15.8974 26.201 15.7751 26.3599C15.7106 26.4438 15.646 26.5278 15.5795 26.6143C15.2289 27.0628 14.8645 27.4997 14.5007 27.9375C13.8888 28.6752 13.288 29.4197 12.7056 30.1809C11.8078 31.3425 11.8078 31.3425 11.1882 31.4531C10.7507 31.375 10.7507 31.375 10.3757 31.1172C10.1257 30.75 10.1257 30.75 10.136 30.3394C10.2666 29.8106 10.4917 29.4837 10.8367 29.0781C10.8969 29.0044 10.9571 28.9308 11.0192 28.8549C11.2198 28.6102 11.4228 28.3677 11.6257 28.125C11.7743 27.9445 11.9228 27.7638 12.071 27.583C12.3714 27.217 12.6725 26.8516 12.9744 26.4868C13.3575 26.0231 13.7343 25.5545 14.1091 25.084C14.4753 24.6252 14.843 24.1677 15.2117 23.7109C15.3143 23.5829 15.3143 23.5829 15.419 23.4524C16.4289 22.2037 16.4289 22.2037 16.9382 22C17.4224 22 17.7215 22.2285 18.0683 22.5579C18.2791 22.7773 18.4844 23.0007 18.6882 23.2266C18.7577 23.3021 18.8271 23.3775 18.8987 23.4553C19.3217 23.9176 19.7282 24.3907 20.1257 24.875C20.9556 24.3391 21.7428 23.7603 22.5242 23.1562C23.5433 22.374 24.5694 21.6066 25.6257 20.875C25.7566 20.7825 25.8874 20.69 26.0222 20.5947C26.3757 20.375 26.3757 20.375 26.7898 20.3281Z" fill="black"/>
<path d="M35.8116 1.06084C36.5398 1.20858 37.1792 1.65268 37.8152 2.02342C37.9764 2.11523 38.1376 2.2068 38.299 2.29814C38.6267 2.48374 38.9539 2.6702 39.2809 2.85722C39.9605 3.24457 40.6495 3.61441 41.3387 3.98436C42.2636 4.4836 43.1857 4.98742 44.1037 5.49937C44.9004 5.94361 45.6987 6.38478 46.4974 6.82524C46.729 6.95295 46.9605 7.08072 47.1921 7.20851C47.9234 7.61207 48.655 8.01516 49.3873 8.41682C49.7186 8.59855 50.0498 8.78053 50.3809 8.96253C50.5386 9.04909 50.6963 9.13552 50.8541 9.22182C51.0742 9.34223 51.2941 9.46309 51.514 9.58397C51.6388 9.65241 51.7637 9.72085 51.8923 9.79137C52.9312 10.3928 52.9312 10.3928 53.2527 10.875C53.3074 11.2344 53.3074 11.2344 53.2527 11.625C52.706 12.314 51.9312 12.6785 51.1746 13.1015C50.8799 13.2688 50.5853 13.4363 50.2908 13.604C50.2153 13.6469 50.1397 13.6898 50.0618 13.734C49.265 14.187 48.4775 14.6555 47.6902 15.125C46.4492 15.8633 45.2023 16.5906 43.9503 17.3103C43.1517 17.7695 42.3547 18.2314 41.5596 18.6966C41.069 18.9836 40.5776 19.2694 40.0862 19.5552C39.7724 19.7385 39.4597 19.9237 39.1473 20.1094C38.9689 20.2136 38.7905 20.3178 38.6121 20.4219C38.5345 20.4688 38.4569 20.5158 38.3769 20.5641C37.9002 20.8391 37.5515 20.9556 37.0027 20.875C36.6599 20.681 36.5259 20.573 36.4055 20.1931C36.3897 20.0731 36.3739 19.9531 36.3576 19.8294C36.3392 19.695 36.3208 19.5607 36.3018 19.4222C36.2856 19.2829 36.2694 19.1435 36.2527 19C36.2372 18.8701 36.2217 18.7402 36.2057 18.6063C36.1587 18.1891 36.1164 17.7717 36.0752 17.3539C36.0513 17.1182 36.0513 17.1182 36.027 16.8778C35.984 16.4517 35.9415 16.0256 35.8992 15.5995C35.8547 15.1512 35.8096 14.7029 35.7646 14.2546C35.6893 13.5028 35.6143 12.7509 35.5396 11.999C35.4534 11.1318 35.3665 10.2647 35.2793 9.39765C35.2041 8.65009 35.1292 7.90249 35.0547 7.15485C35.0104 6.70965 34.9659 6.26446 34.921 5.8193C34.8711 5.32339 34.822 4.8274 34.7729 4.3314C34.7581 4.18541 34.7433 4.03941 34.7281 3.88899C34.5365 1.93247 34.5365 1.93247 34.8152 1.37498C35.1625 1.09717 35.3709 1.04837 35.8116 1.06084ZM36.8777 3.99998C36.9543 5.65266 37.0918 7.29439 37.2566 8.94041C37.2814 9.19103 37.3062 9.44164 37.3309 9.69226C37.3823 10.2123 37.434 10.7322 37.4859 11.2522C37.5525 11.9184 37.6183 12.5848 37.6839 13.2511C37.7347 13.7663 37.7858 14.2815 37.837 14.7966C37.8615 15.0425 37.8858 15.2884 37.91 15.5343C37.9437 15.8761 37.9779 16.2179 38.0122 16.5597C38.0221 16.6608 38.032 16.7618 38.0422 16.8659C38.0859 17.2962 38.1409 17.7074 38.2527 18.125C38.6711 17.9653 39.0592 17.7855 39.449 17.5654C39.5593 17.5032 39.6695 17.4411 39.7831 17.377C39.902 17.3093 40.0209 17.2416 40.1434 17.1719C40.2694 17.1004 40.3955 17.0289 40.5253 16.9552C41.6327 16.3243 42.7284 15.6744 43.8231 15.0219C45.1508 14.2322 46.4912 13.4659 47.8343 12.7026C48.6022 12.2659 49.3656 11.8218 50.1277 11.375C49.767 10.9824 49.4179 10.7351 48.9471 10.4873C48.8137 10.4164 48.6803 10.3455 48.5429 10.2725C48.4007 10.198 48.2586 10.1236 48.1121 10.0469C47.8886 9.92843 47.6654 9.80966 47.4421 9.69088C47.2213 9.57343 47.0003 9.45626 46.7793 9.3391C46.275 9.07022 45.7748 8.79474 45.2762 8.51561C45.0986 8.41647 44.921 8.31735 44.7434 8.21825C44.6482 8.16505 44.5529 8.11186 44.4547 8.05705C42.58 7.01316 40.6999 5.97874 38.8152 4.95311C38.6296 4.85164 38.6296 4.85164 38.4402 4.74812C38.3255 4.68589 38.2108 4.62367 38.0926 4.55955C37.9932 4.50551 37.8939 4.45147 37.7915 4.3958C37.4927 4.24491 37.1891 4.12253 36.8777 3.99998Z" fill="black"/>
<path d="M44.875 9.75006C45.125 10.1251 45.125 10.1251 45.0781 10.461C45.0523 10.5564 45.0266 10.6518 45 10.7501C44.5781 10.8282 44.5781 10.8282 44.125 10.8751C44.0425 10.7926 43.96 10.7101 43.875 10.6251C43.9062 10.1797 43.9062 10.1797 44 9.75006C44.3405 9.5798 44.516 9.64235 44.875 9.75006Z" fill="#191919"/>
<path d="M41.1272 13.125C41.5022 13.0859 41.5022 13.0859 41.8772 13.125C42.1272 13.375 42.1272 13.375 42.174 13.6797C42.1272 14 42.1272 14 41.9162 14.2422C41.6272 14.375 41.6272 14.375 41.2912 14.3125C41.0022 14.125 41.0022 14.125 40.885 13.8203C40.8772 13.5 40.8772 13.5 41.1272 13.125Z" fill="#191919"/>
<path d="M46.3125 10.7188C46.625 10.75 46.625 10.75 46.875 11C46.9062 11.375 46.9062 11.375 46.875 11.75C46.625 12 46.625 12 46.3125 12.0312C46 12 46 12 45.75 11.75C45.7188 11.375 45.7188 11.375 45.75 11C46 10.75 46 10.75 46.3125 10.7188Z" fill="#191919" fill-opacity="0.6"/>
<path d="M43.9395 11.9688C44.252 12 44.252 12 44.502 12.25C44.541 12.625 44.541 12.625 44.502 13C44.127 13.25 44.127 13.25 43.7988 13.2109C43.502 13.125 43.502 13.125 43.377 13C43.3535 12.6328 43.3535 12.6328 43.377 12.25C43.627 12 43.627 12 43.9395 11.9688Z" fill="#191919"/>
<path d="M42.0645 10.2188C42.377 10.25 42.377 10.25 42.627 10.5C42.6504 10.8828 42.6504 10.8828 42.627 11.25C42.502 11.375 42.502 11.375 42.0645 11.3906C41.627 11.375 41.627 11.375 41.502 11.25C41.4785 10.8828 41.4785 10.8828 41.502 10.5C41.752 10.25 41.752 10.25 42.0645 10.2188Z" fill="#191919"/>
</svg>
