<svg width="64" height="64" viewBox="0 0 64 64" fill="none" xmlns="http://www.w3.org/2000/svg">
<g clip-path="url(#clip0_2395_12214)">
<path d="M37.6241 0.374964C37.7782 0.404104 37.7782 0.404104 37.9354 0.433833C38.6353 0.576681 39.0015 0.716883 39.4991 1.24996C39.8321 1.84946 39.9665 2.31833 39.8741 2.99996C39.6417 3.58838 39.3161 4.13061 39.0069 4.68112C37.0656 8.1777 36.6301 12.1404 37.6241 16C38.2345 18.1176 39.2463 19.9059 40.6241 21.625C40.6958 21.716 40.7675 21.807 40.8414 21.9008C41.4346 22.6187 42.14 23.1817 42.8741 23.75C42.9809 23.8352 43.0877 23.9204 43.1978 24.0083C44.8234 25.2574 46.7521 26.0786 48.7379 26.5573C49.8089 26.8182 50.5693 27.1368 51.2022 28.0625C51.4645 28.5188 51.6581 28.9982 51.8584 29.4843C52.1916 30.2831 52.591 30.946 53.1241 31.625C53.18 31.7013 53.2359 31.7777 53.2935 31.8564C54.5627 33.4867 56.6757 34.5258 58.6905 34.8237C59.4717 34.9124 60.2615 34.8918 61.046 34.8613C61.8449 34.8381 62.4657 34.8902 63.0918 35.4419C63.7102 36.2756 63.7236 36.9386 63.5751 37.963C63.5078 38.2979 63.4319 38.6291 63.3506 38.9609C63.3223 39.0802 63.2941 39.1994 63.2649 39.3223C62.8456 41.0531 62.2767 42.7194 61.6241 44.375C61.5693 44.5158 61.5145 44.6566 61.4581 44.8017C60.4021 47.393 58.8586 49.6866 57.1694 51.9007C57.0202 52.0972 56.873 52.2953 56.7261 52.4936C56.6512 52.5937 56.5763 52.6938 56.4991 52.7968C56.4372 52.8803 56.3753 52.9638 56.3116 53.0498C56.0959 53.28 55.919 53.3896 55.6241 53.5C55.2051 53.4779 54.8773 53.4453 54.5069 53.2422C54.2716 52.8131 54.2454 52.4607 54.3741 52C54.606 51.6523 54.8704 51.3503 55.146 51.0361C58.4497 47.2615 60.3586 42.5115 61.4319 37.673C61.4921 37.4059 61.5564 37.1403 61.6241 36.875C61.4996 36.9049 61.4996 36.9049 61.3726 36.9355C58.6801 37.4001 55.8813 36.5905 53.6675 35.0586C51.7275 33.6558 50.5722 31.9228 49.6241 29.75C49.3627 29.1566 49.3627 29.1566 48.8741 28.75C48.5153 28.6528 48.1573 28.5629 47.7959 28.4765C44.0844 27.5386 40.8208 25.4367 38.4991 22.375C38.425 22.2778 38.3508 22.1806 38.2745 22.0805C35.592 18.4075 34.4861 13.8444 35.1475 9.34372C35.5353 6.96263 36.3439 4.60775 37.7491 2.62496C37.4419 2.56437 37.1346 2.50461 36.8272 2.44528C36.7423 2.42844 36.6574 2.4116 36.5699 2.39425C29.5796 1.055 21.718 2.87375 15.8116 6.76559C15.5813 6.92541 15.352 7.08681 15.1241 7.24997C15.0135 7.32779 14.903 7.40562 14.7891 7.4858C14.2819 7.84823 13.7854 8.21625 13.3091 8.61862C13.2331 8.68173 13.157 8.74485 13.0786 8.80987C12.9304 8.93346 12.7838 9.05905 12.6393 9.18689C12.2509 9.50876 11.9779 9.66578 11.4659 9.68014C10.9991 9.62497 10.9991 9.62497 10.6788 9.36715C10.4426 8.88454 10.4981 8.64271 10.6241 8.12497C11.7691 6.68576 13.6973 5.57314 15.2491 4.62496C15.3827 4.5394 15.5162 4.45384 15.6539 4.36569C18.8833 2.32491 22.6264 1.04419 26.3741 0.374964C26.4774 0.35591 26.5806 0.336857 26.6871 0.317225C30.1901 -0.301822 34.1264 -0.289943 37.6241 0.374964Z" fill="black"/>
<path d="M8.81276 10.5236C9.25026 10.6252 9.25026 10.6252 9.49245 10.758C9.71021 11.1551 9.6945 11.5639 9.62526 12.0002C9.4308 12.3174 9.25851 12.5553 9.01588 12.8283C8.88861 12.9809 8.76167 13.1337 8.63502 13.2868C8.57049 13.3637 8.50596 13.4406 8.43947 13.5199C7.45706 14.7156 6.63873 16.0325 5.87526 17.3752C5.81 17.4895 5.81 17.4895 5.74342 17.6061C3.89654 20.8702 2.75797 24.5423 2.25026 28.2502C2.2382 28.3352 2.22615 28.4203 2.21373 28.5079C1.31821 35.901 3.30094 43.9305 7.87526 49.8596C8.08154 50.1164 8.2899 50.3716 8.50026 50.6252C8.55424 50.6917 8.60822 50.7582 8.66383 50.8267C10.1724 52.6823 11.8561 54.4361 13.7918 55.8478C14.0025 56.0018 14.2104 56.1592 14.4182 56.3171C15.5484 57.1632 16.7539 57.8412 18.0003 58.5002C18.1224 58.5664 18.1224 58.5664 18.2471 58.6339C21.3438 60.3098 24.7664 61.3072 28.2503 61.7502C28.3772 61.7665 28.3772 61.7665 28.5068 61.7831C29.1882 61.865 29.8606 61.8986 30.5466 61.905C30.6556 61.9062 30.7646 61.9074 30.8768 61.9087C33.2975 61.9302 35.6254 61.8982 38.0003 61.3752C38.1109 61.3518 38.2216 61.3284 38.3357 61.3043C42.753 60.3529 47.1732 58.37 50.6389 55.447C50.7221 55.3774 50.8053 55.3079 50.891 55.2362C51.0473 55.104 51.2018 54.9694 51.3539 54.8322C51.744 54.4999 52.0134 54.3331 52.5344 54.318C53.0003 54.3752 53.0003 54.3752 53.3206 54.633C53.5593 55.1208 53.5322 55.3581 53.3753 55.8752C48.9074 60.8168 41.2266 63.4802 34.7503 64.0002C34.3422 64.0183 33.9346 64.0234 33.5261 64.0256C33.4136 64.0264 33.301 64.0273 33.185 64.0282C32.824 64.0304 32.4629 64.0312 32.1018 64.0314C31.9784 64.0315 31.855 64.0316 31.7278 64.0317C29.9164 64.0297 28.1577 63.9731 26.3753 63.6252C26.2631 63.6051 26.151 63.5849 26.0355 63.5642C20.5849 62.5779 15.4428 60.1167 11.2503 56.5002C11.1571 56.4209 11.064 56.3416 10.968 56.2599C9.27991 54.7835 7.69598 53.1897 6.37526 51.3752C6.2682 51.2314 6.1611 51.0877 6.05397 50.944C5.29889 49.9201 4.629 48.8556 4.00026 47.7502C3.9547 47.6712 3.90914 47.5922 3.8622 47.5109C1.18949 42.8413 -0.0596967 37.521 -0.0388048 32.1721C-0.038577 32.0508 -0.0383491 31.9296 -0.0381144 31.8047C-0.0324393 30.0104 0.0319289 28.2657 0.375258 26.5002C0.394715 26.39 0.414171 26.2799 0.434218 26.1664C1.4394 20.5125 4.05655 14.9531 8.00026 10.7502C8.37526 10.5002 8.37526 10.5002 8.81276 10.5236Z" fill="black"/>
<path d="M53.128 5.12503C54.0458 5.77784 54.6884 6.53957 55.003 7.62503C55.1305 8.90675 54.9313 10.0655 54.6032 11.2955C54.5336 11.557 54.4678 11.8193 54.4024 12.0818C54.057 13.4393 53.6582 14.8297 52.3931 15.5918C51.0609 16.2784 49.9917 16.4367 48.5499 15.9844C48.1993 15.869 47.8511 15.7474 47.503 15.625C47.4193 15.597 47.3356 15.5689 47.2493 15.5399C45.8363 15.0627 44.6012 14.3561 43.878 13C43.2826 11.4954 43.5655 9.40495 44.1319 7.9097C44.7973 6.59911 45.7929 5.95069 47.1457 5.49182C47.586 5.35281 48.0282 5.22227 48.4717 5.09378C48.62 5.04834 48.7682 5.0029 48.9209 4.95609C50.3553 4.53957 51.787 4.34434 53.128 5.12503ZM48.8545 7.09378C48.6391 7.15904 48.6391 7.15904 48.4192 7.22562C47.4055 7.5426 46.6055 7.82458 46.003 8.75003C45.6437 9.83605 45.3151 11.2376 45.8389 12.3047C46.5261 13.0662 47.2772 13.3707 48.2217 13.7266C48.3526 13.779 48.4834 13.8315 48.6182 13.8855C49.4065 14.1846 50.0502 14.3583 50.878 14.125C51.5257 13.8073 51.8422 13.3969 52.128 12.75C52.3112 12.1808 52.4551 11.6042 52.5967 11.0235C52.6362 10.871 52.6757 10.7184 52.7164 10.5613C53.115 9.05078 53.115 9.05078 52.792 7.57816C52.3005 7.02022 51.9042 6.64661 51.1529 6.58792C50.3477 6.59759 49.6155 6.85063 48.8545 7.09378Z" fill="black"/>
<path d="M41.9616 40.9006C42.7732 41.529 43.3743 42.2968 43.7517 43.2502C43.8032 43.3791 43.8548 43.508 43.9079 43.6408C44.2031 45.1659 44.0386 46.6106 43.1662 47.9074C42.9286 48.2218 42.669 48.4863 42.3766 48.7502C42.2065 48.9087 42.2065 48.9087 42.0329 49.0705C40.8743 50.022 39.4384 50.1294 38.0016 50.0002C36.6168 49.7057 35.5833 48.8696 34.7516 47.7502C33.9714 46.5227 33.8396 45.1585 34.1423 43.758C34.4908 42.4882 35.1599 41.498 36.2516 40.7502C38.1446 39.7708 40.1376 39.7158 41.9616 40.9006ZM36.6266 43.1252C36.1596 43.8747 35.899 44.6079 36.0016 45.5002C36.2424 46.5268 36.7737 47.1495 37.6266 47.7502C38.3341 48.1193 39.2798 48.1476 40.0407 47.9098C40.8735 47.5203 41.4093 46.9096 41.8767 46.1252C42.1313 45.3016 42.1049 44.5027 41.7438 43.7189C41.2437 42.8266 40.6253 42.3374 39.6418 42.0588C38.4993 41.8063 37.3809 42.2475 36.6266 43.1252Z" fill="black"/>
<path d="M20.6928 17.6971C20.9791 17.9094 21.2408 18.1314 21.5009 18.3749C21.5715 18.4403 21.6421 18.5057 21.7148 18.5731C22.6067 19.5013 22.9596 20.7268 23.0092 21.9877C22.9805 23.3286 22.5056 24.5571 21.5917 25.5507C20.5322 26.5287 19.2411 27.0539 17.7919 27.0262C16.3337 26.8941 15.07 26.3109 14.0673 25.2396C13.0698 23.9902 12.8374 22.5635 13.0009 20.9999C13.1852 20.204 13.5049 19.5259 14.0009 18.8749C14.0705 18.7718 14.1401 18.6686 14.2118 18.5624C15.8419 16.8001 18.6591 16.4312 20.6928 17.6971ZM15.6259 20.1249C15.0161 20.9718 14.9245 21.6002 15.0009 22.6249C15.2465 23.4771 15.7773 24.2245 16.5507 24.6742C17.3075 25.0037 17.9787 25.1668 18.7865 24.9086C19.689 24.5395 20.3754 24.0664 20.7807 23.1532C21.0947 22.2355 21.0473 21.4652 20.6796 20.5687C20.2358 19.777 19.4909 19.2491 18.6259 18.9999C17.3579 18.8476 16.4639 19.1472 15.6259 20.1249Z" fill="black"/>
<path d="M57.1852 18.9685C57.8509 19.3013 58.4205 19.7846 58.9977 20.2497C59.1659 20.3776 59.1659 20.3776 59.3375 20.508C59.9286 21.009 60.1968 21.6696 60.2818 22.4304C60.3436 24.0598 59.4463 25.0277 58.4166 26.1853C57.7598 26.8928 57.1448 27.5378 56.1524 27.6711C55.0247 27.6967 54.2199 27.451 53.3961 26.6638C53.0421 26.1277 52.7614 25.585 52.4977 24.9997C52.4297 24.8529 52.3617 24.7061 52.2916 24.5549C51.8063 23.4651 51.4874 22.4626 51.8546 21.2805C52.4555 19.9043 53.6776 19.4291 54.9977 18.8747C55.7401 18.6272 56.4596 18.7065 57.1852 18.9685ZM54.857 21.1638C54.7779 21.2024 54.6988 21.2409 54.6173 21.2807C54.2092 21.4865 54.0061 21.612 53.7477 21.9997C53.6325 22.7517 53.9714 23.3576 54.2789 24.0231C54.3284 24.1359 54.3778 24.2486 54.4288 24.3647C54.7619 25.1062 54.7619 25.1062 55.3727 25.6247C55.7314 25.7291 55.7314 25.7291 56.1227 25.6247C56.47 25.3815 56.7262 25.0733 56.9977 24.7497C57.0507 24.6874 57.1038 24.6251 57.1585 24.5609C57.3342 24.3525 57.5062 24.1416 57.6773 23.9294C57.7335 23.8617 57.7897 23.794 57.8476 23.7242C58.1148 23.382 58.2443 23.1522 58.2975 22.718C58.2269 22.2316 57.9921 22.0394 57.6227 21.7497C57.5137 21.6635 57.4048 21.5773 57.2926 21.4885C56.3479 20.7699 55.9419 20.6079 54.857 21.1638Z" fill="black"/>
<path d="M22.1611 38.6097C23.1272 39.3736 23.8221 40.2609 23.9971 41.5003C24.0998 42.7748 23.6994 43.9005 22.8721 44.8753C21.8901 45.8065 20.9134 46.0856 19.5723 46.0511C18.4889 45.9289 17.5632 45.4837 16.8335 44.6688C16.0478 43.5782 15.8323 42.4496 15.9971 41.1253C16.2587 40.0112 16.9177 39.1574 17.8564 38.5159C19.2242 37.7317 20.8157 37.8481 22.1611 38.6097ZM18.3174 40.8206C17.9714 41.3604 17.9328 41.8739 17.9971 42.5003C18.2294 43.1586 18.5725 43.4746 19.1221 43.8753C19.6661 44.0567 20.1947 44.107 20.7393 43.9149C21.2813 43.6333 21.5991 43.3067 21.8721 42.7503C22.0435 42.1504 22.0577 41.6614 21.8018 41.0862C21.4798 40.5365 21.1067 40.2274 20.4839 40.0506C19.5806 39.8905 18.9418 40.1642 18.3174 40.8206Z" fill="black"/>
<path d="M32.9708 24.6016C33.6688 25.2803 34.0041 26.0109 34.0489 26.9766C34.0299 27.818 33.7433 28.4566 33.213 29.1016C32.4373 29.7329 31.7182 30.0469 30.7144 30.0352C29.8454 29.9446 29.188 29.535 28.627 28.875C28.5226 28.7551 28.5226 28.7551 28.4161 28.6328C27.9656 27.9249 27.92 27.1915 28.002 26.375C28.241 25.3722 28.7619 24.7859 29.627 24.252C30.7203 23.6968 31.9877 23.9537 32.9708 24.6016ZM30.338 26.2032C30.0806 26.5653 30.0205 26.8075 30.002 27.25C30.1027 27.5795 30.1962 27.7082 30.4708 27.9141C30.8579 28.0324 31.1146 27.9822 31.502 27.875C31.831 27.6595 31.8726 27.5162 31.9786 27.1328C32.0032 26.7304 31.9832 26.5737 31.752 26.25C31.2442 25.9115 30.8542 25.8404 30.338 26.2032Z" fill="black"/>
<path d="M62.4219 11.1874C63.1563 11.6247 63.7453 12.3078 64 13.1249C64.1085 14.2381 64.0242 15.0329 63.3984 15.9608C62.8278 16.5641 62.2029 16.9045 61.375 16.9999C60.4648 17.013 59.621 16.8335 58.9375 16.2016C58.3373 15.521 58 14.787 58 13.8749C58.1174 12.7948 58.5777 12.1132 59.3901 11.412C60.2376 10.8271 61.484 10.7726 62.4219 11.1874ZM60.3203 13.1952C60.0495 13.6177 60.0546 13.8824 60.125 14.3749C60.3471 14.6763 60.527 14.8259 60.8594 14.9921C61.2675 15.0041 61.5311 14.8312 61.875 14.6249C62.0682 14.2384 62.0367 13.9256 62 13.4999C61.8229 13.177 61.8229 13.177 61.5 12.9999C61.0075 12.9296 60.7428 12.9244 60.3203 13.1952Z" fill="black"/>
<path d="M27.5 49.125C27.8542 49.3449 27.8786 49.513 27.9922 49.9219C28 50.375 28 50.375 27.811 50.6822C27.4227 51.079 27.026 51.2968 26.5312 51.5391C26.4465 51.584 26.3617 51.6288 26.2744 51.6751C25.6544 51.9845 25.1924 52.0691 24.5 52C24.1261 51.6822 24.0197 51.4803 23.9297 51C24.026 50.4861 24.2304 50.3411 24.625 50C24.9654 49.7918 25.3179 49.621 25.6797 49.4532C25.7719 49.4072 25.8642 49.3613 25.9592 49.314C26.5204 49.0496 26.8816 48.9339 27.5 49.125Z" fill="black"/>
<path d="M49.6276 38.1254C50.3085 38.853 51.0347 40.056 51.0964 41.0785C51.0026 41.5004 51.0026 41.5004 50.737 41.8129C50.311 42.0351 50.1007 42.0891 49.6276 42.0004C49.0522 41.5217 48.7642 40.9855 48.4557 40.3207C48.4098 40.2284 48.3639 40.1362 48.3166 40.0411C48.0529 39.4815 47.9325 39.1166 48.1276 38.5004C48.5708 37.9416 48.9516 37.9622 49.6276 38.1254Z" fill="black"/>
<path d="M41.6283 33.1251C41.9472 33.4028 41.995 33.5762 42.0658 33.9923C41.9805 34.5148 41.776 34.6544 41.3783 35.0001C41.0582 35.2032 40.7264 35.3727 40.3861 35.5392C40.2998 35.5841 40.2136 35.6289 40.1247 35.6752C39.6069 35.9328 39.2196 36.0657 38.6283 36.0001C38.3393 35.8751 38.3393 35.8751 38.1283 35.6251C38.0068 35.2828 37.9344 34.9838 38.0033 34.6251C38.4652 34.0457 39.0186 33.7598 39.6752 33.4533C39.7664 33.4073 39.8576 33.3614 39.9516 33.3141C40.5573 33.0275 40.9576 32.9441 41.6283 33.1251Z" fill="black"/>
<path d="M11.375 29.9999C11.9306 30.4285 12.1872 31.0464 12.4844 31.664C12.5379 31.7677 12.5914 31.8714 12.6465 31.9782C13.0631 32.8406 13.0631 32.8406 12.9204 33.3764C12.75 33.7499 12.75 33.7499 12.5391 33.9374C12.1074 34.0308 11.801 33.989 11.375 33.8749C10.6951 33.1442 9.96799 31.9463 9.90625 30.9218C10 30.4999 10 30.4999 10.2656 30.1874C10.6863 29.968 10.9075 29.9204 11.375 29.9999Z" fill="black"/>
<path d="M24.375 32.9999C24.7085 33.224 24.7085 33.224 25.0234 33.5233C25.1283 33.6205 25.2332 33.7176 25.3413 33.8177C25.7659 34.2774 26.0032 34.5668 25.9922 35.203C25.875 35.6249 25.875 35.6249 25.6641 35.8671C25.2594 36.053 25.0686 36.0852 24.625 35.9999C24.2527 35.7453 23.9407 35.4457 23.625 35.1249C23.5581 35.0593 23.4913 34.9937 23.4224 34.9261C23.1392 34.6237 23.005 34.3994 22.9219 33.9921C23.0934 33.1858 23.5912 32.9015 24.375 32.9999Z" fill="black"/>
<path d="M30.9395 15.9219C31.4932 16.0208 31.676 16.1706 32.002 16.625C32.0668 17.0993 32.0474 17.3073 31.7778 17.7085C31.6791 17.8124 31.5803 17.9164 31.4785 18.0234C31.3814 18.1283 31.2842 18.2332 31.1841 18.3413C30.7625 18.7307 30.4552 19.0041 29.8691 18.9922C29.4406 18.8554 29.2606 18.743 29.002 18.375C28.916 18.0313 28.916 18.0313 29.002 17.625C29.2604 17.2576 29.5632 16.9453 29.877 16.625C29.9801 16.5013 30.0832 16.3775 30.1895 16.25C30.502 16 30.502 16 30.9395 15.9219Z" fill="black"/>
<path d="M26.2044 9.89485C26.6317 10.0472 26.9233 10.3219 27.2425 10.6331C27.303 10.6912 27.3636 10.7493 27.4261 10.8092C27.8603 11.2651 27.9713 11.6289 28.0003 12.2503C27.9378 12.5394 27.9378 12.5394 27.7503 12.7503C27.2726 12.9616 27.004 13.0405 26.5003 12.8831C25.8972 12.4685 25.4063 11.9844 25.0003 11.3753C24.9479 10.8957 24.932 10.6113 25.1878 10.1956C25.5275 9.98329 25.7991 9.8765 26.2044 9.89485Z" fill="black"/>
<path d="M36.7477 54.2498C37.0504 54.7038 37.0389 54.9437 37.0446 55.4841C37.0481 55.6359 37.0517 55.7877 37.0553 55.9441C36.9877 56.4495 36.8667 56.6527 36.4977 56.9998C36.2477 57.0828 36.2477 57.0828 35.9977 57.0779C35.9152 57.0795 35.8327 57.0811 35.7477 57.0828C35.3498 56.9507 35.2144 56.7257 34.9977 56.3748C34.9401 55.9758 34.9401 55.9758 34.9508 55.5544C34.9524 55.4151 34.954 55.2757 34.9557 55.1321C34.9958 54.7673 35.0471 54.5532 35.2477 54.2498C35.7908 53.9084 36.1704 54.021 36.7477 54.2498Z" fill="black"/>
</g>
<defs>
<clipPath id="clip0_2395_12214">
<rect width="64" height="64" fill="white"/>
</clipPath>
</defs>
</svg>
