<svg width="64" height="64" viewBox="0 0 64 64" fill="none" xmlns="http://www.w3.org/2000/svg">
<path d="M16.8048 13.0832C17.373 13.5989 17.8752 14.1699 18.3765 14.7502C18.4508 14.6853 18.5251 14.6203 18.6016 14.5534C20.3791 13.0579 22.0012 12.86 24.2515 13.0002C26.3291 13.249 28.1934 14.419 29.7515 15.7502C29.8358 15.8218 29.9201 15.8933 30.0069 15.967C31.6041 17.4436 32.6547 19.6261 33.0015 21.7502C33.0015 21.8327 33.0015 21.9152 33.0015 22.0002C33.1243 21.9937 33.1243 21.9937 33.2496 21.987C35.3647 21.9243 37.2241 22.7781 38.749 24.2134C39.4282 24.8911 40.0344 25.6791 40.2515 26.6252C40.5927 26.7061 40.9338 26.7868 41.275 26.8674C41.3711 26.8902 41.4672 26.913 41.5662 26.9365C42.5694 27.1823 42.5694 27.1823 43.5953 27.2658C43.6926 27.2662 43.7899 27.2665 43.8902 27.2668C44.128 27.2761 44.128 27.2761 44.2515 27.1252C44.3138 26.1711 44.1232 25.3423 43.8844 24.4221C43.3658 22.3816 43.0063 20.3803 44.025 18.4221C45.1979 16.4997 46.9337 15.1396 49.1109 14.5158C50.762 14.1563 52.3969 14.316 53.8531 15.2112C55.4023 16.351 56.024 17.865 56.314 19.7234C56.6405 22.1881 56.2946 24.6728 54.8765 26.7502C54.7119 26.9601 54.5457 27.1689 54.3765 27.3752C54.5335 27.3965 54.6904 27.4178 54.8521 27.4397C57.053 27.7521 57.053 27.7521 58.0015 28.2502C58.1018 28.3013 58.202 28.3524 58.3053 28.405C59.6347 29.1401 60.7329 30.1898 61.5015 31.5002C61.5453 31.5698 61.5891 31.6394 61.6342 31.7111C62.0524 32.4381 62.079 33.0877 62.064 33.9143C62.0625 34.0499 62.061 34.1856 62.0595 34.3253C61.8938 41.3382 58.8285 48.162 53.9625 53.1584C53.763 53.3634 53.5658 53.5703 53.3687 53.7776C52.5425 54.6365 51.6566 55.3843 50.7033 56.0987C50.5251 56.2325 50.3489 56.3689 50.1729 56.5056C47.1545 58.7966 43.6072 60.3858 39.939 61.2893C39.7661 61.3325 39.7661 61.3325 39.5896 61.3765C37.2438 61.9221 34.9091 62.0643 32.5069 62.056C32.0432 62.0549 31.5797 62.0585 31.116 62.0625C23.456 62.085 16.2514 59.2108 10.7515 53.8752C10.6839 53.8108 10.6163 53.7464 10.5466 53.68C9.57237 52.7515 8.70625 51.7784 7.90108 50.6999C7.76823 50.5225 7.63264 50.3471 7.49666 50.1721C3.90907 45.4477 2.12549 39.6373 1.89998 33.758C1.89 33.5181 1.89 33.5181 1.87981 33.2733C1.83096 31.5683 1.90216 29.7371 3.00936 28.3518C4.08888 27.2177 5.59907 26.6332 7.00155 26.0002C6.96018 25.9369 6.91881 25.8736 6.87618 25.8084C6.37446 25.0402 5.87482 24.2707 5.37655 23.5002C5.30921 23.3962 5.24188 23.2922 5.17251 23.185C1.59128 17.6356 1.59128 17.6356 1.94686 15.2502C2.27536 13.8622 3.25022 12.7713 4.4078 11.9846C8.19551 9.82778 13.4786 10.3576 16.8048 13.0832ZM4.39998 14.883C4.00008 15.4886 3.9948 16.0496 4.12655 16.7502C4.6203 18.2268 5.43117 19.5606 6.25155 20.8752C6.32396 20.9915 6.39636 21.1077 6.47097 21.2274C8.50126 24.4718 10.6577 27.6705 13.1446 30.5866C13.3765 30.8752 13.3765 30.8752 13.5811 31.2068C13.7873 31.5307 13.9465 31.7659 14.2515 32.0002C14.8057 32.0927 15.3205 32.0679 15.8765 32.0002C15.8052 31.1844 15.6601 30.4343 15.4312 29.6487C15.3982 29.535 15.3651 29.4213 15.331 29.3042C14.515 26.5797 13.3021 23.9313 11.6265 21.6252C11.5426 21.5073 11.4586 21.3893 11.3722 21.2678C9.60815 18.836 9.60815 18.836 7.37655 16.8752C7.55708 16.4704 7.78376 16.1728 8.07967 15.844C8.15863 15.7557 8.23758 15.6674 8.31893 15.5764C8.37919 15.51 8.43946 15.4436 8.50155 15.3752C8.9648 15.4473 9.18253 15.6317 9.51278 15.9572C9.61003 16.0531 9.70728 16.1489 9.80749 16.2477C9.9102 16.3516 10.0129 16.4556 10.1187 16.5627C10.2247 16.6696 10.3308 16.7765 10.44 16.8866C11.3895 17.8601 12.2211 18.8883 13.0015 20.0002C13.0573 20.0787 13.1131 20.1573 13.1706 20.2382C14.9872 22.8115 16.3162 25.6211 17.2515 28.6252C17.3265 28.852 17.402 29.0786 17.4781 29.3049C17.5271 29.4519 17.5761 29.5988 17.6265 29.7502C18.0052 29.3186 18.1604 28.8454 18.3219 28.3049C18.349 28.2151 18.3761 28.1254 18.404 28.0329C19.497 24.3317 19.039 20.4605 17.275 17.0471C16.1721 15.0968 14.5471 13.7501 12.378 13.1456C9.76183 12.4868 6.27126 12.6947 4.39998 14.883ZM19.9 16.2424C19.5836 16.6007 19.5836 16.6007 19.6495 17.0212C19.7623 17.5509 19.927 18.039 20.1109 18.5471C21.167 21.6039 21.329 25.0748 20.4376 28.197C20.3723 28.5211 20.412 28.6883 20.5015 29.0002C22.2544 26.2452 23.8765 23.2251 23.8765 19.8752C24.5778 19.9165 25.279 19.9577 26.0015 20.0002C25.4755 24.0978 24.1187 27.7668 21.5015 31.0002C21.254 31.3302 21.0065 31.6602 20.7515 32.0002C22.1953 32.0002 23.639 32.0002 25.1265 32.0002C25.0853 31.299 25.044 30.5977 25.0015 29.8752C25.2134 27.4677 25.9592 25.5502 27.7515 23.8752C28.689 23.1617 29.7596 22.6225 30.8765 22.2502C30.5668 20.1609 29.5089 18.3496 27.8765 17.0002C26.8159 16.2231 25.7593 15.6516 24.5015 15.2502C24.4245 15.2256 24.3475 15.2009 24.2681 15.1755C22.6213 14.8648 21.1943 15.1461 19.9 16.2424ZM46.3765 18.7502C45.6364 19.7291 45.4331 20.6635 45.5015 21.8752C45.5568 22.2453 45.6394 22.6056 45.7281 22.969C45.7506 23.0667 45.7731 23.1645 45.7963 23.2653C45.8972 23.7009 46.0038 24.1339 46.1182 24.5661C46.4148 25.714 46.6684 27.0721 46.189 28.2033C45.8104 28.8262 45.175 29.1507 44.5015 29.3752C43.2658 29.4629 42.1972 29.293 41.0015 29.0002C40.9603 29.9902 40.919 30.9802 40.8765 32.0002C42.939 32.0002 45.0015 32.0002 47.1265 32.0002C47.2683 31.3247 47.4101 30.6493 47.5562 29.9533C48.2208 26.8475 48.9882 23.7625 50.0015 20.7502C50.0936 20.7758 50.1856 20.8015 50.2804 20.8279C50.4023 20.8615 50.5243 20.8952 50.65 20.9299C50.7703 20.9633 50.8907 20.9966 51.0147 21.031C51.3425 21.1163 51.6693 21.1853 52.0015 21.2502C51.9765 21.3252 51.9514 21.4003 51.9256 21.4776C50.0634 26.6191 50.0634 26.6191 49.2515 32.0002C52.5103 32.0002 55.769 32.0002 59.1265 32.0002C57.6444 30.2711 56.4393 29.7403 54.2193 29.5096C53.3986 29.42 52.7751 29.3098 52.2047 28.6643C51.9209 28.0859 51.8847 27.6124 52.0797 27.008C52.3146 26.4879 52.6363 26.077 53.0015 25.6408C54.2259 24.148 54.3725 22.2467 54.2515 20.3752C54.0907 19.0894 53.7399 18.0217 52.8375 17.0705C50.5933 15.7658 47.9386 16.8579 46.3765 18.7502ZM28.6422 25.9455C27.9806 26.6236 27.9806 26.6236 27.7515 27.5002C28.2465 27.6652 28.7415 27.8302 29.2515 28.0002C29.158 28.3379 29.0644 28.6757 28.9708 29.0134C28.8859 29.3395 28.8176 29.6698 28.7515 30.0002C28.2153 29.8352 27.679 29.6702 27.1265 29.5002C27.1214 29.7503 27.1162 30.0004 27.1109 30.258C27.108 30.3987 27.1051 30.5394 27.1021 30.6843C27.1147 31.2059 27.1147 31.2059 27.3765 32.0002C31.089 32.0002 34.8015 32.0002 38.6265 32.0002C38.9052 31.1767 38.9052 31.1767 38.8765 30.5002C38.0722 30.7477 38.0722 30.7477 37.2515 31.0002C37.0667 30.3332 36.8873 29.6791 36.7515 29.0002C37.3703 28.794 37.989 28.5877 38.6265 28.3752C38.3927 26.9724 37.4665 25.8662 36.3336 25.0354C35.5876 24.5538 34.8643 24.3243 34.0015 24.1252C34.0015 24.744 34.0015 25.3627 34.0015 26.0002C33.3415 26.0002 32.6815 26.0002 32.0015 26.0002C32.0015 25.3815 32.0015 24.7627 32.0015 24.1252C30.7366 24.1252 29.5028 25.1196 28.6422 25.9455ZM4.77254 29.7282C4.07222 30.5106 4.12655 30.8243 4.12655 32.0002C6.5603 32.0002 8.99405 32.0002 11.5015 32.0002C11.2063 31.5574 10.9259 31.1397 10.6007 30.7243C10.5273 30.6303 10.4539 30.5363 10.3783 30.4394C10.3029 30.3435 10.2276 30.2475 10.15 30.1487C9.92611 29.8623 9.92611 29.8623 9.70223 29.5759C9.62865 29.4822 9.55508 29.3885 9.47927 29.2919C9.32007 29.088 9.162 28.8832 9.00478 28.6778C8.92589 28.5749 8.84699 28.472 8.76571 28.3659C8.69405 28.2719 8.6224 28.1778 8.54857 28.0809C8.49181 28.013 8.43504 27.9452 8.37655 27.8752C7.2581 27.8752 5.53288 28.9711 4.77254 29.7282ZM4.12655 34.0002C4.12655 41.0988 7.50604 47.6282 12.4434 52.5671C17.3782 57.408 24.0704 59.7246 30.8765 60.0002C31.0332 60.0067 31.0332 60.0067 31.193 60.0133C31.839 60.0359 32.4808 60.027 33.1265 60.0002C33.2534 59.9951 33.3802 59.9899 33.5109 59.9847C39.8471 59.697 45.8179 57.5696 50.6265 53.3752C50.699 53.3121 50.7715 53.2489 50.8461 53.1838C55.8964 48.7385 59.3907 42.266 59.8765 35.5002C59.8765 35.0052 59.8765 34.5102 59.8765 34.0002C41.479 34.0002 23.0815 34.0002 4.12655 34.0002Z" fill="black"/>
<path d="M44.1472 4.94411C44.5631 4.94518 44.9787 4.94155 45.3946 4.9376C45.6595 4.9374 45.9245 4.93748 46.1895 4.93785C46.3134 4.93644 46.4374 4.93504 46.5651 4.93359C47.4036 4.94213 47.4036 4.94213 47.8257 5.20012C48.0574 5.60311 48.0628 5.89345 48.0645 6.35777C48.0652 6.48322 48.0652 6.48322 48.0659 6.61119C48.0663 6.78865 48.0653 6.96612 48.0633 7.14357C48.0606 7.4084 48.0632 7.67279 48.0664 7.9376C48.0716 10.3196 47.312 12.5053 45.6481 14.2403C44.5645 15.3251 43.4431 16.1027 41.9981 16.6249C41.8565 16.6774 41.8565 16.6774 41.7121 16.731C40.4587 17.119 39.1475 17.0608 37.8489 17.0556C37.4331 17.0545 37.0174 17.0582 36.6016 17.0621C36.3366 17.0623 36.0716 17.0622 35.8067 17.0619C35.6827 17.0633 35.5588 17.0647 35.431 17.0661C34.5925 17.0576 34.5925 17.0576 34.1704 16.7996C33.9387 16.3966 33.9334 16.1063 33.9317 15.642C33.9312 15.5583 33.9307 15.4747 33.9302 15.3885C33.9299 15.2111 33.9308 15.0336 33.9329 14.8562C33.9355 14.5913 33.9329 14.3269 33.9297 14.0621C33.9245 11.6802 34.6841 9.4944 36.3481 7.75944C37.4316 6.67462 38.553 5.89705 39.9981 5.37486C40.0925 5.33982 40.1868 5.30479 40.2841 5.26869C41.5375 4.88072 42.8486 4.93897 44.1472 4.94411ZM37.9981 9.12486C36.8532 10.3646 36.1653 11.801 36.1231 13.4999C36.554 13.3124 36.851 13.0618 37.1934 12.742C37.6384 12.3336 38.0905 11.9418 38.5606 11.5624C39.0218 11.1898 39.4669 10.8064 39.9043 10.4061C40.3725 9.97907 40.8478 9.60382 41.3731 9.24986C41.5822 9.47315 41.7904 9.69717 41.9981 9.92174C42.0875 10.017 42.0875 10.017 42.1787 10.1141C42.6231 10.5965 42.6231 10.5965 42.6231 10.8749C42.4265 11.0517 42.2216 11.2194 42.0137 11.3827C41.537 11.7636 41.0733 12.1505 40.6231 12.5624C39.977 13.1508 39.3028 13.701 38.6231 14.2499C38.3696 14.455 38.1198 14.6615 37.8731 14.8749C37.8731 14.9161 37.8731 14.9574 37.8731 14.9999C40.1145 15.0772 42.1295 14.5615 43.8142 13.0514C45.2508 11.672 45.8474 9.95013 45.9981 7.99986C46.0042 7.66613 46.0021 7.3337 45.9981 6.99986C43.0248 6.95222 40.2703 6.94315 37.9981 9.12486Z" fill="black"/>
<path d="M10.75 43.375C11.1858 43.7882 11.5238 44.1958 11.8438 44.7031C13.127 46.6614 14.7627 48.4552 16.625 49.875C16.7505 49.976 16.876 50.0771 17.0054 50.1812C18.3988 51.2965 19.9255 52.1653 21.5 53C21.2943 53.7106 20.9637 54.3459 20.625 55C17.8989 53.7022 15.555 52.0868 13.375 50C13.3128 49.9412 13.2506 49.8825 13.1866 49.8219C11.5917 48.3085 10.341 46.5741 9.125 44.75C9.125 44.6262 9.125 44.5025 9.125 44.375C9.39347 44.1821 9.65229 44.0155 9.9375 43.8516C10.015 43.8056 10.0925 43.7596 10.1724 43.7122C10.3642 43.5985 10.557 43.4866 10.75 43.375Z" fill="black"/>
<path d="M29.4308 5.18748C30.1589 5.62748 30.7489 6.31119 31.0011 7.12498C31.1017 8.10449 31.1417 9.07739 30.5011 9.87498C29.9005 10.5056 29.3559 10.9507 28.4674 11.042C27.4029 11.0537 26.6666 11.0147 25.8805 10.2661C25.0828 9.40311 24.9411 8.72477 24.963 7.55565C25.0499 6.57288 25.507 6.05628 26.2389 5.43065C27.1219 4.82221 28.4503 4.75299 29.4308 5.18748ZM27.3292 7.32811C27.0652 7.71396 27.0496 7.91602 27.1261 8.37498C27.3136 8.68748 27.3136 8.68748 27.6261 8.87498C28.0851 8.95148 28.2871 8.93587 28.673 8.67186C28.937 8.286 28.9526 8.08395 28.8761 7.62498C28.6886 7.31248 28.6886 7.31248 28.3761 7.12498C27.9171 7.04849 27.7151 7.0641 27.3292 7.32811Z" fill="black"/>
<path d="M16.4308 2.18748C17.1589 2.62748 17.7489 3.31119 18.0011 4.12498C18.1017 5.10449 18.1417 6.07739 17.5011 6.87498C16.9005 7.50563 16.3559 7.95069 15.4674 8.04197C14.4029 8.05371 13.6666 8.0147 12.8805 7.2661C12.0828 6.40311 11.9411 5.72477 11.963 4.55565C12.0499 3.57288 12.507 3.05628 13.2389 2.43065C14.1219 1.82221 15.4503 1.75299 16.4308 2.18748ZM14.3292 4.32811C14.0652 4.71396 14.0496 4.91602 14.1261 5.37498C14.3136 5.68748 14.3136 5.68748 14.6261 5.87498C15.0851 5.95148 15.2871 5.93587 15.673 5.67186C15.937 5.286 15.9526 5.08395 15.8761 4.62498C15.6886 4.31248 15.6886 4.31248 15.3761 4.12498C14.9171 4.04849 14.7151 4.0641 14.3292 4.32811Z" fill="black"/>
<path d="M23 54C23.66 54 24.32 54 25 54C25 54.66 25 55.32 25 56C24.34 56 23.68 56 23 56C23 55.34 23 54.68 23 54Z" fill="black"/>
<path d="M32 28C32.66 28 33.32 28 34 28C34 28.66 34 29.32 34 30C33.34 30 32.68 30 32 30C32 29.34 32 28.68 32 28Z" fill="black"/>
</svg>
