<svg width="16" height="16" viewBox="0 0 16 16" fill="none" xmlns="http://www.w3.org/2000/svg">
<path fill-rule="evenodd" clip-rule="evenodd" d="M0 0.749989C0 0.335782 0.335782 0 0.749989 0H11.2501C11.6643 0 12.0001 0.335782 12.0001 0.749989V11.2498C12.0001 11.664 11.6643 11.9998 11.2501 11.9998H0.749989C0.335782 11.9998 0 11.664 0 11.2498V0.749989ZM1.49998 1.49998V10.4998H10.5001V1.49998H1.49998Z" fill="black"/>
<path fill-rule="evenodd" clip-rule="evenodd" d="M3.49995 12.4998C2.94767 12.4998 2.49996 12.9475 2.49996 13.4998C2.49996 14.0521 2.94767 14.4998 3.49995 14.4998C4.05223 14.4998 4.49993 14.0521 4.49993 13.4998C4.49993 12.9475 4.05223 12.4998 3.49995 12.4998ZM0.999985 13.4998C0.999985 12.1191 2.11926 10.9998 3.49995 10.9998C4.88064 10.9998 5.99991 12.1191 5.99991 13.4998C5.99991 14.8805 4.88064 15.9998 3.49995 15.9998C2.11926 15.9998 0.999985 14.8805 0.999985 13.4998Z" fill="black"/>
<path fill-rule="evenodd" clip-rule="evenodd" d="M12.4998 12.4998C11.9475 12.4998 11.4998 12.9475 11.4998 13.4998C11.4998 14.0521 11.9475 14.4998 12.4998 14.4998C13.0521 14.4998 13.4998 14.0521 13.4998 13.4998C13.4998 12.9475 13.0521 12.4998 12.4998 12.4998ZM9.99985 13.4998C9.99985 12.1191 11.1191 10.9998 12.4998 10.9998C13.8805 10.9998 14.9998 12.1191 14.9998 13.4998C14.9998 14.8805 13.8805 15.9998 12.4998 15.9998C11.1191 15.9998 9.99985 14.8805 9.99985 13.4998Z" fill="black"/>
<path fill-rule="evenodd" clip-rule="evenodd" d="M10.4998 4.74993C10.4998 4.33572 10.8356 3.99994 11.2498 3.99994H12.2501C14.3211 3.99994 16 5.67885 16 7.74989V11.2498C16 11.664 15.6642 11.9998 15.25 11.9998H11.2501C10.8359 11.9998 10.4998 11.664 10.4998 11.2498V4.74993ZM11.9998 5.49992V10.4998H14.5V7.74989C14.5 6.50726 13.4927 5.49992 12.2501 5.49992H11.9998Z" fill="black"/>
</svg>
