<svg width="16" height="16" viewBox="0 0 16 16" fill="none" xmlns="http://www.w3.org/2000/svg">
<path fill-rule="evenodd" clip-rule="evenodd" d="M0.75 10C1.16421 10 1.5 10.3358 1.5 10.75V14.5H5.25C5.66421 14.5 6 14.8358 6 15.25C6 15.6642 5.66421 16 5.25 16H0.75C0.335786 16 0 15.6642 0 15.25V10.75C0 10.3358 0.335786 10 0.75 10Z" fill="black"/>
<path fill-rule="evenodd" clip-rule="evenodd" d="M10 0.75C10 0.335786 10.3358 0 10.75 0H15.25C15.6642 0 16 0.335786 16 0.75V5.25C16 5.66421 15.6642 6 15.25 6C14.8358 6 14.5 5.66421 14.5 5.25V1.5H10.75C10.3358 1.5 10 1.16421 10 0.75Z" fill="black"/>
<path fill-rule="evenodd" clip-rule="evenodd" d="M6.78033 9.21967C7.07322 9.51256 7.07322 9.98744 6.78033 10.2803L1.53033 15.5303C1.23744 15.8232 0.762563 15.8232 0.46967 15.5303C0.176777 15.2374 0.176777 14.7626 0.46967 14.4697L5.71967 9.21967C6.01256 8.92678 6.48744 8.92678 6.78033 9.21967Z" fill="black"/>
<path fill-rule="evenodd" clip-rule="evenodd" d="M15.5303 0.46967C15.8232 0.762563 15.8232 1.23744 15.5303 1.53033L10.2803 6.78033C9.98744 7.07322 9.51256 7.07322 9.21967 6.78033C8.92678 6.48744 8.92678 6.01256 9.21967 5.71967L14.4697 0.46967C14.7626 0.176777 15.2374 0.176777 15.5303 0.46967Z" fill="black"/>
</svg>
