<svg width="17" height="17" viewBox="0 0 17 17" fill="none" xmlns="http://www.w3.org/2000/svg">
<g clip-path="url(#clip0_2387_11816)">
<path d="M13.5834 15.1668H3.79677C2.81677 15.1668 2.02344 14.3735 2.02344 13.3935V3.60683C2.02344 2.62683 2.81677 1.8335 3.79677 1.8335H13.5768C14.5634 1.8335 15.3568 2.62683 15.3568 3.60683V13.3868C15.3568 14.3735 14.5634 15.1668 13.5834 15.1668Z" stroke="black" stroke-width="1.5" stroke-miterlimit="10" stroke-linecap="round" stroke-linejoin="round"/>
<path d="M11.3568 8.50016C11.3568 9.9735 10.1634 11.1668 8.6901 11.1668C7.21677 11.1668 6.02344 9.9735 6.02344 8.50016C6.02344 7.02683 7.21677 5.8335 8.6901 5.8335C10.1634 5.8335 11.3568 7.02683 11.3568 8.50016Z" stroke="black" stroke-width="1.5" stroke-miterlimit="10" stroke-linecap="round" stroke-linejoin="round"/>
<path d="M13.3542 4.16683C13.3542 4.3535 13.2075 4.50016 13.0208 4.50016C12.8342 4.50016 12.6875 4.3535 12.6875 4.16683C12.6875 3.98016 12.8342 3.8335 13.0208 3.8335C13.2075 3.8335 13.3542 3.98016 13.3542 4.16683Z" stroke="black" stroke-width="1.5" stroke-miterlimit="10" stroke-linecap="round" stroke-linejoin="round"/>
</g>
<defs>
<clipPath id="clip0_2387_11816">
<rect width="16" height="16" fill="white" transform="translate(0.6875 0.5)"/>
</clipPath>
</defs>
</svg>
