<svg width="15" height="17" viewBox="0 0 15 17" fill="none" xmlns="http://www.w3.org/2000/svg">
<path fill-rule="evenodd" clip-rule="evenodd" d="M7.1875 2.00024C4.27345 2.00024 1.6875 4.42887 1.6875 7.50024C1.6875 8.31002 2.00679 9.18826 2.55441 10.0864C3.09853 10.9787 3.83586 11.8379 4.59283 12.5949C5.34726 13.3493 6.10459 13.9858 6.67465 14.4342C6.87124 14.5889 7.04485 14.7206 7.1875 14.8265C7.33015 14.7206 7.50376 14.5889 7.70035 14.4342C8.27041 13.9858 9.02774 13.3493 9.78217 12.5949C10.5391 11.8379 11.2765 10.9787 11.8206 10.0864C12.3682 9.18826 12.6875 8.31002 12.6875 7.50024C12.6875 4.42887 10.1016 2.00024 7.1875 2.00024ZM7.1875 15.7502C6.76577 16.3704 6.76543 16.3702 6.76543 16.3702L6.76356 16.3689L6.75909 16.3659L6.74349 16.3551C6.73018 16.346 6.71111 16.3327 6.68666 16.3156C6.63777 16.2813 6.56734 16.2313 6.47844 16.1668C6.3007 16.0378 6.04873 15.8503 5.74722 15.6131C5.14541 15.1397 4.34024 14.4636 3.53217 13.6556C2.72664 12.85 1.90147 11.8968 1.27372 10.8673C0.649455 9.84348 0.1875 8.69047 0.1875 7.50024C0.1875 3.57162 3.47414 0.500244 7.1875 0.500244C10.9009 0.500244 14.1875 3.57162 14.1875 7.50024C14.1875 8.69047 13.7255 9.84348 13.1013 10.8673C12.4735 11.8968 11.6484 12.85 10.8428 13.6556C10.0348 14.4636 9.22958 15.1397 8.62778 15.6131C8.32627 15.8503 8.0743 16.0378 7.89656 16.1668C7.80766 16.2313 7.73723 16.2813 7.68834 16.3156C7.66389 16.3327 7.64482 16.346 7.63151 16.3551L7.61591 16.3659L7.61144 16.3689L7.61005 16.3699C7.61005 16.3699 7.60923 16.3704 7.1875 15.7502ZM7.1875 15.7502L7.61005 16.3699C7.35553 16.543 7.01995 16.5433 6.76543 16.3702L7.1875 15.7502Z" fill="#CD3626"/>
<path fill-rule="evenodd" clip-rule="evenodd" d="M7.1875 6.00024C6.35907 6.00024 5.6875 6.67182 5.6875 7.50024C5.6875 8.32867 6.35907 9.00024 7.1875 9.00024C8.01593 9.00024 8.6875 8.32867 8.6875 7.50024C8.6875 6.67182 8.01593 6.00024 7.1875 6.00024ZM4.1875 7.50024C4.1875 5.84339 5.53065 4.50024 7.1875 4.50024C8.84435 4.50024 10.1875 5.84339 10.1875 7.50024C10.1875 9.1571 8.84435 10.5002 7.1875 10.5002C5.53065 10.5002 4.1875 9.1571 4.1875 7.50024Z" fill="#CD3626"/>
</svg>
