<svg width="77" height="76" viewBox="0 0 77 76" fill="none" xmlns="http://www.w3.org/2000/svg">
<path fill-rule="evenodd" clip-rule="evenodd" d="M12.833 57.791C12.833 59.1027 13.9103 60.166 15.2393 60.166L45.7184 60.166C47.0474 60.166 48.1247 59.1027 48.1247 57.791C48.1247 56.4793 47.0474 55.416 45.7184 55.416L15.2393 55.416C13.9103 55.416 12.833 56.4793 12.833 57.791Z" fill="black"/>
<path fill-rule="evenodd" clip-rule="evenodd" d="M12.833 18.2077C12.833 19.5194 13.9103 20.5827 15.2393 20.5827L45.7184 20.5827C47.0474 20.5827 48.1247 19.5194 48.1247 18.2077C48.1247 16.896 47.0474 15.8327 45.7184 15.8327L15.2393 15.8327C13.9103 15.8327 12.833 16.896 12.833 18.2077Z" fill="black"/>
<path fill-rule="evenodd" clip-rule="evenodd" d="M12.833 37.9993C12.833 39.311 13.9103 40.3743 15.2393 40.3743L61.7601 40.3743C63.089 40.3743 64.1664 39.311 64.1664 37.9993C64.1664 36.6877 63.089 35.6243 61.7601 35.6243L15.2393 35.6243C13.9103 35.6243 12.833 36.6877 12.833 37.9993Z" fill="black"/>
</svg>
