<svg width="16" height="16" viewBox="0 0 16 16" fill="none" xmlns="http://www.w3.org/2000/svg">
<path fill-rule="evenodd" clip-rule="evenodd" d="M0 2.06818C0 0.925957 0.925956 0 2.06818 0H4.89286C5.14362 0 5.3778 0.125326 5.51689 0.333975L7.58832 3.44112C7.78663 3.73858 7.74741 4.13467 7.49462 4.38747L5.85702 6.02507C5.82266 6.05943 5.80672 6.09486 5.80139 6.12032C5.79661 6.14313 5.79948 6.15891 5.80627 6.17327C6.06759 6.72574 6.59146 7.64395 7.48184 8.49291C8.36984 9.33961 9.2731 9.87995 9.82633 10.1657C9.84693 10.1764 9.8692 10.1803 9.89704 10.1751C9.9272 10.1695 9.96563 10.1523 10.0014 10.1165L11.6125 8.50538C11.8653 8.25259 12.2614 8.21337 12.5589 8.41168L15.666 10.4831C15.8747 10.6222 16 10.8564 16 11.1071V13.9318C16 15.074 15.074 16 13.9318 16C6.23749 16 0 9.76251 0 2.06818ZM2.06818 1.5C1.75438 1.5 1.5 1.75438 1.5 2.06818C1.5 8.93409 7.06591 14.5 13.9318 14.5C14.2456 14.5 14.5 14.2456 14.5 13.9318V11.5085L12.2384 10.0008L11.0621 11.1772C10.5774 11.6618 9.81093 11.8461 9.13788 11.4984C8.49848 11.1681 7.46646 10.5508 6.44673 9.57852C5.3839 8.56512 4.76338 7.47654 4.4503 6.81463C4.13621 6.15057 4.33691 5.42386 4.79636 4.96441L5.99919 3.76158L4.49147 1.5H2.06818Z" fill="black"/>
</svg>
