<svg width="32" height="36" viewBox="0 0 32 36" fill="none" xmlns="http://www.w3.org/2000/svg">
<path fill-rule="evenodd" clip-rule="evenodd" d="M16 3.78133C9.54745 3.78133 3.82143 9.09408 3.82143 15.8129C3.82143 17.5843 4.52844 19.5055 5.74101 21.4701C6.94585 23.4222 8.57852 25.3018 10.2547 26.9577C11.9252 28.6081 13.6021 30.0003 14.8644 30.9813C15.2997 31.3196 15.6841 31.6078 16 31.8395C16.3159 31.6078 16.7003 31.3196 17.1356 30.9813C18.3979 30.0003 20.0748 28.6081 21.7453 26.9577C23.4215 25.3018 25.0541 23.4222 26.259 21.4701C27.4716 19.5055 28.1786 17.5843 28.1786 15.8129C28.1786 9.09408 22.4525 3.78133 16 3.78133ZM16 33.8602C15.0662 35.2169 15.0654 35.2164 15.0654 35.2164L15.0613 35.2136L15.0514 35.2069L15.0168 35.1835C14.9874 35.1634 14.9451 35.1344 14.891 35.0969C14.7827 35.0219 14.6268 34.9126 14.4299 34.7715C14.0364 34.4893 13.4784 34.0791 12.8108 33.5603C11.4782 32.5246 9.69535 31.0457 7.90605 29.278C6.12237 27.5158 4.29522 25.4305 2.90519 23.1784C1.5229 20.9388 0.5 18.4166 0.5 15.8129C0.5 7.2188 7.77755 0.5 16 0.5C24.2224 0.5 31.5 7.2188 31.5 15.8129C31.5 18.4166 30.4771 20.9388 29.0948 23.1784C27.7048 25.4305 25.8776 27.5158 24.0939 29.278C22.3047 31.0457 20.5218 32.5246 19.1892 33.5603C18.5216 34.0791 17.9636 34.4893 17.5701 34.7715C17.3732 34.9126 17.2173 35.0219 17.109 35.0969C17.0549 35.1344 17.0126 35.1634 16.9832 35.1835L16.9486 35.2069L16.9387 35.2136L16.9356 35.2157C16.9356 35.2157 16.9338 35.2169 16 33.8602ZM16 33.8602L16.9356 35.2157C16.3721 35.5943 15.629 35.595 15.0654 35.2164L16 33.8602Z" fill="#EE3A3A"/>
<path fill-rule="evenodd" clip-rule="evenodd" d="M16 12.5315C14.1656 12.5315 12.6786 14.0006 12.6786 15.8129C12.6786 17.6251 14.1656 19.0942 16 19.0942C17.8344 19.0942 19.3214 17.6251 19.3214 15.8129C19.3214 14.0006 17.8344 12.5315 16 12.5315ZM9.35714 15.8129C9.35714 12.1884 12.3313 9.25021 16 9.25021C19.6687 9.25021 22.6429 12.1884 22.6429 15.8129C22.6429 19.4373 19.6687 22.3755 16 22.3755C12.3313 22.3755 9.35714 19.4373 9.35714 15.8129Z" fill="#EE3A3A"/>
</svg>
