<svg width="64" height="64" viewBox="0 0 64 64" fill="none" xmlns="http://www.w3.org/2000/svg">
<path d="M22.7168 15.8425C22.7995 15.842 22.8822 15.8415 22.9674 15.841C23.2436 15.8398 23.5197 15.8403 23.7959 15.8408C23.9943 15.8402 24.1927 15.8396 24.391 15.8388C24.9293 15.8371 25.4675 15.8371 26.0057 15.8374C26.4552 15.8375 26.9047 15.8369 27.3542 15.8363C28.4147 15.8349 29.4752 15.8349 30.5356 15.8356C31.6293 15.8364 32.723 15.8348 33.8167 15.8322C34.7561 15.83 35.6955 15.8292 36.6349 15.8296C37.1958 15.8299 37.7567 15.8295 38.3176 15.8278C38.845 15.8262 39.3725 15.8265 39.8999 15.8281C40.0933 15.8284 40.2867 15.828 40.4801 15.827C40.7445 15.8257 41.0088 15.8267 41.2732 15.8283C41.421 15.8283 41.5689 15.8283 41.7212 15.8282C42.3064 15.8956 42.7321 16.0732 43.1094 16.5308C43.2879 16.9587 43.3028 17.295 43.2998 17.7579C43.3008 17.9089 43.3018 18.0599 43.3028 18.2154C43.2491 18.6569 43.142 18.7859 42.878 19.1251C42.9304 19.583 43.1646 19.9053 43.4175 20.2818C43.5028 20.4094 43.5882 20.5369 43.6761 20.6683C43.8108 20.8673 43.8108 20.8673 43.9483 21.0704C44.0347 21.1997 44.1212 21.329 44.2102 21.4622C44.7217 22.2235 45.2486 22.97 45.7969 23.7051C46.1104 24.1539 46.2842 24.4808 46.2844 25.0337C46.2851 25.1401 46.2857 25.2464 46.2864 25.3559C46.2858 25.4721 46.2853 25.5883 46.2847 25.708C46.2853 25.8939 46.2853 25.8939 46.2859 26.0835C46.2869 26.5 46.2861 26.9164 46.2853 27.3328C46.2856 27.631 46.2861 27.9291 46.2866 28.2272C46.2877 28.9539 46.2875 29.6806 46.2868 30.4073C46.2862 30.9984 46.2861 31.5895 46.2864 32.1807C46.2865 32.2648 46.2865 32.349 46.2865 32.4357C46.2866 32.6066 46.2867 32.7776 46.2868 32.9485C46.2875 34.5526 46.2867 36.1567 46.2853 37.7608C46.2842 39.135 46.2844 40.5092 46.2856 41.8834C46.2869 43.4802 46.2874 45.077 46.2867 46.6738C46.2866 46.8444 46.2865 47.0151 46.2864 47.1857C46.2864 47.3116 46.2864 47.3116 46.2863 47.4401C46.2861 48.0295 46.2864 48.6189 46.287 49.2083C46.2878 50.0036 46.2873 50.799 46.2858 51.5943C46.2855 51.8856 46.2856 52.1768 46.2861 52.4681C46.2905 55.0212 46.2011 57.482 44.3545 59.461C43.1108 60.62 41.5046 61.3875 39.7925 61.3926C39.6508 61.3934 39.509 61.3941 39.363 61.3948C39.1315 61.395 39.1315 61.395 38.8953 61.3952C38.65 61.3962 38.65 61.3962 38.3998 61.3971C37.952 61.3987 37.5041 61.3995 37.0562 61.4001C36.7758 61.4005 36.4954 61.401 36.215 61.4015C35.336 61.4033 34.457 61.4045 33.578 61.4049C32.5665 61.4055 31.5551 61.4077 30.5436 61.4113C29.7598 61.414 28.976 61.4153 28.1922 61.4154C27.7251 61.4156 27.2579 61.4163 26.7908 61.4186C26.3505 61.4206 25.9103 61.4209 25.47 61.4198C25.2338 61.4196 24.9977 61.4213 24.7615 61.4231C22.7445 61.4134 21.1322 60.8223 19.6636 59.4259C18.2601 57.948 17.7397 56.2431 17.727 54.2442C17.7257 54.1182 17.7245 53.9921 17.7232 53.8622C17.7192 53.44 17.7161 53.0177 17.713 52.5954C17.7104 52.2925 17.7077 51.9896 17.705 51.6867C17.6815 48.9202 17.6687 46.1536 17.6585 43.387C17.6571 43.0166 17.6557 42.6463 17.6543 42.2759C17.6539 42.1839 17.6536 42.0919 17.6532 41.997C17.6473 40.5093 17.6352 39.0217 17.6208 37.534C17.6061 36.0033 17.5977 34.4725 17.595 32.9417C17.5933 32.0835 17.5889 31.2256 17.5773 30.3675C17.5664 29.5589 17.5639 28.7505 17.5669 27.9417C17.5666 27.6466 17.5636 27.3515 17.5576 27.0564C17.5182 25.0405 17.8731 23.8237 19.1667 22.2629C19.5207 21.8225 19.8298 21.3522 20.1436 20.8829C20.7092 20.0544 20.7092 20.0544 20.9839 19.7135C21.0315 19.643 21.079 19.5726 21.128 19.5001C21.0481 19.1905 21.0481 19.1905 20.878 18.8751C20.5562 18.1638 20.5949 17.5013 20.753 16.7501C21.2139 15.9434 21.8357 15.844 22.7168 15.8425ZM22.128 17.3751C22.128 17.5813 22.128 17.7876 22.128 18.0001C22.3543 18.2264 22.7029 18.1409 23.0074 18.141C23.1715 18.1413 23.3356 18.1417 23.5046 18.142C23.6881 18.1418 23.8717 18.1415 24.0552 18.1413C24.2471 18.1414 24.4391 18.1416 24.631 18.1419C25.1537 18.1425 25.6764 18.1423 26.1991 18.1419C26.7449 18.1416 27.2907 18.1419 27.8365 18.142C28.7533 18.1423 29.6701 18.142 30.5868 18.1414C31.6483 18.1407 32.7097 18.1409 33.7712 18.1416C34.6808 18.1422 35.5905 18.1423 36.5001 18.1419C37.0442 18.1417 37.5882 18.1417 38.1322 18.1421C38.6436 18.1425 39.1549 18.1422 39.6663 18.1415C39.8545 18.1413 40.0427 18.1414 40.2309 18.1417C40.4868 18.142 40.7426 18.1415 40.9985 18.141C41.142 18.1409 41.2855 18.1409 41.4334 18.1408C41.7447 18.1613 41.7447 18.1613 41.878 18.0001C41.878 17.7938 41.878 17.5876 41.878 17.3751C35.3605 17.3751 28.843 17.3751 22.128 17.3751ZM22.0228 20.476C21.8681 20.7714 21.7501 21.0632 21.628 21.3751C21.4973 21.5745 21.3621 21.7713 21.2183 21.9615C21.1073 22.1227 20.9964 22.284 20.8858 22.4454C20.829 22.5277 20.7722 22.6099 20.7137 22.6947C20.6309 22.8152 20.6309 22.8152 20.5464 22.9381C20.4987 23.0074 20.451 23.0768 20.4019 23.1483C20.2189 23.4269 20.0495 23.7142 19.878 24.0001C27.8805 24.0001 35.883 24.0001 44.128 24.0001C43.5943 23.1614 43.0641 22.3381 42.4873 21.5313C42.3938 21.3996 42.3938 21.3996 42.2984 21.2652C42.1169 21.0099 41.9351 20.7549 41.753 20.5001C41.6814 20.3527 41.6099 20.2053 41.5362 20.0535C41.3013 19.7295 41.1763 19.637 40.7831 19.5404C40.3217 19.5044 39.864 19.4966 39.4016 19.498C39.2237 19.4954 39.0458 19.4924 38.868 19.4891C38.3855 19.4814 37.9031 19.4793 37.4205 19.4787C37.1187 19.4781 36.8169 19.4762 36.515 19.4739C35.4607 19.4658 34.4065 19.4623 33.3522 19.4629C32.3714 19.4635 31.391 19.4542 30.4103 19.4404C29.5669 19.4289 28.7235 19.4243 27.88 19.4248C27.3768 19.4251 26.874 19.4226 26.3708 19.4133C23.9069 19.2266 23.9069 19.2266 22.0228 20.476ZM19.253 25.3751C19.253 28.5101 19.253 31.6451 19.253 34.8751C20.5046 35.8791 20.5046 35.8791 21.8545 36.6641C21.9365 36.704 22.0185 36.7438 22.103 36.7848C24.1007 37.7224 26.6736 38.4153 28.8311 37.6407C30.262 36.9926 31.5732 36.1269 32.8705 35.2486C35.3822 33.5484 37.6206 32.2594 40.753 32.7501C42.0201 33.0045 43.072 33.5036 44.128 34.2501C44.3342 34.3738 44.5405 34.4976 44.753 34.6251C44.753 31.5726 44.753 28.5201 44.753 25.3751C36.338 25.3751 27.923 25.3751 19.253 25.3751ZM33.0856 36.7371C30.2157 38.6695 27.7964 39.6799 24.3135 39.0045C22.4815 38.6072 20.8455 37.7096 19.253 36.7501C18.9603 38.8305 18.9603 38.8305 19.5445 40.7257C19.8703 41.0148 20.2344 41.2108 20.6303 41.3886C20.8883 41.5047 21.1316 41.6365 21.3784 41.7745C23.4754 42.9199 25.9448 43.6733 28.3374 43.1495C29.9337 42.6253 31.3097 41.6381 32.6921 40.7086C37.0704 37.7661 37.0704 37.7661 39.628 38.0001C39.8262 38.0175 39.8262 38.0175 40.0284 38.0352C41.6962 38.2263 42.9834 38.7917 44.3174 39.776C44.581 40.0123 44.581 40.0123 44.753 40.0001C44.7896 39.4612 44.8116 38.9226 44.8311 38.3829C44.8416 38.2314 44.852 38.0798 44.8628 37.9237C44.8875 37.0431 44.8875 37.0431 44.493 36.2809C44.1757 35.9917 43.8571 35.7426 43.503 35.5001C43.3843 35.4158 43.2656 35.3316 43.1433 35.2448C39.5153 32.7359 36.2788 34.5802 33.0856 36.7371ZM33.1176 42.0761C30.4407 43.8741 28.1518 45.0009 24.8355 44.4683C22.7933 44.0521 21.056 43.1343 19.253 42.1251C18.9622 44.2013 18.9622 44.2013 19.543 46.0816C19.9343 46.3663 20.3085 46.5607 20.753 46.7501C20.9523 46.8808 21.1503 47.0135 21.3467 47.1485C23.353 48.306 26.0044 49.0698 28.3037 48.524C28.721 48.3747 29.1073 48.1998 29.503 48.0001C29.7205 47.8903 29.7205 47.8904 29.9424 47.7784C31.1512 47.1402 32.2705 46.3673 33.4018 45.6031C35.7735 44.0112 37.9055 42.9933 40.8233 43.5235C42.1926 43.8275 43.2583 44.3197 44.3677 45.1783C44.5902 45.3876 44.5902 45.3876 44.753 45.3751C45.0111 43.3827 45.0111 43.3827 44.5083 41.5328C44.1502 41.204 43.8056 40.9807 43.378 40.7501C43.2345 40.6581 43.0918 40.5649 42.9497 40.4708C39.3541 38.1624 36.2608 39.9606 33.1176 42.0761ZM33.1176 47.4511C30.4407 49.2491 28.1518 50.3759 24.8355 49.8433C22.9983 49.4688 21.4129 48.7019 19.7856 47.7965C19.6855 47.7408 19.5854 47.6851 19.4823 47.6277C19.4066 47.5856 19.3309 47.5435 19.253 47.5001C19.2442 48.5216 19.2376 49.543 19.2335 50.5645C19.2316 51.039 19.2289 51.5134 19.2247 51.9878C19.2206 52.4466 19.2183 52.9053 19.2174 53.364C19.2167 53.5381 19.2154 53.7123 19.2133 53.8864C19.1932 55.6766 19.5459 57.0955 20.753 58.461C21.585 59.25 22.9254 59.888 24.0678 59.8943C24.2831 59.8959 24.2831 59.8959 24.5027 59.8976C24.6603 59.8981 24.8179 59.8986 24.9802 59.8992C25.1478 59.9002 25.3154 59.9012 25.4829 59.9023C26.0337 59.9056 26.5845 59.9075 27.1353 59.9093C27.3253 59.9099 27.5153 59.9106 27.7053 59.9113C28.4963 59.914 29.2874 59.9163 30.0784 59.9177C31.2095 59.9198 32.3406 59.9239 33.4717 59.931C34.2682 59.9359 35.0647 59.9383 35.8613 59.939C36.3363 59.9394 36.8112 59.9409 37.2862 59.945C37.7341 59.9488 38.1819 59.9495 38.6297 59.9481C38.8701 59.948 39.1105 59.9511 39.3508 59.9542C40.9563 59.9429 42.1988 59.3651 43.3614 58.2828C44.2921 57.3181 44.7522 56.042 44.789 54.7173C44.7934 54.5587 44.7978 54.4001 44.8024 54.2367C44.8167 53.6064 44.8269 52.9761 44.8345 52.3457C44.8402 51.868 44.8487 51.3908 44.8636 50.9133C44.878 50.4499 44.8855 49.9868 44.8883 49.5232C44.8905 49.3476 44.8951 49.1721 44.9022 48.9967C44.932 48.2219 44.9437 47.6193 44.4538 46.992C44.121 46.6672 43.7587 46.392 43.378 46.1251C43.2536 46.0347 43.2536 46.0347 43.1267 45.9425C39.5128 43.4833 36.308 45.3038 33.1176 47.4511Z" fill="#CD3626"/>
<path d="M32.5918 3.04581C33.1505 3.45411 33.5281 3.97087 33.7461 4.62491C33.8525 5.66093 33.8329 6.49486 33.2275 7.3671C32.6843 7.97221 32.0459 8.32117 31.2363 8.4003C30.3392 8.41966 29.7089 8.22726 28.9648 7.72647C28.315 7.06185 28.0412 6.36638 27.9844 5.43936C28.0199 4.48512 28.4308 3.76636 29.1211 3.12491C30.1722 2.37409 31.4876 2.43043 32.5918 3.04581ZM29.7461 4.62491C29.46 5.03358 29.4371 5.38364 29.4961 5.87491C29.7004 6.25431 29.878 6.53535 30.2227 6.79678C30.7535 6.94844 31.2034 6.9435 31.7148 6.73428C32.0767 6.43278 32.2169 6.19534 32.3711 5.74991C32.3594 5.08587 32.2074 4.7252 31.7461 4.24991C31.0373 3.89552 30.27 4.05333 29.7461 4.62491Z" fill="#CD3626"/>
<path d="M27.218 7.72654C27.7644 8.25779 27.9471 8.84466 28.007 9.58738C27.9845 10.4157 27.5772 11.0602 26.9992 11.625C26.3102 12.0303 25.6555 12.11 24.8742 12C24.1001 11.753 23.66 11.3475 23.2404 10.6538C22.9891 10.0507 23.0386 9.38674 23.1242 8.74998C23.4081 8.08247 23.8169 7.53726 24.4992 7.24998C25.4815 6.8774 26.3807 7.17472 27.218 7.72654ZM24.6242 8.99998C24.4751 9.45733 24.4584 9.66248 24.6633 10.1015C24.9312 10.4488 25.0421 10.489 25.4758 10.5469C25.8938 10.5297 25.8938 10.5297 26.2414 10.2422C26.5413 9.88793 26.5413 9.88793 26.507 9.42186C26.4066 9.00451 26.4066 9.00451 26.1633 8.75779C25.584 8.49162 25.0607 8.51497 24.6242 8.99998Z" fill="#CD3626"/>
<path d="M32.3047 11.047C32.778 11.5319 32.9124 11.8703 32.9219 12.547C32.9085 13.174 32.8128 13.5278 32.375 14.0001C31.9125 14.4287 31.5526 14.5376 30.9375 14.5626C30.3224 14.5376 29.9625 14.4287 29.5 14.0001C29.0662 13.4725 28.899 13.0585 28.875 12.3751C28.97 11.6151 29.298 11.2776 29.854 10.7979C30.6274 10.3046 31.6081 10.4938 32.3047 11.047ZM30.5312 12.1563C30.3487 12.3653 30.3487 12.3653 30.3828 12.6329C30.5326 12.9424 30.6855 13.0034 31 13.1251C31.165 12.9601 31.33 12.7951 31.5 12.6251C31.3396 12.3057 31.3396 12.3057 31.125 12.0001C30.7561 11.9638 30.7561 11.9638 30.5312 12.1563Z" fill="#CD3626"/>
</svg>
