<svg width="66" height="64" viewBox="0 0 66 64" fill="none" xmlns="http://www.w3.org/2000/svg">
<path d="M31.5207 3.49198C41.6995 3.32219 52.4718 5.72143 60.0069 12.9632C63.0057 15.9037 64.9922 19.6221 65.0381 23.8803C65.0503 26.0459 64.9307 28.1192 64.5016 30.2497C64.4782 30.367 64.4548 30.4843 64.4306 30.6051C63.4112 35.5571 61.1607 40.1906 58.0016 44.1247C57.9023 44.2498 57.8031 44.3748 57.7008 44.5036C56.2352 46.2949 54.5848 47.979 52.7123 49.3445C52.4951 49.5045 52.2822 49.6693 52.0694 49.8352C47.6356 53.2497 47.6356 53.2497 45.8766 53.2497C45.8688 53.4096 45.8611 53.5694 45.8531 53.7341C45.6825 55.2074 44.6517 56.4628 43.5484 57.3904C39.7566 60.2618 34.6769 60.9545 30.0558 60.3357C27.2597 59.9208 24.5723 59.0895 22.3766 57.2497C22.2736 57.1722 22.1706 57.0947 22.0646 57.0149C21.2901 56.3589 20.5868 55.3418 20.2516 54.3747C20.2467 54.2835 20.2419 54.1923 20.2369 54.0984C20.2167 53.7491 20.1805 53.554 20.0016 53.2497C19.4551 52.8936 18.8747 52.6396 18.2792 52.3764C14.4104 50.6109 10.8482 47.4652 8.25157 44.1247C8.15311 44.002 8.05466 43.8792 7.95323 43.7527C3.13091 37.689 0.183981 29.6176 1.04844 21.8273C1.52853 18.7873 3.17629 15.9769 5.25157 13.7497C5.32472 13.6711 5.39788 13.5925 5.47325 13.5115C11.5319 7.07573 20.4477 4.47312 29.0016 3.62473C29.1098 3.61395 29.2181 3.60318 29.3297 3.59208C30.0599 3.5241 30.7881 3.50639 31.5207 3.49198ZM8.25157 13.2497C8.1362 13.3483 8.02082 13.447 7.90196 13.5486C7.09188 14.2602 6.40621 15.0192 5.75157 15.8747C5.66826 15.9796 5.58496 16.0845 5.49913 16.1926C3.9543 18.2067 3.01227 20.4745 2.75157 22.9997C2.9011 22.943 3.05063 22.8863 3.20469 22.8279C3.99198 22.5621 4.80466 22.4741 5.62657 22.3747C5.73242 22.0572 5.77745 21.825 5.80528 21.4973C5.81446 21.4004 5.82365 21.3034 5.83311 21.2036C5.85152 21.0015 5.86912 20.7994 5.88584 20.5971C5.95936 19.8439 6.10459 19.2644 6.66563 18.7185C7.82055 17.9664 9.20106 18.2412 10.5055 18.384C10.8657 18.4051 10.8657 18.4051 11.0963 18.2453C11.3208 17.8902 11.43 17.5085 11.5484 17.1091C11.9618 15.8049 12.5315 14.5099 13.7486 13.7751C14.8259 13.2247 15.7847 12.8974 16.9918 13.2234C17.5779 13.4309 18.0988 13.6691 18.6266 13.9997C18.6915 13.9153 18.7564 13.8309 18.8233 13.7439C18.9105 13.6324 18.9977 13.5209 19.0875 13.406C19.1731 13.2958 19.2586 13.1856 19.3468 13.072C20.0383 12.2755 20.7777 11.9389 21.8141 11.8279C22.7691 11.9302 23.4754 12.2722 24.2462 12.8366C24.502 13 24.7051 13.0701 25.0016 13.1247C25.4841 12.5997 25.9239 12.0688 26.3219 11.4763C26.9958 10.5048 27.7333 10.0307 28.8766 9.74973C30.1293 9.57101 31.1848 9.89981 32.2208 10.6111C32.4883 10.817 32.7477 11.0273 33.0016 11.2497C33.2969 10.9703 33.5291 10.6724 33.7672 10.3435C34.5077 9.38875 35.4365 8.66122 36.6266 8.37473C37.589 8.26226 38.4558 8.27646 39.2516 8.87473C39.9006 9.4877 40.2244 10.3413 40.2828 11.2199C40.2828 11.6477 40.2737 12.0726 40.2516 12.4997C40.3756 12.4817 40.4997 12.4636 40.6275 12.445C44.3699 11.9227 44.3699 11.9227 45.9708 12.9763C46.8199 13.6815 47.3416 14.5467 47.8766 15.4997C47.9617 15.6458 48.0471 15.7916 48.1329 15.9372C48.3408 16.2905 48.5468 16.6447 48.7516 16.9997C48.9425 16.9727 48.9425 16.9727 49.1373 16.945C53.259 16.3908 53.259 16.3908 55.0328 17.5779C56.1458 18.4947 56.5602 19.6361 56.8766 20.9997C57.0064 21.021 57.1363 21.0423 57.2701 21.0642C58.6444 21.2988 59.8154 21.5447 60.8766 22.4997C60.9591 22.4997 61.0416 22.4997 61.1266 22.4997C61.2099 22.6664 61.2932 22.8331 61.3766 22.9997C61.4771 23.1506 61.4771 23.1506 61.5797 23.3044C61.8447 23.9911 61.8509 24.6484 61.7516 25.3747C61.5934 25.7185 61.5934 25.7185 61.4078 26.031C61.162 26.4397 61.162 26.4397 61.1832 26.8948C61.2723 27.0779 61.3677 27.2582 61.4684 27.4353C61.7718 28.0384 61.8674 28.7169 62.0016 29.3747C62.4239 29.0423 62.542 28.6032 62.6969 28.1091C62.724 28.0248 62.7511 27.9405 62.779 27.8537C63.0905 26.8691 63.3044 25.9053 63.3766 24.8747C63.3867 24.7297 63.3867 24.7297 63.3971 24.5818C63.5313 20.6274 61.6273 17.2185 59.0134 14.4044C53.0926 8.16144 43.4974 5.49489 35.1065 5.24158C34.4309 5.22737 33.7554 5.22538 33.0797 5.22629C32.9759 5.22637 32.872 5.22644 32.7651 5.22652C24.0746 5.24359 14.9451 7.45963 8.25157 13.2497ZM36.2516 10.2497C35.1055 11.0453 34.2749 12.2467 34.0016 13.6247C33.9398 14.2464 33.9152 14.7925 34.1578 15.3747C34.23 15.4572 34.3022 15.5397 34.3766 15.6247C34.4436 15.7021 34.5106 15.7794 34.5797 15.8591C35.0693 16.091 35.4892 16.0189 36.0016 15.8747C37.1955 15.3425 37.9568 14.245 38.4391 13.0622C38.7119 12.2148 38.7529 11.416 38.4938 10.5622C37.8473 9.72814 37.0972 9.79078 36.2516 10.2497ZM27.5016 12.6247C27.3577 12.8352 27.2145 13.0462 27.0719 13.2575C26.1685 14.5438 26.1685 14.5438 25.4068 14.6916C24.3609 14.7438 23.6209 14.4109 22.7648 13.8425C22.2825 13.5312 21.9322 13.4107 21.3736 13.5163C20.8679 13.7382 20.5755 14.1938 20.2516 14.6247C19.4481 15.6409 19.4481 15.6409 18.8766 15.7497C18.0767 15.7497 17.6382 15.5171 16.9991 15.0466C16.5121 14.7085 16.0793 14.7024 15.5016 14.7497C14.675 15.0047 14.0912 15.5312 13.6266 16.2497C13.3828 16.78 13.1902 17.3228 13.0016 17.8747C12.5034 19.2832 12.5034 19.2832 11.8766 19.7497C11.1026 20.0564 10.3901 20.0573 9.57969 19.9372C9.20703 19.8858 8.84563 19.8463 8.47032 19.8279C8.31466 19.8187 8.31466 19.8187 8.15586 19.8093C7.85494 19.8514 7.85494 19.8514 7.65928 20.1208C7.41755 20.7016 7.40479 21.2808 7.36607 21.9035C7.30794 22.6023 7.15375 23.0456 6.75157 23.6247C6.07469 24.0515 5.33753 24.0883 4.55186 24.1716C4.09999 24.2546 3.77603 24.4017 3.37657 24.6247C3.2554 24.6892 3.13422 24.7536 3.00938 24.82C2.71415 25.169 2.71341 25.2275 2.74375 25.6638C3.4647 30.1813 6.32004 33.8283 9.94786 36.487C10.8498 37.1287 11.7923 37.6987 12.7516 38.2497C12.8284 38.2946 12.9053 38.3395 12.9845 38.3857C22.081 43.6601 34.3868 44.3688 44.4386 41.7307C48.7759 40.5276 53.1112 38.8879 56.6266 35.9997C56.7227 35.9221 56.7227 35.9221 56.8208 35.8428C57.8629 34.9994 58.8296 34.0977 59.7516 33.1247C59.8375 33.0419 59.9233 32.9591 60.0118 32.8738C60.477 32.3704 60.5551 31.9466 60.5797 31.2654C60.532 30.1073 60.4391 28.3822 59.6266 27.4997C59.5526 27.5254 59.4786 27.551 59.4024 27.5774C59.3037 27.611 59.2049 27.6447 59.1031 27.6794C59.006 27.7128 58.9088 27.7461 58.8087 27.7805C57.0586 28.3175 55.1134 28.0877 53.4703 27.3435C52.7151 26.9424 52.1966 26.4519 51.7594 25.7185C51.5338 24.9223 51.4762 24.1167 51.8141 23.3435C52.5376 22.1002 53.8378 21.585 55.1266 21.1247C55.0915 20.3009 54.7794 19.7524 54.2516 19.1247C53.5466 18.4958 52.9401 18.3506 52.0172 18.3513C51.9224 18.3511 51.8275 18.351 51.7298 18.3508C51.1437 18.3558 50.5881 18.4055 50.0094 18.5075C49.2072 18.6471 48.4193 18.7472 47.6949 18.3181C47.2472 17.8704 47.0055 17.3573 46.7203 16.7966C45.8584 15.1241 45.8584 15.1241 44.4078 13.9841C42.9752 13.5959 41.0022 13.8299 39.6266 14.3747C39.2198 14.7448 39.0691 15.1184 38.8766 15.6247C38.1859 16.6567 37.0923 17.3791 35.8766 17.6247C35.0846 17.7135 34.3175 17.6769 33.6266 17.2497C32.9565 16.6766 32.4935 16.0064 32.3766 15.1247C32.381 14.9458 32.3888 14.7668 32.399 14.5881C32.5052 13.5029 32.5052 13.5029 32.1349 12.5246C31.8114 12.2632 31.4952 12.0662 31.1266 11.8747C30.9948 11.7911 30.9948 11.7911 30.8605 11.7058C29.5176 10.9082 28.3648 11.4679 27.5016 12.6247ZM53.4547 23.9216C53.2042 24.3263 53.1994 24.53 53.2516 24.9997C53.7349 25.6664 54.4461 26.1338 55.2438 26.3244C56.7947 26.5282 58.3857 26.5448 59.6969 25.5779C60.0372 25.2114 60.1808 24.9954 60.2516 24.4997C60.1013 23.8987 59.787 23.6601 59.2828 23.3435C57.5005 22.301 54.9418 22.4345 53.4547 23.9216ZM61.6266 33.3747C61.4572 33.5621 61.288 33.7497 61.1188 33.9372C61.0147 34.0523 60.9106 34.1673 60.8033 34.2859C60.6302 34.4803 60.4589 34.6766 60.2936 34.8777C58.2089 37.4113 55.0604 39.235 52.1327 40.6278C51.9647 40.7078 51.797 40.7886 51.6297 40.8702C48.2432 42.5146 44.5476 43.459 40.8531 44.0935C40.7094 44.1183 40.5657 44.1432 40.4176 44.1688C37.9716 44.567 35.5312 44.6721 33.0563 44.6638C32.8427 44.6635 32.8427 44.6635 32.6249 44.6631C30.4351 44.6572 28.2936 44.587 26.1266 44.2497C25.9839 44.2283 25.8413 44.2068 25.6943 44.1847C18.0085 43.0017 9.40644 39.9033 4.50157 33.4997C4.34187 33.7473 4.34187 33.7473 4.45927 34.0198C4.52806 34.1861 4.52806 34.1861 4.59825 34.3557C4.64921 34.4793 4.70018 34.6029 4.7527 34.7303C4.80904 34.8631 4.86539 34.9958 4.92344 35.1325C4.981 35.2687 5.03855 35.4048 5.09785 35.545C6.25266 38.2375 7.76939 40.7311 9.62657 42.9997C9.68169 43.0676 9.73682 43.1354 9.79362 43.2052C11.1962 44.921 12.7436 46.5217 14.5016 47.8747C14.6224 47.9727 14.7433 48.0707 14.8678 48.1716C20.7792 52.9264 28.5467 54.9078 36.0374 54.1228C39.8317 53.6799 43.6259 52.7094 47.0029 50.8838C47.2658 50.742 47.5306 50.6041 47.7955 50.466C52.6764 47.8816 56.6525 43.7506 59.3735 38.9746C59.4972 38.7575 59.6231 38.5417 59.7491 38.3259C60.3128 37.3223 60.7638 36.2848 61.1969 35.2185C61.2537 35.0799 61.3105 34.9414 61.369 34.7986C61.4206 34.6684 61.4723 34.5382 61.5255 34.404C61.5722 34.287 61.6188 34.17 61.6669 34.0494C61.7859 33.7356 61.7859 33.7356 61.6266 33.3747ZM22.1266 54.1247C23.0956 56.1048 25.1353 57.1465 27.1266 57.8747C31.2928 59.2403 36.3449 59.2449 40.3219 57.2575C41.7064 56.5355 43.2872 55.6572 43.8766 54.1247C43.1496 54.3042 42.4235 54.4853 41.7013 54.6828C39.023 55.4034 36.2756 55.8095 33.5016 55.8747C33.2961 55.8822 33.2961 55.8822 33.0865 55.8899C29.6484 55.9603 26.3439 55.3131 23.0657 54.3363C22.7545 54.2505 22.4439 54.1841 22.1266 54.1247Z" fill="#CD3626"/>
<path d="M46.7812 25.4918C46.9514 25.6194 46.9514 25.6194 47.125 25.7496C47.2462 25.8347 47.3673 25.9197 47.4922 26.0074C48.4613 26.8366 49.1337 28.2569 49.375 29.4996C49.4638 30.8706 49.3802 32.0243 48.5 33.1246C47.785 33.8518 47.1322 34.1587 46.0938 34.1714C44.9849 34.1537 44.1348 33.783 43.25 33.1246C43.1495 33.0575 43.0489 32.9905 42.9453 32.9214C41.6875 31.7557 41.0304 30.1401 40.9609 28.4449C40.9995 27.2291 41.3799 26.234 42.25 25.3746C43.6628 24.3098 45.36 24.6445 46.7812 25.4918ZM43.125 26.9996C42.6508 27.7899 42.6211 28.5807 42.832 29.4708C43.2403 30.729 43.9142 31.6046 45.0811 32.2374C45.6592 32.5072 45.9654 32.5491 46.5781 32.3589C47.1418 32.0458 47.4214 31.7354 47.625 31.1246C47.7673 29.8258 47.4674 28.6816 46.6641 27.6402C46.0592 27.0089 45.3003 26.4652 44.4062 26.4214C43.8656 26.4644 43.5276 26.6257 43.125 26.9996Z" fill="#CD3626"/>
<path d="M13.7472 22.8744C15.2598 23.8382 16.2133 25.2495 16.6222 26.9994C16.6604 27.3465 16.6699 27.6893 16.6691 28.0384C16.6689 28.1315 16.6687 28.2246 16.6685 28.3205C16.6459 29.3408 16.3714 30.271 15.6222 30.9994C14.5932 31.732 13.76 31.8455 12.4972 31.7494C11.1277 31.4224 10.0754 30.4775 9.24722 29.3744C8.36336 27.911 8.10672 26.2807 8.45376 24.6058C8.78722 23.6756 9.39787 23.0235 10.2707 22.5697C11.4392 22.1114 12.653 22.3158 13.7472 22.8744ZM10.2472 24.8744C9.90334 25.6051 9.94933 26.3505 10.1222 27.1244C10.6096 28.4344 11.3466 29.4071 12.6222 29.9994C13.1457 30.1396 13.4338 30.1416 13.9582 29.9994C14.5421 29.6468 14.7581 29.2539 14.9474 28.6244C15.1321 27.6392 14.7993 26.6481 14.3083 25.7967C13.7849 25.0734 12.929 24.2341 12.0075 24.0858C11.202 24.04 10.7491 24.2346 10.2472 24.8744Z" fill="#CD3626"/>
<path d="M31.3376 28.6871C32.1675 29.1079 32.6857 29.7653 33.0564 30.6089C33.6391 32.4253 33.2415 34.3135 32.4079 35.9761C31.7739 37.0677 30.8565 37.9443 29.6306 38.3262C28.7714 38.4898 27.8906 38.4474 27.1267 37.9996C26.3342 37.387 25.8397 36.6013 25.6267 35.6246C25.5102 34.2427 25.5292 32.8963 26.1267 31.6246C26.1705 31.5267 26.2143 31.4289 26.2595 31.3282C26.8895 30.0659 27.8095 29.1357 29.1267 28.6246C29.8598 28.3802 30.6168 28.4064 31.3376 28.6871ZM28.4236 31.1792C27.5742 32.2065 27.157 33.6017 27.2795 34.9253C27.3975 35.6126 27.6354 36.0083 28.1267 36.4996C28.5154 36.6939 28.822 36.6604 29.2517 36.6246C30.1809 36.1599 30.8956 35.2849 31.2785 34.3267C31.5856 33.3032 31.823 32.1375 31.3767 31.1246C31.1412 30.7578 30.899 30.4482 30.5017 30.2496C29.6074 30.1456 29.0203 30.5669 28.4236 31.1792Z" fill="#CD3626"/>
<path d="M25.2876 16.3207C26.309 16.928 26.838 17.7361 27.1958 18.8504C27.4754 20.3079 27.2556 21.6443 26.4502 22.8944C25.8813 23.6316 25.1688 23.9831 24.2563 24.1175C23.3572 24.1712 22.6706 23.9246 21.9673 23.3675C21.1995 22.6473 20.7847 21.6958 20.7187 20.6556C20.6919 19.594 20.7054 18.6959 21.2485 17.7503C21.2938 17.6686 21.3391 17.587 21.3857 17.5028C22.1901 16.224 23.8931 15.6808 25.2876 16.3207ZM22.6548 18.8519C22.3253 19.692 22.3013 20.4135 22.6235 21.2503C22.9158 21.7845 23.1757 22.1435 23.7485 22.3753C24.3568 22.3627 24.7018 22.1835 25.1235 21.7503C25.6053 20.9695 25.5831 20.1479 25.4985 19.2503C25.2986 18.6611 24.9966 18.2516 24.4985 17.8753C23.5708 17.642 23.1335 18.0826 22.6548 18.8519Z" fill="#CD3626"/>
<path d="M13.6782 33.0707C13.8735 33.3754 13.8735 33.3754 13.8735 33.8207C13.732 34.3073 13.6691 34.3739 13.2485 34.6254C12.4257 34.8965 11.5963 35.1203 10.7485 34.8754C10.4244 34.5513 10.4639 34.3145 10.4531 33.872C10.5145 33.5385 10.5963 33.447 10.8735 33.2504C11.2666 33.1318 11.2666 33.1318 11.7251 33.0395C11.8754 33.0081 12.0258 32.9767 12.1807 32.9443C13.2272 32.7816 13.2272 32.7816 13.6782 33.0707Z" fill="#CD3626"/>
<path d="M36.9419 10.5232C37.3716 10.6248 37.3716 10.6248 37.6216 10.9998C37.7098 11.664 37.4797 12.1026 37.145 12.656C37.1005 12.734 37.0559 12.812 37.01 12.8924C36.7833 13.2783 36.6244 13.4979 36.2466 13.7498C35.8619 13.7257 35.5897 13.6837 35.2622 13.4763C35.0496 13.1338 35.0846 12.8997 35.1216 12.4998C35.2693 12.1783 35.4166 11.8937 35.5981 11.5935C35.6427 11.5155 35.6872 11.4375 35.7331 11.3572C36.0652 10.7917 36.2474 10.4867 36.9419 10.5232Z" fill="#CD3626"/>
<path d="M5.49798 26.0002C5.87298 26.2502 5.87298 26.2502 5.99798 26.6252C6.01651 26.9551 6.02685 27.2796 6.02923 27.6096C6.03181 27.698 6.03439 27.7865 6.03704 27.8776C6.04124 28.4408 5.98529 28.8112 5.62298 29.2502C5.19329 29.383 5.19329 29.383 4.74798 29.3752C4.47357 29.2033 4.47357 29.2033 4.24798 28.8752C4.1769 28.4546 4.18392 28.0428 4.19329 27.6174C4.19241 27.5035 4.19152 27.3897 4.19061 27.2724C4.19857 26.4418 4.19857 26.4418 4.41153 26.1547C4.76014 25.8999 5.08184 25.963 5.49798 26.0002Z" fill="#CD3626"/>
<path d="M22.125 35.75C22.3619 36.0576 22.4917 36.3875 22.625 36.75C22.6766 36.8737 22.7281 36.9975 22.7812 37.125C22.9048 37.6193 22.9252 37.9899 22.875 38.5C22.6797 38.7578 22.6797 38.7578 22.375 38.875C21.9297 38.875 21.9297 38.875 21.5 38.75C21.0065 38.0532 20.625 37.1707 20.625 36.3125C20.9195 35.5761 21.4015 35.5045 22.125 35.75Z" fill="#CD3626"/>
<path d="M56.5996 23.3081C56.7152 23.3075 56.8307 23.3068 56.9497 23.3062C57.0701 23.3081 57.1905 23.31 57.3145 23.312C57.4348 23.3101 57.5552 23.3081 57.6792 23.3062C57.8525 23.3071 57.8525 23.3071 58.0293 23.3081C58.1878 23.309 58.1878 23.309 58.3494 23.3098C58.627 23.3745 58.627 23.3745 58.8528 23.6003C59.0785 24.0152 58.9925 24.3038 58.877 24.7495C58.489 25.0082 58.3996 25.0314 57.959 25.0327C57.8548 25.033 57.7505 25.0334 57.6431 25.0337C57.5346 25.0327 57.4262 25.0318 57.3145 25.0308C57.1518 25.0322 57.1518 25.0322 56.9859 25.0337C56.8816 25.0334 56.7774 25.033 56.6699 25.0327C56.5748 25.0324 56.4796 25.0322 56.3816 25.0319C56.127 24.9995 56.127 24.9995 55.752 24.7495C55.558 24.0013 55.558 24.0013 55.7761 23.6003C56.0632 23.3133 56.1988 23.3102 56.5996 23.3081Z" fill="#CD3626"/>
<path d="M32.9997 39.1248C33.2516 39.5027 33.3189 39.674 33.2409 40.1189C32.9453 40.7698 32.2645 41.3312 31.6149 41.6121C31.2698 41.6796 31.0203 41.6327 30.695 41.5076C30.4584 41.1952 30.3777 40.9351 30.3923 40.5418C30.6357 39.8802 31.3255 39.4075 31.8747 38.9998C32.3514 38.8409 32.5447 38.9311 32.9997 39.1248Z" fill="#CD3626"/>
<path d="M57.7534 31.75C58.0748 31.9495 58.1218 32.1026 58.2295 32.4658C58.2611 33.0071 58.0949 33.2184 57.7847 33.6563C57.6951 33.7858 57.6055 33.9154 57.5132 34.0488C57.2534 34.375 57.2534 34.375 56.8784 34.625C56.0718 34.5684 56.0718 34.5684 55.7534 34.25C55.648 33.6701 55.6674 33.3969 55.9683 32.8828C56.8363 31.6752 56.8363 31.6752 57.7534 31.75Z" fill="#CD3626"/>
<path d="M29.2266 31.2112C29.625 31.2502 29.625 31.2502 29.9219 31.4534C30.1862 31.8397 30.1652 32.0368 30.125 32.5002C29.9697 32.8928 29.9697 32.8928 29.7656 33.2815C29.6989 33.411 29.6322 33.5406 29.5635 33.6741C29.375 34.0002 29.375 34.0002 29.125 34.2502C28.355 34.3202 28.355 34.3202 28.0156 34.094C27.854 33.8425 27.7938 33.6715 27.75 33.3752C27.9458 32.6474 28.381 31.3051 29.2266 31.2112Z" fill="#CD3626"/>
<path d="M39.8596 36.0786C39.9481 36.0772 40.0365 36.0757 40.1277 36.0742C40.6877 36.0774 41.0614 36.1453 41.5002 36.5005C41.6288 36.9035 41.6645 37.1387 41.5237 37.5396C41.3752 37.7505 41.3752 37.7505 41.1252 37.8755C40.8443 37.891 40.5628 37.8975 40.2815 37.8989C40.13 37.9007 39.9786 37.9025 39.8225 37.9043C39.3761 37.8756 39.0357 37.8006 38.6252 37.6255C38.4346 37.2443 38.4708 36.9202 38.5002 36.5005C38.8084 35.9888 39.3255 36.07 39.8596 36.0786Z" fill="#CD3626"/>
<path d="M50.0571 34.5854C50.5024 34.6245 50.5024 34.6245 50.7153 34.7695C51.0925 35.3045 50.9256 36.1586 50.8379 36.7793C50.7557 37.1249 50.6426 37.3572 50.4087 37.6245C50.0119 37.8008 49.787 37.7552 49.3774 37.6245C49.0712 37.3254 49.0048 37.1743 48.9844 36.7422C49.0049 36.5331 49.0049 36.5331 49.0259 36.3198C49.038 36.1808 49.05 36.0417 49.0625 35.8984C49.1752 35.206 49.2871 34.6554 50.0571 34.5854Z" fill="#CD3626"/>
<path d="M29.5008 12.7499C29.8289 13.0077 29.8289 13.0077 30.1258 13.3749C30.1842 13.4441 30.2427 13.5134 30.303 13.5848C30.5899 13.9464 30.7397 14.1874 30.8211 14.6483C30.7321 15.0931 30.6246 15.2441 30.2508 15.4999C29.8904 15.5462 29.8904 15.5462 29.5008 15.4999C29.2176 15.2669 29.2176 15.2669 28.9695 14.9608C28.8864 14.8607 28.8032 14.7607 28.7176 14.6576C28.2958 14.1075 28.1884 13.8233 28.2508 13.1249C28.5289 12.6177 28.9754 12.6774 29.5008 12.7499Z" fill="#CD3626"/>
<path d="M38.2109 17.656C38.6039 17.6632 38.7202 17.7198 39.0015 18.0027C39.7862 19.0983 39.7862 19.0983 39.875 19.7498C39.7031 20.1716 39.7031 20.1716 39.5 20.4998C38.8778 20.598 38.8778 20.598 38.5 20.4998C38.0179 20.055 37.6238 19.4831 37.375 18.8748C37.4484 17.8111 37.4484 17.8111 38.2109 17.656Z" fill="#CD3626"/>
<path d="M35.122 22.8754C35.3992 23.0762 35.4862 23.185 35.5424 23.5253C35.5074 25.24 35.5074 25.24 34.997 25.7504C34.1339 25.8189 34.1339 25.8189 33.747 25.6254C33.4229 24.9773 33.6402 24.1761 33.7807 23.4979C34.0302 22.8215 34.4502 22.8034 35.122 22.8754Z" fill="#CD3626"/>
<path d="M19.3762 25.6929C19.6228 25.7505 19.6228 25.7505 19.843 25.9531C20.0492 26.3492 20.0221 26.6128 19.9822 27.0552C19.9715 27.1942 19.9609 27.3333 19.9499 27.4766C19.8682 27.8993 19.7571 28.1585 19.4978 28.5005C19.0948 28.6291 18.8596 28.6648 18.4587 28.5239C18.2478 28.3755 18.2478 28.3755 18.1228 28.1255C18.0562 27.3791 18.148 26.7123 18.3728 26.0005C18.6953 25.678 18.9356 25.711 19.3762 25.6929Z" fill="#CD3626"/>
<path d="M48.749 22.0629C49.0938 22.0832 49.2175 22.1018 49.499 22.3129C49.7854 23.029 49.6157 23.7805 49.4775 24.5151C49.374 24.7504 49.374 24.7504 49.1382 24.9086C48.7557 25.0416 48.5086 24.99 48.124 24.8754C47.8028 24.5683 47.7509 24.4103 47.7266 23.9614C47.7391 23.8093 47.7517 23.6572 47.7646 23.5004C47.7753 23.3483 47.7859 23.1962 47.7969 23.0395C47.9103 22.4309 48.0879 22.0529 48.749 22.0629Z" fill="#CD3626"/>
<path d="M45.1282 16.375C45.3782 16.625 45.3782 16.625 45.4641 17.0625C45.4503 17.7472 45.0084 18.1495 44.5725 18.6368C44.1812 18.9288 43.9811 18.9394 43.5032 18.875C43.2063 18.6719 43.2063 18.6719 43.0032 18.375C42.9463 17.909 42.9653 17.6868 43.2131 17.2828C43.349 17.1235 43.349 17.1235 43.4875 16.961C43.5775 16.8532 43.6674 16.7454 43.76 16.6343C44.2091 16.1554 44.5048 16.2526 45.1282 16.375Z" fill="#CD3626"/>
<path d="M16.7537 16.3747C17.0584 16.57 17.0584 16.57 17.2537 16.8747C17.2686 17.633 16.9255 18.2623 16.5037 18.8747C16.1225 19.0653 15.7984 19.0291 15.3787 18.9997C15.1365 18.8669 15.1365 18.8669 15.0037 18.6247C14.8622 17.8545 15.1706 17.3856 15.5652 16.7546C15.8967 16.3062 16.219 16.3212 16.7537 16.3747Z" fill="#CD3626"/>
<path d="M11.6298 24.7422C12.0901 24.9087 12.2298 25.0946 12.497 25.5C12.5691 25.6005 12.6413 25.7011 12.7157 25.8047C12.9103 26.2036 12.9466 26.4367 12.872 26.875C12.6063 27.1797 12.6063 27.1797 12.247 27.375C11.8641 27.3828 11.8641 27.3828 11.497 27.25C11.2235 26.9688 11.2235 26.9688 10.997 26.625C10.9248 26.5245 10.8526 26.4239 10.7782 26.3203C10.5836 25.9214 10.5474 25.6883 10.622 25.25C10.9524 24.871 11.1237 24.7525 11.6298 24.7422Z" fill="#CD3626"/>
<path d="M29.2527 23.5078C29.4507 23.8915 29.423 24.2021 29.3777 24.6249C28.9998 25.1085 28.4591 25.2506 27.8777 25.3749C27.0902 25.3374 27.0902 25.3374 26.7527 24.9999C26.6993 24.5199 26.6732 24.238 26.9558 23.8359C27.5898 23.3854 28.5246 23.121 29.2527 23.5078Z" fill="#CD3626"/>
<path d="M45.0007 26.9998C45.5633 27.3573 46.0323 27.7834 46.2976 28.3982C46.2507 28.7498 46.2507 28.7498 46.0007 29.117C45.6257 29.3748 45.6257 29.3748 45.2038 29.4061C44.5997 29.1977 44.2519 28.8866 43.8757 28.3748C43.7195 27.9842 43.7195 27.9842 43.7507 27.6248C44.126 27.1171 44.3697 26.9132 45.0007 26.9998Z" fill="#CD3626"/>
</svg>
