<svg width="65" height="65" viewBox="0 0 65 65" fill="none" xmlns="http://www.w3.org/2000/svg">
<path d="M4.0625 28.4375H60.9375V32.5L58.9062 34.5312L53.8281 36.5625L51.7969 41.6406L54.8438 47.7344L60.9375 49.7656V54.8438H4.0625V28.4375Z" stroke="#CD3626" stroke-width="2.03125"/>
<path d="M18.0781 28.3638H4.0625V54.77H61.3438V49.6919" stroke="#CD3626" stroke-width="4.0625" stroke-linecap="round" stroke-linejoin="round"/>
<path d="M61.3438 34.4573V28.3635H17.4688" stroke="#CD3626" stroke-width="4.0625" stroke-linecap="round" stroke-linejoin="round"/>
<path d="M61.3438 28.3637L31.8906 14.3481C27.8557 12.2973 23.2423 11.6828 18.8112 12.6059C14.3801 13.5291 10.396 15.9347 7.51565 19.4262C5.36528 21.9162 4.14488 25.0748 4.0625 28.3637" stroke="#CD3626" stroke-width="4.0625" stroke-linecap="round" stroke-linejoin="round"/>
<path d="M20.5156 48.6763C24.1055 48.6763 27.0157 45.7661 27.0157 42.1763C27.0157 38.5864 24.1055 35.6763 20.5156 35.6763C16.9258 35.6763 14.0156 38.5864 14.0156 42.1763C14.0156 45.7661 16.9258 48.6763 20.5156 48.6763Z" stroke="#CD3626" stroke-width="4.0625" stroke-linecap="round" stroke-linejoin="round"/>
<path d="M40.625 46.4416C42.9809 46.4416 44.8906 44.5318 44.8906 42.176C44.8906 39.8202 42.9809 37.9104 40.625 37.9104C38.2692 37.9104 36.3594 39.8202 36.3594 42.176C36.3594 44.5318 38.2692 46.4416 40.625 46.4416Z" stroke="#CD3626" stroke-width="4.0625" stroke-miterlimit="10"/>
<path d="M61.3496 49.6916C60.2451 49.8726 59.1145 49.8112 58.0361 49.5117C56.9577 49.2122 55.9573 48.6818 55.1043 47.9572C54.2513 47.2326 53.5661 46.3311 53.0962 45.3153C52.6263 44.2995 52.3828 43.1937 52.3828 42.0745C52.3828 40.9552 52.6263 39.8494 53.0962 38.8336C53.5661 37.8178 54.2513 36.9164 55.1043 36.1918C55.9573 35.4672 56.9577 34.9367 58.0361 34.6372C59.1145 34.3377 60.2451 34.2763 61.3496 34.4573" stroke="#CD3626" stroke-width="4.0625" stroke-linecap="round" stroke-linejoin="round"/>
</svg>
