<svg width="65" height="64" viewBox="0 0 65 64" fill="none" xmlns="http://www.w3.org/2000/svg">
<path d="M41.1899 4.99995C41.6189 5.22643 41.6189 5.22643 42.0771 5.16938C42.1582 5.1212 42.2392 5.07302 42.3228 5.02338C43.2567 4.48149 44.3729 4.47466 45.418 4.70161C46.4688 5.07607 47.2916 5.77262 47.8149 6.75776C48.0405 7.2592 48.1542 7.70264 48.1899 8.24995C48.3085 8.2551 48.4271 8.26026 48.5493 8.26557C49.4136 8.39354 50.1918 8.91526 50.7368 9.58588C51.3865 10.5549 51.6914 11.5867 51.5649 12.7499C51.5269 12.9175 51.4863 13.0845 51.4399 13.2499C51.6024 13.2757 51.7648 13.3015 51.9321 13.3281C52.9887 13.5656 53.8371 14.2352 54.4399 15.1249C54.9219 16.0076 54.9995 16.886 54.9399 17.8749C54.8987 17.9574 54.8574 18.0399 54.8149 18.1249C54.9073 18.1191 54.9996 18.1133 55.0947 18.1074C56.6643 18.0515 57.9331 18.5585 59.085 19.6249C60.1651 20.7555 60.6053 22.0752 60.729 23.6093C60.6788 25.0782 60.0918 26.4794 59.0884 27.5468C58.5883 28.0126 58.057 28.3367 57.4399 28.6249C57.3634 28.6635 57.2869 28.702 57.208 28.7416C56.5228 29.047 55.8289 29.0596 55.0864 29.0864C54.4405 29.1492 54.1195 29.4142 53.6689 29.867C53.5654 29.9704 53.4619 30.0737 53.3553 30.1803C53.2422 30.2945 53.1292 30.4087 53.0127 30.5263C52.8909 30.6484 52.7691 30.7705 52.6472 30.8925C52.3122 31.2282 51.9779 31.5646 51.6438 31.9012C51.2834 32.264 50.9223 32.626 50.5612 32.9882C49.9354 33.6159 49.3101 34.2441 48.685 34.8725C47.6968 35.866 46.7074 36.8582 45.7178 37.8502C45.3793 38.1896 45.0407 38.529 44.7022 38.8685C44.6176 38.9533 44.533 39.0381 44.4458 39.1255C43.4826 40.0913 42.5197 41.0573 41.5569 42.0235C41.4688 42.1118 41.3808 42.2002 41.2901 42.2912C39.8641 43.7222 38.4388 45.154 37.0137 46.5859C35.5505 48.0561 34.086 49.525 32.6206 50.993C31.7168 51.8984 30.814 52.8048 29.9125 53.7125C29.2944 54.3347 28.6752 54.9557 28.0551 55.5759C27.6974 55.9336 27.3403 56.2918 26.9846 56.6515C26.6586 56.981 26.3312 57.309 26.0026 57.6359C25.8284 57.81 25.6558 57.9856 25.4832 58.1612C24.623 59.0125 23.8189 59.5717 22.5728 59.5703C22.435 59.573 22.2972 59.5757 22.1553 59.5786C20.7204 59.3362 19.8051 58.3292 18.8257 57.3396C18.6676 57.1822 18.5094 57.0248 18.351 56.8676C17.9238 56.4427 17.4985 56.0158 17.0736 55.5884C16.6275 55.1403 16.1799 54.6938 15.7325 54.247C14.9818 53.4969 14.2324 52.7455 13.4838 51.9934C12.6193 51.1249 11.7529 50.2585 10.8854 49.3931C10.0491 48.5589 9.21432 47.7232 8.38014 46.8869C8.02585 46.5318 7.67107 46.1771 7.31588 45.8229C6.89755 45.4055 6.48049 44.9869 6.06435 44.5673C5.9118 44.4139 5.75883 44.2609 5.6054 44.1084C4.58258 43.0909 3.75708 42.2404 3.67969 40.7241C3.73808 38.7361 5.65429 37.3931 6.96759 36.0851C7.14493 35.908 7.32225 35.7309 7.49953 35.5537C7.87912 35.1745 8.25889 34.7955 8.63882 34.4167C9.24019 33.817 9.84106 33.2169 10.4419 32.6166C11.7169 31.343 12.9925 30.0699 14.2681 28.7968C15.6464 27.4213 17.0246 26.0457 18.4021 24.6694C18.9988 24.0733 19.5958 23.4776 20.1931 22.8821C20.5649 22.5111 20.9365 22.14 21.308 21.7687C21.4797 21.5973 21.6515 21.426 21.8233 21.2548C22.9381 20.1455 22.9381 20.1455 23.99 18.9773C24.393 18.5191 24.8344 18.0981 25.2701 17.6714C25.4863 17.4586 25.7024 17.2458 25.9185 17.0329C26.0318 16.9215 26.1451 16.8101 26.2618 16.6954C26.6186 16.3443 26.9747 15.9924 27.3304 15.6402C27.3907 15.5804 27.4511 15.5207 27.5132 15.4591C27.6365 15.3371 27.7598 15.215 27.883 15.0929C28.7095 14.2744 29.5365 13.4563 30.3668 12.6416C30.9291 12.0899 31.4896 11.5364 32.0481 10.9808C32.3429 10.6877 32.6387 10.3959 32.9362 10.1056C33.268 9.7817 33.5965 9.45477 33.9244 9.12699C34.0222 9.03298 34.12 8.93898 34.2208 8.84212C34.8079 8.2472 35.0746 7.76245 35.235 6.93875C35.4548 6.07555 36.2261 5.36772 36.9399 4.87495C38.2476 4.16166 39.9015 4.34738 41.1899 4.99995ZM36.875 6.40717C36.5672 6.76933 36.2904 7.15535 36.1899 7.62495C36.3242 8.09365 36.5744 8.50274 36.8112 8.92707C37.8068 10.7225 38.5084 12.6515 39.0649 14.6249C39.5298 14.47 39.6002 14.3167 39.8701 13.915C39.9528 13.7921 40.0356 13.6692 40.1208 13.5426C40.2081 13.41 40.2953 13.2773 40.3853 13.1406C40.4745 13.0057 40.5637 12.8709 40.6556 12.7319C41.1985 11.8998 41.7109 11.0586 42.1743 10.1796C42.224 10.0855 42.2738 9.99131 42.325 9.89429C42.5996 9.35515 42.7934 8.83708 42.9399 8.24995C43.2287 8.2912 43.5174 8.33245 43.8149 8.37495C43.889 9.10828 43.6379 9.60925 43.3228 10.2499C43.2728 10.3538 43.2229 10.4576 43.1714 10.5646C42.7635 11.3938 42.2919 12.1639 41.7715 12.9262C41.5425 13.2211 41.5425 13.2211 41.5649 13.4999C41.6887 13.4793 41.8124 13.4587 41.9399 13.4374C43.9269 13.2018 45.5418 13.4338 47.2847 14.4785C47.5676 14.6539 47.5676 14.6539 47.9399 14.6249C48.1285 14.4813 48.1285 14.4813 48.3149 14.289C48.7899 13.8557 49.2982 13.6462 49.8955 13.4213C50.2699 13.2034 50.3284 13.037 50.4399 12.6249C50.5215 11.8094 50.3832 11.1954 49.9399 10.4999C49.178 9.61074 48.3043 9.33961 47.1899 9.12495C47.1791 9.02827 47.1684 8.93159 47.1572 8.83198C47.0132 7.76407 46.7569 6.99826 45.9478 6.26557C45.1603 5.71916 44.3793 5.64053 43.4399 5.74995C42.8126 5.95552 42.3098 6.31692 41.8149 6.74995C41.3772 6.59103 41.038 6.40376 40.6665 6.12495C39.404 5.27424 37.9961 5.33664 36.875 6.40717ZM35.5649 9.12495C31.6999 12.9757 27.8365 16.8281 23.9753 20.6827C23.5195 21.1377 23.0637 21.5926 22.6079 22.0476C22.5172 22.1382 22.4265 22.2288 22.333 22.3221C20.8634 23.789 19.3927 25.2548 17.9215 26.7201C16.4122 28.2236 14.9041 29.7282 13.3971 31.234C12.467 32.1632 11.5361 33.0915 10.6039 34.0186C9.96489 34.6543 9.32704 35.2911 8.6901 35.9289C8.32249 36.2969 7.9544 36.6643 7.58492 37.0305C7.24654 37.3658 6.90963 37.7026 6.57384 38.0405C6.39472 38.22 6.21407 38.398 6.03336 38.5759C5.38857 39.2282 4.84094 39.8023 4.805 40.7666C4.83229 41.4288 5.10482 41.9107 5.56494 42.3749C9.69044 44.9824 15.9565 44.9556 20.5246 43.926C26.6134 42.4436 31.9697 38.7065 35.2788 33.3564C38.607 27.8307 39.6673 21.447 38.13 15.1657C37.7083 13.5238 37.1192 11.9747 36.4087 10.4374C36.3675 10.3483 36.3264 10.2592 36.284 10.1674C36.0863 9.75451 35.8992 9.43593 35.5649 9.12495ZM40.1899 15.4999C40.0585 15.5824 39.927 15.6649 39.7915 15.7499C39.4304 16.3477 39.5746 16.9325 39.6579 17.6056C39.8141 18.9178 39.8302 20.2116 39.8228 21.5312C39.8202 22.1809 39.8176 22.8306 39.8149 23.4999C41.4237 23.4999 43.0324 23.4999 44.6899 23.4999C44.5662 23.0462 44.4424 22.5924 44.3149 22.1249C44.2458 21.1937 44.3812 20.4768 44.6899 19.6015C44.7485 19.4313 44.7485 19.4313 44.8083 19.2577C45.2993 17.8797 45.9076 16.558 46.9399 15.4999C44.696 14.0247 42.4274 13.974 40.1899 15.4999ZM49.4399 14.7499C49.4399 14.7912 49.4399 14.8324 49.4399 14.8749C49.5247 14.8843 49.6095 14.8936 49.6968 14.9033C50.8174 15.0616 51.7488 15.4402 52.4868 16.3281C52.9115 16.9483 53.1118 17.6578 53.3149 18.3749C53.721 18.1597 53.721 18.1597 53.8149 17.7499C53.8802 16.7877 53.7052 16.0542 53.1118 15.2812C52.5951 14.725 51.9968 14.4331 51.2456 14.332C50.5507 14.3066 50.054 14.4296 49.4399 14.7499ZM47.1743 16.8749C46.4588 17.7915 46.0408 18.8866 45.6431 19.9687C45.6102 20.0558 45.5773 20.1428 45.5435 20.2326C45.2882 20.9565 45.1907 21.6019 45.4253 22.3535C45.5022 22.5033 45.5022 22.5033 45.5806 22.6562C45.6299 22.7574 45.6792 22.8586 45.73 22.9628C46.3086 23.7541 47.1445 23.8987 48.0493 24.0937C48.1711 24.1212 48.2929 24.1488 48.4185 24.1772C48.717 24.2445 49.0158 24.3104 49.3149 24.3749C49.3613 22.9557 48.8197 21.6838 48.0649 20.4999C47.9824 20.4174 47.8999 20.3349 47.8149 20.2499C47.7993 19.8593 47.7993 19.8593 47.8149 19.4999C48.4087 19.3749 48.4087 19.3749 48.6899 19.3749C48.7238 19.4663 48.7576 19.5577 48.7925 19.6518C48.9347 19.9875 49.1004 20.2656 49.2993 20.5703C49.9214 21.5899 50.2075 22.7126 50.4399 23.8749C50.8776 23.7126 51.2514 23.5184 51.6431 23.2656C53.371 22.2176 55.0992 22.0512 57.0649 22.2499C57.0703 22.4999 57.07 22.75 57.0649 22.9999C57.0237 23.0412 56.9824 23.0824 56.9399 23.1249C56.7029 23.1242 56.4659 23.1179 56.229 23.1093C54.5039 23.1056 52.5666 23.5825 51.2573 24.7817C51.1938 24.8537 51.1304 24.9257 51.0649 24.9999C51.1353 25.0288 51.2057 25.0576 51.2781 25.0873C53.6468 26.0644 53.6468 26.0644 54.7134 26.6484C54.8492 26.7223 54.9851 26.7963 55.125 26.8725C55.5035 27.1759 55.5825 27.4089 55.6899 27.8749C56.9334 27.7713 57.859 27.1729 58.6899 26.2499C58.9516 25.8499 59.1437 25.4456 59.3149 24.9999C59.347 24.9178 59.3791 24.8356 59.4121 24.7509C59.7365 23.729 59.5695 22.5811 59.0928 21.6362C58.4606 20.5556 57.6622 19.7136 56.4468 19.3164C55.3249 19.0263 54.2317 19.0987 53.1899 19.6249C52.8993 19.6734 52.6076 19.7162 52.3149 19.7499C52.3117 19.6442 52.3085 19.5385 52.3052 19.4296C52.2506 18.3384 52.1059 17.6196 51.4009 16.7812C50.5718 16.0871 50.0468 15.9139 48.9595 15.9526C48.2031 16.0434 47.6961 16.3263 47.1743 16.8749ZM39.6899 24.6249C39.5394 25.1302 39.4058 25.6357 39.2866 26.1494C37.7939 32.5346 34.1025 38.214 28.4737 41.714C25.5257 43.4843 22.3391 44.7087 18.9399 45.2499C18.4953 49.012 18.9827 52.7492 20.2603 56.3046C20.3129 56.4523 20.3129 56.4523 20.3666 56.6029C20.6262 57.293 20.8999 57.8234 21.5493 58.2187C22.1353 58.4531 22.5645 58.5679 23.1743 58.3749C24.2672 57.9003 25.1038 56.8538 25.9301 56.0248C26.0526 55.9023 26.1752 55.7799 26.2978 55.6575C26.6321 55.3234 26.9661 54.9889 27.3 54.6544C27.6611 54.2928 28.0225 53.9316 28.3838 53.5703C29.0091 52.9451 29.6341 52.3197 30.259 51.6942C31.1624 50.7897 32.0662 49.8856 32.97 48.9816C34.4366 47.5147 35.903 46.0475 37.3691 44.5802C38.793 43.1552 40.217 41.7303 41.6411 40.3056C41.729 40.2178 41.8168 40.1299 41.9073 40.0393C42.3481 39.5984 42.7889 39.1575 43.2296 38.7166C46.8835 35.0614 50.5368 31.4058 54.1899 27.7499C51.0943 25.2398 46.2882 24.472 42.4243 24.4843C42.2714 24.4838 42.1185 24.4834 41.9609 24.4829C41.1921 24.4837 40.4498 24.5056 39.6899 24.6249ZM7.81494 44.4999C8.37297 45.1683 8.96254 45.7898 9.57953 46.4037C9.67839 46.5026 9.77726 46.6015 9.87912 46.7034C10.2035 47.0276 10.5282 47.3514 10.853 47.6752C11.079 47.901 11.3049 48.1267 11.5308 48.3525C12.0631 48.8844 12.5957 49.416 13.1285 49.9475C13.7354 50.553 14.342 51.1589 14.9486 51.7649C16.1953 53.0103 17.4425 54.2553 18.6899 55.4999C18.8484 55.1831 18.7948 55.0892 18.7036 54.7524C18.6635 54.5984 18.6635 54.5984 18.6227 54.4413C18.5933 54.3291 18.5639 54.217 18.5337 54.1015C17.8277 51.2281 17.7641 48.4406 17.8149 45.4999C17.7106 45.5013 17.6064 45.5026 17.4989 45.5039C14.5183 45.5363 11.7693 45.3683 8.85608 44.6898C8.51093 44.6129 8.16468 44.552 7.81494 44.4999Z" fill="#CD3626"/>
<path d="M42.2656 28.5862C42.9383 28.5958 43.2808 28.7105 43.8125 29.1252C44.3089 29.7489 44.3923 30.2599 44.3608 31.052C44.27 31.6597 43.9466 31.9835 43.5391 32.4143C43.0592 32.7022 42.6138 32.7262 42.0625 32.7502C41.8125 32.3752 41.8125 32.3752 41.7969 32.0706C41.9928 31.6242 42.2743 31.5453 42.7109 31.3621C42.9604 31.2673 42.9604 31.2673 43.0625 31.0002C43.1094 30.495 43.1094 30.495 42.9375 30.0315C42.5479 29.788 42.1346 29.7262 41.6875 29.6252C41.5625 29.5002 41.5625 29.5002 41.5469 29.1252C41.5711 28.5443 41.733 28.6015 42.2656 28.5862Z" fill="#CD3626"/>
<path d="M32.2578 22.1403C32.5625 22.2497 32.5625 22.2497 32.8125 22.6247C32.8978 23.3124 32.9031 23.9295 32.6094 24.5622C32.038 25.1636 31.5425 25.455 30.7173 25.5119C30.0952 25.4847 29.6763 25.2162 29.2031 24.8356C28.9035 24.4567 28.8232 24.23 28.8125 23.7497C29.0625 23.4997 29.0625 23.4997 29.4219 23.445C29.9373 23.5171 30.0074 23.7211 30.3125 24.1247C30.6789 24.2621 30.8506 24.281 31.2188 24.1481C31.4563 24.0129 31.4563 24.0129 31.5625 23.7497C31.5614 23.4326 31.5461 23.1176 31.5303 22.8009C31.5625 22.4997 31.5625 22.4997 31.731 22.2716C31.9375 22.1247 31.9375 22.1247 32.2578 22.1403Z" fill="#CD3626"/>
<path d="M35.7773 39.4334C36.4019 39.5789 36.7294 39.8905 37.1094 40.3905C37.3961 40.952 37.4094 41.5095 37.3125 42.1249C37.0882 42.7876 36.6813 43.1844 36.0625 43.4999C35.3068 43.692 35.3068 43.692 34.9375 43.4842C34.8125 43.2499 34.8125 43.2499 34.7891 42.9452C34.994 42.5029 35.2736 42.4202 35.7109 42.2367C35.9604 42.1419 35.9604 42.1419 36.0625 41.8749C36.1211 41.365 36.1211 41.365 35.9053 40.9261C35.6661 40.7325 35.4627 40.6444 35.1719 40.5467C34.6979 40.3853 34.6979 40.3853 34.5625 40.2499C34.5312 39.9452 34.5312 39.9452 34.5625 39.6249C35.032 39.3118 35.239 39.3565 35.7773 39.4334Z" fill="#CD3626"/>
<path d="M22.3101 48C22.6929 47.9688 22.6929 47.9688 23.0601 48C23.2532 48.1931 23.2088 48.3963 23.2241 48.6641C23.2659 49.0551 23.3021 49.2371 23.5132 49.5781C23.815 49.7828 23.815 49.7828 24.2397 49.7734C24.7799 49.5934 24.8734 49.4048 25.1611 48.9414C25.3101 48.75 25.3101 48.75 25.646 48.6797C25.9351 48.75 25.9351 48.75 26.1851 49C26.1851 49.6985 25.9743 50.0795 25.5098 50.5693C25.0144 51.0174 24.4897 51.0556 23.8447 51.0396C23.2232 50.9532 22.8122 50.6372 22.3882 50.1797C22.1079 49.7593 22.0407 49.4323 22.0366 48.9375C22.0348 48.8408 22.0331 48.7441 22.0312 48.6445C22.0601 48.375 22.0601 48.375 22.3101 48Z" fill="#CD3626"/>
<path d="M21.3138 32.75C21.4388 32.875 21.4388 32.875 21.4856 33.1719C21.4702 33.2802 21.4547 33.3885 21.4388 33.5C21.1653 33.7032 21.1653 33.7032 20.8138 33.875C20.3309 34.1068 20.3309 34.1068 20.0638 34.5469C20.0638 34.9934 20.1449 35.1616 20.4388 35.5C20.6954 35.6245 20.949 35.7171 21.221 35.8028C21.4388 35.875 21.4388 35.875 21.5638 36C21.595 36.3047 21.595 36.3047 21.5638 36.625C21.0994 36.9346 20.8922 36.9083 20.3577 36.8326C19.7584 36.6643 19.363 36.2914 19.0472 35.7632C18.7732 35.1376 18.7792 34.6595 18.9388 34C19.2878 33.3279 19.7395 32.927 20.4466 32.6485C20.7582 32.6183 21.0128 32.6687 21.3138 32.75Z" fill="#CD3626"/>
</svg>
