<svg width="64" height="64" viewBox="0 0 64 64" fill="none" xmlns="http://www.w3.org/2000/svg">
<g clip-path="url(#clip0_2395_12124)">
<path d="M22.6626 -0.0302334C22.7666 -0.0312424 22.8707 -0.0322513 22.9779 -0.0332909C23.1987 -0.035023 23.4195 -0.0363624 23.6403 -0.037344C23.9778 -0.0394936 24.3151 -0.0449771 24.6526 -0.0504971C24.8668 -0.051763 25.0811 -0.0528275 25.2954 -0.0536709C25.3963 -0.0558594 25.4972 -0.0580479 25.6012 -0.0603027C26.0314 -0.0586407 26.3088 -0.0544676 26.6558 0.212985C26.9228 0.555989 26.9408 0.713437 26.939 1.14337C26.9397 1.27343 26.9404 1.40348 26.9411 1.53748C26.9393 1.67945 26.9375 1.82142 26.9356 1.96769C26.9357 2.11773 26.9358 2.26776 26.9359 2.42234C26.9356 2.83323 26.9331 3.24404 26.9296 3.65491C26.9264 4.08449 26.9262 4.51406 26.9256 4.94365C26.924 5.75689 26.9199 6.5701 26.9149 7.38332C26.9093 8.30925 26.9065 9.23517 26.904 10.1611C26.8988 12.0656 26.8896 13.9701 26.8789 15.8746C28.0339 15.8746 29.1889 15.8746 30.3789 15.8746C30.312 15.5737 30.2452 15.2729 30.1763 14.963C28.2444 6.26922 28.2444 6.26922 28.1877 6.0131C28.1459 5.82581 28.1034 5.63868 28.0604 5.45167C28.0378 5.35301 28.0153 5.25436 27.9921 5.15272C27.9716 5.06373 27.951 4.97475 27.9299 4.88307C27.7828 4.13764 27.8647 3.54391 28.1841 2.85697C29.4213 1.38099 32.4902 0.998464 34.2851 0.780802C34.4828 0.766803 34.6808 0.756703 34.8789 0.749552C35.085 0.742059 35.085 0.742059 35.2954 0.734415C38.9909 0.66863 43.3205 1.67522 46.0947 4.27983C46.2816 4.5378 46.3309 4.70648 46.3554 5.02299C46.2539 5.49955 46.2539 5.49955 45.9961 5.81986C45.509 6.05823 45.2799 5.99669 44.7539 5.87455C44.4225 5.70873 44.1222 5.50503 43.8164 5.29643C40.508 3.14854 36.6993 2.39471 32.8122 3.17777C31.8695 3.39723 30.8711 3.69092 30.0039 4.12455C30.2514 5.4858 30.2514 5.4858 30.5039 6.87455C31.076 6.7572 31.076 6.7572 31.6479 6.63899C35.0904 5.94173 38.8475 6.08128 41.8662 7.97709C43.7581 9.29887 45.8355 11.2879 46.8789 13.3746C47.4483 13.1764 47.9182 12.8758 48.4179 12.5464C48.4986 12.4939 48.5792 12.4414 48.6623 12.3872C48.8598 12.2585 49.0569 12.1291 49.2539 11.9996C48.9416 11.0053 48.4136 10.1652 47.8426 9.30235C47.5034 8.77368 47.2649 8.40052 47.3789 7.74955C47.6859 7.33421 47.8696 7.15253 48.3789 7.04643C48.9965 7.17509 49.2908 7.63053 49.6552 8.12309C50.1656 8.9071 50.6255 9.69338 51.0117 10.5464C51.0491 10.6266 51.0864 10.7067 51.1249 10.7893C51.4347 11.5073 51.5001 12.1431 51.2461 12.8902C50.6081 13.8369 49.5249 14.4275 48.5898 15.0464C48.4514 15.1393 48.3129 15.2323 48.1745 15.3252C47.9786 15.4555 47.9786 15.4555 47.7788 15.5884C47.6006 15.7069 47.6006 15.7069 47.4188 15.8279C47.1289 15.9996 47.1289 15.9996 46.8789 15.9996C46.9691 16.0872 47.0593 16.1749 47.1523 16.2652C47.8863 17.0055 48.3739 17.602 48.4179 18.6714C48.3886 19.643 48.0315 20.3281 47.3755 21.0371C46.9008 21.446 46.3839 21.6246 45.7539 21.6246C45.7648 21.9997 45.7782 22.3745 45.7929 22.7496C45.7958 22.8544 45.7986 22.9593 45.8015 23.0674C45.8443 24.0722 46.0487 24.8765 46.7539 25.6246C46.9548 25.797 47.1607 25.9638 47.3711 26.1246C48.5512 27.0503 49.2968 27.8972 49.6289 29.3746C49.676 29.7958 49.6797 30.2111 49.6765 30.6347C49.6771 30.7552 49.6777 30.8757 49.6783 30.9998C49.6798 31.4001 49.6786 31.8003 49.6774 32.2007C49.6779 32.489 49.6786 32.7774 49.6794 33.0658C49.6811 33.8468 49.6804 34.6278 49.6792 35.4088C49.6783 36.2276 49.6792 37.0463 49.6798 37.8651C49.6806 39.3281 49.6793 40.7912 49.6774 42.2542C49.6757 43.5782 49.676 44.9023 49.6778 46.2263C49.6798 47.7668 49.6805 49.3073 49.6794 50.8478C49.6788 51.6622 49.6787 52.4765 49.68 53.2909C49.6811 54.0569 49.6803 54.8229 49.6782 55.5889C49.6777 55.8693 49.6778 56.1496 49.6786 56.43C49.6847 58.673 49.5826 60.6187 47.9648 62.3589C47.4523 62.8281 46.8786 63.1977 46.2539 63.4995C46.1733 63.5408 46.0928 63.582 46.0098 63.6244C44.7929 64.1603 43.5227 64.0698 42.2202 64.0642C41.9513 64.0649 41.6824 64.0658 41.4135 64.0669C40.6862 64.0692 39.959 64.0683 39.2317 64.0667C38.4689 64.0654 37.7062 64.0666 36.9434 64.0674C35.6627 64.0683 34.3821 64.0671 33.1014 64.0647C31.6229 64.062 30.1444 64.0629 28.6658 64.0657C27.3941 64.0679 26.1224 64.0682 24.8507 64.0669C24.0922 64.0662 23.3337 64.066 22.5751 64.0677C21.8618 64.0691 21.1486 64.0681 20.4353 64.0653C20.1742 64.0646 19.9132 64.0648 19.6521 64.0659C17.1299 64.0756 17.1299 64.0756 16.0039 63.4995C15.8795 63.4394 15.7551 63.3793 15.6269 63.3174C14.2105 62.4582 13.2474 61.2994 12.7617 59.687C12.6136 58.9858 12.5823 58.2844 12.5664 57.5699C12.5625 57.4617 12.5587 57.3536 12.5547 57.2422C12.5546 56.6847 12.5728 56.4477 12.9218 55.9922C13.2539 55.7495 13.2539 55.7495 13.6289 55.6714C14.1461 55.7792 14.3063 55.9577 14.6289 56.3745C14.713 56.7601 14.7107 57.1373 14.707 57.5308C14.707 58.9224 14.9979 59.9917 16.0039 60.9995C17.4786 62.1753 19.2696 62.0361 21.0581 62.0319C21.3023 62.0322 21.5466 62.0327 21.7909 62.0332C22.451 62.0344 23.1111 62.0339 23.7712 62.0331C24.4639 62.0325 25.1566 62.0331 25.8493 62.0335C27.0123 62.0339 28.1753 62.0333 29.3382 62.0321C30.6804 62.0308 32.0226 62.0312 33.3648 62.0326C34.5198 62.0337 35.6747 62.0339 36.8296 62.0332C37.5183 62.0329 38.207 62.0328 38.8956 62.0336C39.5432 62.0343 40.1909 62.0338 40.8385 62.0324C41.0753 62.0321 41.3122 62.0322 41.5491 62.0327C44.0527 62.0706 44.0527 62.0706 46.2539 60.9995C47.3919 59.8594 47.5595 58.6829 47.5583 57.1163C47.5581 57.0262 47.558 56.9361 47.5579 56.8433C47.5591 56.6522 47.5603 56.4612 47.5618 56.2701C47.5652 55.7544 47.5664 55.2388 47.5671 54.7231C47.5683 54.1831 47.5716 53.6431 47.5746 53.1031C47.5801 52.0818 47.5837 51.0605 47.5866 50.0392C47.5899 48.876 47.5954 47.7127 47.6011 46.5495C47.6127 44.1579 47.6217 41.7662 47.6289 39.3745C47.4851 39.3753 47.3413 39.3761 47.1932 39.3769C46.6532 39.3796 46.1133 39.3813 45.5733 39.3827C45.3409 39.3834 45.1084 39.3845 44.8759 39.3857C43.2211 39.3947 41.627 39.3534 40.0039 38.9995C39.9024 38.9788 39.801 38.958 39.6964 38.9366C36.177 38.2026 33.0998 36.4975 30.0759 34.6093C26.2376 32.2237 22.5436 30.8577 18.0039 31.8746C16.9054 32.1588 15.8297 32.5157 14.7539 32.8745C14.7536 33.0273 14.7536 33.0273 14.7533 33.1832C14.7487 35.6609 14.7413 38.1386 14.7309 40.6163C14.7259 41.8145 14.7219 43.0127 14.72 44.2109C14.7184 45.2552 14.715 46.2994 14.7095 47.3437C14.7067 47.8967 14.7048 48.4497 14.7049 49.0027C14.705 49.5232 14.7027 50.0436 14.6987 50.5641C14.6977 50.7552 14.6975 50.9462 14.6982 51.1372C14.699 51.3982 14.6967 51.6589 14.6937 51.9199C14.6933 52.0658 14.6928 52.2118 14.6924 52.3623C14.6157 52.8301 14.4583 53.0397 14.1289 53.3745C13.8789 53.4576 13.8789 53.4576 13.6289 53.4527C13.5464 53.4543 13.4639 53.4559 13.3789 53.4576C12.983 53.3261 12.8533 53.0951 12.6289 52.7495C12.581 52.4139 12.5617 52.1302 12.5662 51.7954C12.5655 51.7003 12.5648 51.6052 12.5641 51.5072C12.5624 51.189 12.5643 50.8709 12.5662 50.5527C12.5657 50.3243 12.565 50.096 12.5641 49.8676C12.5624 49.2475 12.5638 48.6274 12.5658 48.0073C12.5676 47.3577 12.5668 46.7082 12.5663 46.0586C12.566 44.9671 12.5677 43.8757 12.5706 42.7842C12.5739 41.5241 12.5741 40.264 12.5726 39.0039C12.5713 37.7904 12.5721 36.577 12.5738 35.3636C12.5745 34.8479 12.5745 34.3322 12.5739 33.8166C12.5733 33.2082 12.5746 32.6 12.5773 31.9916C12.578 31.769 12.5781 31.5464 12.5774 31.3238C12.5733 29.6225 12.6777 28.1829 13.8789 26.8746C14.2405 26.5648 14.6217 26.2815 15.0034 25.9971C15.7139 25.4589 16.1974 24.9024 16.3789 23.9996C16.3965 23.8105 16.4095 23.6209 16.4184 23.4312C16.4237 23.3257 16.4289 23.2201 16.4343 23.1114C16.4392 23.0023 16.4441 22.8932 16.4492 22.7808C16.4546 22.6698 16.46 22.5588 16.4655 22.4444C16.4788 22.1711 16.4915 21.8978 16.5039 21.6246C16.429 21.6112 16.3541 21.5979 16.277 21.5841C15.4303 21.4179 14.9557 21.1496 14.3789 20.4996C13.8861 19.6889 13.7572 18.8992 13.9321 17.9654C14.1367 17.2297 14.4936 16.6836 15.1289 16.2496C15.8889 15.9114 16.494 15.8226 17.3203 15.8379C17.4298 15.8385 17.5394 15.839 17.6523 15.8395C17.9987 15.8416 18.345 15.8463 18.6914 15.8511C18.9277 15.853 19.164 15.8547 19.4004 15.8562C19.9766 15.8604 20.5527 15.8668 21.1289 15.8746C21.1285 15.7972 21.1282 15.7198 21.1278 15.6401C21.1195 13.757 21.1133 11.8739 21.1094 9.99077C21.1075 9.08011 21.1049 8.16945 21.1006 7.2588C21.0968 6.46503 21.0944 5.67126 21.0936 4.87748C21.0931 4.45722 21.092 4.03698 21.0892 3.61672C21.0865 3.14744 21.0861 2.67822 21.0863 2.20893C21.085 2.06975 21.0836 1.93057 21.0822 1.78717C21.0827 1.65904 21.0832 1.53092 21.0838 1.39891C21.0834 1.28795 21.0831 1.17699 21.0827 1.06267C21.2361 0.0216433 21.759 -0.0220286 22.6626 -0.0302334ZM23.1289 1.87455C23.1289 6.49455 23.1289 11.1146 23.1289 15.8746C23.7064 15.8746 24.2839 15.8746 24.8789 15.8746C24.8789 11.2546 24.8789 6.63455 24.8789 1.87455C24.3014 1.87455 23.7239 1.87455 23.1289 1.87455ZM31.1289 8.74955C31.0101 9.21619 31.0092 9.54664 31.1139 10.0153C31.1411 10.1395 31.1682 10.2638 31.1961 10.3919C31.2265 10.5246 31.2568 10.6573 31.2881 10.794C31.3185 10.9312 31.3489 11.0685 31.3802 11.2099C31.4445 11.4995 31.5095 11.7889 31.575 12.0783C31.6756 12.5224 31.7745 12.9668 31.873 13.4114C31.9357 13.6926 31.9986 13.9738 32.0615 14.2549C32.0913 14.3884 32.1211 14.5218 32.1519 14.6593C32.1798 14.7824 32.2077 14.9055 32.2365 15.0324C32.261 15.1409 32.2855 15.2495 32.3108 15.3614C32.3703 15.6291 32.3703 15.6291 32.5039 15.8746C33.9078 15.9007 35.3117 15.9207 36.7159 15.9328C37.3681 15.9387 38.0201 15.9466 38.6721 15.9594C39.3027 15.9717 39.9331 15.9784 40.5638 15.9813C40.8031 15.9834 41.0425 15.9874 41.2817 15.9935C42.9302 16.034 43.9695 15.8143 45.2539 14.7496C44.2667 12.6742 42.2209 10.5483 40.2539 9.37455C40.1064 9.28657 40.1064 9.28657 39.956 9.19682C38.5511 8.42885 37.063 8.3112 35.4883 8.32768C35.4044 8.32801 35.3205 8.32834 35.2341 8.32868C33.8386 8.33516 32.4936 8.45748 31.1289 8.74955ZM15.8789 18.4996C15.8704 18.9214 15.9055 19.1398 16.1893 19.4564C16.6719 19.7143 17.131 19.6771 17.6702 19.6739C17.7897 19.6746 17.9091 19.6754 18.0321 19.6762C18.4334 19.6782 18.8345 19.6776 19.2358 19.677C19.523 19.678 19.8102 19.679 20.0975 19.6803C20.8785 19.683 21.6594 19.6834 22.4404 19.6832C23.0919 19.6831 23.7433 19.6842 24.3947 19.6853C26.0191 19.6878 27.6435 19.6879 29.2679 19.687C30.6788 19.6863 32.0897 19.6889 33.5005 19.6931C34.9491 19.6973 36.3976 19.6991 37.8462 19.6986C38.6595 19.6983 39.4728 19.699 40.2861 19.7021C41.0508 19.7049 41.8154 19.7047 42.5801 19.7021C42.861 19.7017 43.1419 19.7023 43.4229 19.7041C43.8059 19.7064 44.1887 19.7048 44.5716 19.7022C44.6833 19.7038 44.7949 19.7054 44.91 19.707C45.4616 19.6991 45.687 19.6753 46.1398 19.3316C46.4156 19.0149 46.4156 19.0149 46.3867 18.6089C46.2279 18.1793 46.1554 18.0891 45.7539 17.8746C45.3653 17.8183 44.9796 17.8229 44.5875 17.8253C44.4681 17.8245 44.3487 17.8237 44.2256 17.8229C43.8244 17.8209 43.4232 17.8215 43.022 17.8221C42.7347 17.8211 42.4475 17.8201 42.1603 17.8189C41.3793 17.8161 40.5983 17.8157 39.8173 17.8159C39.1659 17.816 38.5145 17.8149 37.863 17.8139C36.2386 17.8113 34.6142 17.8112 32.9898 17.8121C31.5789 17.8128 30.1681 17.8102 28.7572 17.806C27.3087 17.8018 25.8601 17.8 24.4116 17.8005C23.5982 17.8008 22.785 17.8001 21.9717 17.797C21.207 17.7942 20.4423 17.7945 19.6777 17.797C19.3967 17.7974 19.1158 17.7968 18.8349 17.795C18.4519 17.7927 18.0691 17.7943 17.6861 17.7969C17.5186 17.7945 17.5186 17.7945 17.3478 17.7921C16.6506 17.8021 16.3097 17.9013 15.8789 18.4996ZM18.5039 21.6246C18.4778 22.4321 18.4778 22.4321 18.4554 23.2397C18.3988 24.6543 17.999 25.9865 16.9902 27.0196C16.6209 27.35 16.2391 27.6615 15.852 27.9707C15.2036 28.5056 14.6888 29.0399 14.5996 29.9102C14.5979 30.1485 14.6119 30.3868 14.6289 30.6246C15.2066 30.499 15.7819 30.3695 16.3545 30.2222C17.6654 29.8886 18.9416 29.656 20.29 29.5445C20.7458 29.5178 20.7458 29.5178 21.1289 29.3746C21.1289 26.8171 21.1289 24.2596 21.1289 21.6246C20.2626 21.6246 19.3964 21.6246 18.5039 21.6246ZM23.1289 21.6246C23.1289 24.2233 23.1289 26.8221 23.1289 29.4996C24.2481 29.7659 24.2481 29.7659 24.8789 29.7496C24.8789 27.0683 24.8789 24.3871 24.8789 21.6246C24.3014 21.6246 23.7239 21.6246 23.1289 21.6246ZM26.8789 21.6246C26.8789 24.5533 26.8789 27.4821 26.8789 30.4996C27.7451 30.9533 28.6114 31.4071 29.5039 31.8746C29.9418 32.135 30.369 32.3919 30.7929 32.6714C31.0683 32.8493 31.3437 33.0272 31.6198 33.2039C31.7944 33.3189 31.966 33.4387 32.1343 33.5628C32.5815 33.8794 32.7871 34.003 33.3501 33.982C33.5196 33.9399 33.6881 33.8934 33.8554 33.8433C33.9497 33.819 34.044 33.7947 34.1411 33.7696C34.4716 33.6835 34.8001 33.5916 35.1289 33.4995C38.9246 32.4736 42.4533 31.8142 46.3761 32.5791C46.7917 32.6538 47.2095 32.701 47.6289 32.7495C47.6435 32.2496 47.6523 31.7497 47.6601 31.2496C47.6664 31.0385 47.6664 31.0385 47.6728 30.8233C47.6855 29.7424 47.5449 29.0738 46.8056 28.2754C46.6906 28.1767 46.5755 28.0779 46.457 27.9761C46.3357 27.8699 46.2143 27.7637 46.0893 27.6543C45.8433 27.4491 45.5957 27.2542 45.3398 27.0621C43.7991 25.6289 43.8492 23.6273 43.7539 21.6246C38.1851 21.6246 32.6164 21.6246 26.8789 21.6246ZM36.8867 34.9527C36.786 34.9784 36.6854 35.0041 36.5816 35.0306C36.3449 35.0952 36.1114 35.1712 35.8789 35.2495C35.8376 35.332 35.7964 35.4145 35.7539 35.4995C39.6652 37.1563 43.4186 37.4542 47.6289 37.3745C47.6289 36.5495 47.6289 35.7245 47.6289 34.8745C43.9431 33.8411 40.584 34.0071 36.8867 34.9527Z" fill="#CD3626"/>
<path d="M25.7535 48.5011C26.631 49.1204 27.1871 49.9394 27.3785 51.0011C27.5018 52.2253 27.2618 53.1418 26.7535 54.2511C26.7147 54.3479 26.6759 54.4447 26.6359 54.5445C26.3024 55.3207 25.7172 55.8996 24.9576 56.2706C23.5614 56.718 22.386 56.2562 21.1324 55.6558C20.0886 55.1085 19.4393 54.3227 19.0216 53.2183C18.6089 51.6755 19.1823 50.2422 19.8785 48.8761C20.349 48.0988 21.0135 47.6764 21.882 47.4288C23.2263 47.1413 24.6125 47.8206 25.7535 48.5011ZM21.7535 49.7511C21.5216 50.1175 21.5216 50.1175 21.3473 50.5401C21.2848 50.6789 21.2223 50.8176 21.1578 50.9605C20.8758 51.7202 20.8236 52.2388 21.1285 53.0011C21.7165 53.8046 22.7827 54.2938 23.7457 54.462C24.2758 54.343 24.4274 54.1888 24.7535 53.7511C25.2156 52.9479 25.5545 52.1858 25.3785 51.2511C25.1666 50.5682 24.8857 50.3475 24.2541 50.0102C22.9958 49.3236 22.9958 49.3236 21.7535 49.7511Z" fill="#CD3626"/>
<path d="M37.6438 50.2208C38.3835 50.7149 38.9479 51.4515 39.2903 52.2667C39.6024 54.0257 39.173 55.5668 38.179 57.045C37.6699 57.6352 37.0647 58.065 36.2859 58.1734C35.3006 58.2276 34.5913 58.0721 33.6966 57.6729C33.6035 57.6316 33.5104 57.5903 33.4146 57.5477C32.4797 57.1024 31.7757 56.5736 31.3294 55.6182C31.2691 55.493 31.2089 55.3678 31.1468 55.2388C30.5924 53.8566 31.0013 52.663 31.5457 51.3389C32.0156 50.3261 32.4949 49.6659 33.5559 49.2667C35.0475 48.8505 36.3529 49.4622 37.6438 50.2208ZM33.7513 51.501C33.5192 51.8631 33.5192 51.8631 33.345 52.2823C33.2512 52.4882 33.2512 52.4882 33.1556 52.6983C32.9278 53.3298 32.8159 53.8066 33.0169 54.4542C33.5376 55.3914 34.2632 55.7782 35.2513 56.126C35.7943 56.2136 35.9988 56.211 36.4544 55.9073C37.0081 55.2616 37.4008 54.3027 37.4466 53.4542C37.3449 52.7991 37.085 52.4356 36.5935 52.001C36.2346 51.7388 35.8969 51.5742 35.4856 51.4073C35.3564 51.3538 35.2272 51.3003 35.094 51.2452C34.5118 51.0428 34.2335 51.1386 33.7513 51.501Z" fill="#CD3626"/>
<path d="M23.8763 34.8757C24.2578 35.1732 24.5663 35.5054 24.8763 35.8757C24.9658 35.9821 25.0552 36.0884 25.1473 36.198C25.9162 37.1783 26.3899 38.2306 26.2513 39.5007C25.9762 40.8694 25.3399 41.7506 24.267 42.6101C24.1588 42.6972 24.1588 42.6972 24.0485 42.7861C23.2965 43.3612 22.5028 43.7094 21.5458 43.6682C20.2762 43.485 19.522 42.7938 18.7582 41.8137C17.9317 40.6778 17.52 39.6791 17.6966 38.2585C17.9726 36.7977 19.078 35.753 20.2474 34.9119C21.4312 34.1606 22.6633 34.1817 23.8763 34.8757ZM21.1107 36.8289C21.0048 36.9212 20.899 37.0135 20.7899 37.1086C20.6947 37.1968 20.5994 37.2849 20.5013 37.3757C20.4306 37.4394 20.3599 37.503 20.287 37.5686C19.9284 37.9064 19.7737 38.1627 19.7215 38.6594C19.7 39.397 19.7571 39.795 20.2513 40.3757C20.3628 40.5198 20.3628 40.5198 20.4764 40.6667C20.8493 41.1272 21.133 41.4491 21.681 41.6882C22.6346 41.5544 23.3676 40.7147 23.9613 39.9968C24.2187 39.613 24.2677 39.3353 24.2513 38.8757C24.0396 37.8984 23.3994 37.122 22.6263 36.5007C21.9402 36.2967 21.6421 36.359 21.1107 36.8289Z" fill="#CD3626"/>
<path d="M42.779 41.6759C43.8607 42.517 44.396 43.931 44.6218 45.2506C44.7604 46.4346 44.5431 47.2695 43.8308 48.2228C43.027 49.0541 41.3899 49.4399 40.2634 49.5084C39.0215 49.472 38.0499 49.1086 37.1213 48.276C36.1378 47.1799 35.7438 45.4343 35.8122 43.9928C35.9435 43.1836 36.2836 42.513 36.8952 41.9615C38.5963 40.8264 41.0315 40.5905 42.779 41.6759ZM39.1687 43.2194C39.0304 43.26 38.8922 43.3006 38.7497 43.3424C38.3485 43.5104 38.1393 43.6601 37.8718 44.0006C37.741 44.9161 37.9953 45.9659 38.531 46.7267C39.0058 47.2116 39.4497 47.4447 40.1218 47.5006C40.4505 47.447 40.7485 47.385 41.0671 47.2975C41.2271 47.2572 41.3871 47.2169 41.552 47.1754C42.0475 46.9807 42.2974 46.7957 42.6218 46.3756C42.7733 45.5304 42.368 44.4991 41.9968 43.7506C41.5468 43.2775 41.0596 43.0184 40.4035 42.9811C39.9601 43.0024 39.5931 43.0902 39.1687 43.2194Z" fill="#CD3626"/>
<path d="M33.361 40.711C33.9629 41.2802 34.3314 42.0528 34.3968 42.88C34.4572 45.9818 34.4572 45.9818 33.2516 47.2501C32.2479 48.1839 31.1695 48.4454 29.8219 48.4297C29.6485 48.4281 29.6485 48.4281 29.4715 48.4263C28.3565 48.398 27.5562 48.2338 26.7594 47.4141C26.0629 46.6149 25.9365 45.592 25.9548 44.5704C25.9561 44.4663 25.9575 44.3622 25.9589 44.255C25.9931 42.9338 26.2876 41.9478 27.2516 41.0001C28.8533 39.7451 31.685 39.4133 33.361 40.711ZM28.5251 42.6719C28.0227 43.2748 27.9649 43.7867 27.9626 44.5626C27.9605 44.7237 27.9584 44.8848 27.9562 45.0508C28.004 45.5236 28.0885 45.7526 28.3766 46.1251C28.8494 46.4403 29.2348 46.421 29.7829 46.4219C29.8752 46.425 29.9675 46.4281 30.0627 46.4312C30.7673 46.4349 31.1731 46.2795 31.7516 45.8751C32.2869 45.1848 32.3977 44.691 32.4079 43.8282C32.4127 43.5831 32.4127 43.5831 32.4176 43.3331C32.3744 42.8507 32.3034 42.6239 32.0016 42.2501C31.0142 41.5253 29.3799 41.9501 28.5251 42.6719Z" fill="#CD3626"/>
<path d="M41.25 12.251C41.6568 12.5517 41.8448 12.7372 41.9531 13.2354C41.8475 13.7636 41.6407 14.1287 41.25 14.501C40.8222 14.6525 40.5936 14.6494 40.1562 14.5401C39.8182 14.3429 39.727 14.2536 39.625 13.876C39.6491 13.214 39.7887 12.8513 40.25 12.376C40.6111 12.1955 40.8496 12.2039 41.25 12.251Z" fill="#CD3626"/>
<path d="M35.6244 9.62451C35.9627 9.85244 36.1916 10.0088 36.3744 10.3745C36.442 10.8811 36.4172 11.0667 36.1088 11.4839C35.7494 11.7495 35.7494 11.7495 35.3823 11.8198C34.9061 11.7324 34.6269 11.548 34.2494 11.2495C34.0483 10.8472 34.0498 10.4346 34.1244 9.99951C34.5793 9.43435 34.949 9.43154 35.6244 9.62451Z" fill="#CD3626"/>
<path d="M37.125 13.3744C37.4375 13.5776 37.4375 13.5776 37.625 13.8744C37.7119 14.3743 37.6469 14.5852 37.3984 15.0307C37.125 15.3744 37.125 15.3744 36.75 15.6244C36.3446 15.6676 36.0831 15.6626 35.7109 15.4916C35.3903 15.1235 35.375 14.8582 35.375 14.3744C35.7231 13.4803 36.1789 13.2417 37.125 13.3744Z" fill="#CD3626"/>
</g>
<defs>
<clipPath id="clip0_2395_12124">
<rect width="64" height="64" fill="white"/>
</clipPath>
</defs>
</svg>
