<svg width="64" height="64" viewBox="0 0 64 64" fill="none" xmlns="http://www.w3.org/2000/svg">
<g clip-path="url(#clip0_2395_12049)">
<path d="M36.0563 6.16152C36.7014 6.47135 37.2043 6.51814 37.9073 6.52187C38.1169 6.52478 38.3264 6.52779 38.536 6.53091C38.8648 6.53527 39.1936 6.53895 39.5225 6.54064C41.5743 6.55324 42.8855 6.89304 44.3834 8.35928C44.777 8.7613 45.1435 9.18027 45.4967 9.61807C46.3391 10.4702 47.2551 10.8561 48.3756 11.2499C49.362 11.5966 50.2116 11.9258 51.0006 12.6249C51.0873 12.701 51.174 12.777 51.2633 12.8554C52.0544 13.7155 52.4338 14.7959 52.7994 15.8886C53.338 17.4762 54.2299 18.388 55.4603 19.4948C56.5509 20.4867 57.271 21.5035 57.3756 22.9999C57.3727 23.5398 57.3476 24.0779 57.3209 24.6171C57.3144 24.7622 57.3079 24.9073 57.3011 25.0568C57.285 25.4129 57.2682 25.7689 57.2506 26.1249C57.3387 26.1223 57.4268 26.1197 57.5176 26.117C57.9234 26.1065 58.3291 26.1 58.735 26.0937C58.8735 26.0895 59.0121 26.0853 59.1549 26.081C60.5402 26.0647 61.5928 26.4467 62.6256 27.3749C63.6423 28.3751 64.0279 29.4168 64.0397 30.828C64.041 32.2774 63.6489 33.3192 62.6256 34.3749C62.1691 34.7624 61.7361 35.0798 61.1407 35.1938C60.7119 35.2777 60.4671 35.3475 60.1256 35.6249C59.8846 36.1909 59.8321 36.8169 59.7423 37.4208C59.4995 39.0287 58.8638 40.572 58.1803 42.039C58.1144 42.1811 58.1144 42.1811 58.0471 42.3261C57.7097 43.0211 57.3007 43.6998 56.7506 44.2499C56.2136 44.3119 55.9558 44.3034 55.5006 43.9999C55.2329 43.5984 55.178 43.3888 55.2716 42.9154C55.3957 42.5686 55.5657 42.2827 55.7584 41.9687C56.9541 40.0085 57.4434 37.8536 58.0006 35.6249C40.8406 35.6249 23.6806 35.6249 6.0006 35.6249C7.45234 41.4319 10.1544 46.2146 15.336 49.4199C17.0733 50.4592 18.9282 51.2686 20.8951 51.7558C20.9807 51.7772 21.0663 51.7987 21.1545 51.8208C21.3924 51.8792 21.631 51.934 21.8697 51.9887C22.2999 52.1425 22.4235 52.2201 22.6256 52.6249C22.6911 52.9196 22.7446 53.217 22.7897 53.5155C23.0183 54.8009 23.5149 55.6415 24.546 56.4408C25.4056 56.9209 26.2368 57.0556 27.21 57.0504C27.3252 57.0513 27.4404 57.0521 27.5591 57.053C27.9366 57.0553 28.314 57.0548 28.6915 57.0541C28.956 57.0547 29.2204 57.0553 29.4848 57.0561C30.0378 57.0572 30.5908 57.0569 31.1438 57.0557C31.85 57.0542 32.5562 57.0567 33.2624 57.0604C33.8081 57.0627 34.3539 57.0627 34.8996 57.0619C35.1599 57.0619 35.4202 57.0627 35.6805 57.0642C36.0454 57.0661 36.4101 57.0647 36.775 57.0626C36.8809 57.0638 36.9869 57.065 37.096 57.0663C38.2823 57.0518 39.4041 56.5891 40.2506 55.7499C40.9269 54.9325 41.1286 54.0651 41.2833 53.0399C41.3787 52.611 41.4557 52.4406 41.7506 52.1249C42.0384 52.0057 42.0384 52.0057 42.3785 51.9242C42.5049 51.8922 42.6312 51.8601 42.7614 51.8271C42.8971 51.7939 43.0327 51.7607 43.1725 51.7265C46.8672 50.7542 50.0625 48.9333 52.7042 46.1542C53.0941 45.7868 53.3451 45.7499 53.8756 45.7499C54.244 45.9181 54.4434 46.0106 54.6256 46.3749C54.7004 46.7676 54.6963 47.0196 54.4698 47.3568C54.2395 47.6233 53.998 47.8742 53.7506 48.1249C53.672 48.2111 53.5933 48.2973 53.5123 48.3861C51.011 51.0462 46.8979 53.4078 43.2506 53.8749C43.2403 54.0167 43.23 54.1585 43.2193 54.3046C43.0375 55.7199 42.1393 56.991 41.0699 57.893C39.7779 58.8314 38.4673 59.1637 36.8972 59.1592C36.7213 59.1602 36.7213 59.1602 36.5419 59.1612C36.1575 59.1629 35.7732 59.1628 35.3888 59.1625C35.1193 59.163 34.8499 59.1635 34.5804 59.1641C34.0167 59.1651 33.4531 59.165 32.8894 59.1644C32.1703 59.1636 31.4512 59.1657 30.7321 59.1687C30.1759 59.1705 29.6196 59.1706 29.0633 59.1702C28.7984 59.1703 28.5334 59.1709 28.2685 59.1722C25.8901 59.1822 24.0758 58.9637 22.2638 57.2831C21.3938 56.3469 20.712 55.1777 20.7506 53.8749C20.5775 53.8382 20.5775 53.8382 20.401 53.8007C17.6784 53.1896 15.1385 52.0022 12.8756 50.3749C12.6762 50.2316 12.6762 50.2316 12.4728 50.0854C8.48953 47.1307 4.97725 42.3355 4.20482 37.3281C4.1818 37.14 4.15884 36.9519 4.13594 36.7638C4.08456 36.3624 4.01684 36.005 3.8756 35.6249C3.54124 35.3839 3.26435 35.3036 2.86437 35.2104C1.81463 34.9638 1.19632 34.2158 0.59142 33.372C0.116792 32.5537 -0.0666333 31.8346 -0.0540883 30.8905C-0.0533229 30.792 -0.0525575 30.6935 -0.051769 30.5921C-0.030931 29.814 0.109326 29.1809 0.500599 28.4999C0.612748 28.3027 0.612748 28.3027 0.727162 28.1015C1.4909 27.1195 2.37237 26.3772 3.6256 26.1249C3.86957 26.1148 4.11385 26.1114 4.35802 26.1127C4.4974 26.1131 4.63678 26.1135 4.78038 26.1139C4.92524 26.115 5.0701 26.116 5.21935 26.1171C5.36614 26.1177 5.51293 26.1182 5.66417 26.1188C6.02632 26.1203 6.38846 26.1223 6.7506 26.1249C6.7455 26.0368 6.74041 25.9487 6.73516 25.8579C6.71263 25.4522 6.69254 25.0464 6.67247 24.6405C6.66442 24.502 6.65636 24.3634 6.64806 24.2206C6.57363 22.639 6.801 21.385 7.85216 20.1718C8.28496 19.7037 8.74329 19.2774 9.21773 18.8519C10.017 18.1308 10.6409 17.5366 11.0006 16.4999C11.143 16.1012 11.2865 15.7028 11.4303 15.3046C11.4679 15.2001 11.5056 15.0956 11.5444 14.9879C11.8159 14.2492 12.0991 13.5958 12.6256 12.9999C12.7018 12.9135 12.778 12.8272 12.8566 12.7382C13.5833 12.0101 14.4243 11.6815 15.372 11.3424C15.8069 11.1838 16.2354 11.009 16.6647 10.8358C16.7447 10.804 16.8247 10.7722 16.9072 10.7393C17.193 10.6255 17.4753 10.5126 17.7506 10.3749C18.2254 10.3309 18.5185 10.309 18.9303 10.5624C19.1648 10.9376 19.1898 11.1909 19.2042 11.6249C19.0808 12.0175 18.8366 12.1486 18.5006 12.3749C18.2341 12.5065 17.9627 12.6284 17.6881 12.7421C17.6124 12.7738 17.5366 12.8055 17.4586 12.8382C16.9354 13.0554 16.4064 13.2552 15.8756 13.453C15.0152 13.7813 14.407 14.0969 13.8756 14.8749C13.6161 15.4811 13.4084 16.1066 13.192 16.7291C12.7649 17.9202 12.2492 18.9545 11.3287 19.8358C11.2103 19.9501 11.0919 20.0643 10.9698 20.182C10.6743 20.4549 10.3756 20.7217 10.0709 20.9843C9.28492 21.6644 9.10296 22.0678 8.7506 23.1249C8.7506 24.1149 8.7506 25.1049 8.7506 26.1249C24.0956 26.1249 39.4406 26.1249 55.2506 26.1249C55.4494 23.7114 55.4494 23.7114 54.5162 21.5233C54.4407 21.4428 54.3651 21.3622 54.2872 21.2792C53.9249 20.9261 53.5535 20.5836 53.1803 20.2421C51.9871 19.1503 51.3347 18.2107 50.7936 16.664C50.7567 16.5598 50.7199 16.4557 50.682 16.3484C50.6096 16.1418 50.5392 15.9345 50.4708 15.7266C50.1889 14.9156 49.8054 14.277 49.0719 13.8041C48.971 13.763 48.8701 13.7219 48.7662 13.6796C48.6481 13.6303 48.53 13.581 48.4083 13.5302C48.0246 13.3841 47.6395 13.2429 47.2536 13.1029C45.2739 12.3805 44.0531 11.3012 42.6866 9.70645C42.1701 9.13302 41.6795 8.77059 40.9066 8.71798C40.7179 8.71616 40.5292 8.71548 40.3404 8.71572C40.1324 8.71318 39.9244 8.71058 39.7164 8.70791C39.3912 8.7051 39.066 8.70303 38.7407 8.70229C37.4508 8.69736 36.3256 8.65697 35.1256 8.1249C35.0248 8.08111 34.924 8.03733 34.8202 7.99221C34.544 7.86723 34.2721 7.7362 34.0006 7.60146C33.8211 7.51332 33.6414 7.42558 33.4615 7.33828C33.3462 7.28119 33.3462 7.28119 33.2286 7.22295C32.3559 6.84769 31.5952 6.93844 30.7272 7.26553C30.0177 7.55477 29.3238 7.87427 28.6344 8.2084C27.8387 8.5536 27.1362 8.66018 26.2818 8.65908C26.0722 8.66162 25.8626 8.66422 25.6529 8.66689C25.3263 8.66972 24.9996 8.67178 24.673 8.67251C24.355 8.6737 24.0372 8.67793 23.7193 8.68252C23.6227 8.68189 23.5261 8.68126 23.4265 8.68061C22.7255 8.69321 22.3424 8.87859 21.7506 9.2499C21.2389 9.31929 20.998 9.3401 20.5787 9.03115C20.2755 8.61128 20.2371 8.40526 20.2818 7.89053C20.6495 7.23401 21.4038 6.88809 22.1176 6.67902C22.5442 6.58953 22.9766 6.6079 23.4108 6.60732C23.6188 6.60503 23.8268 6.60258 24.0348 6.6C24.36 6.5964 24.6852 6.59365 25.0105 6.59359C26.3542 6.59179 27.4116 6.5131 28.6256 5.8749C28.8123 5.79089 28.9996 5.70809 29.1876 5.62686C29.4364 5.5157 29.6849 5.40406 29.933 5.29141C32.1042 4.32498 34.0633 5.18702 36.0563 6.16152ZM2.57872 29.0624C2.52104 29.1333 2.46335 29.2042 2.40392 29.2772C1.89134 30.0216 1.90092 30.7392 2.0006 31.6249C2.23582 32.3442 2.63423 32.834 3.25792 33.2533C3.90138 33.5757 4.49515 33.6613 5.20651 33.6571C5.34786 33.6577 5.34786 33.6577 5.49206 33.6584C5.80812 33.6596 6.12415 33.6589 6.44021 33.6583C6.66899 33.6588 6.89776 33.6594 7.12653 33.66C7.75545 33.6616 8.38437 33.6615 9.01329 33.6612C9.69148 33.6612 10.3697 33.6626 11.0478 33.6638C12.3766 33.6658 13.7054 33.6665 15.0342 33.6667C16.1141 33.6668 17.1941 33.6673 18.2741 33.6681C21.3352 33.6703 24.3963 33.6714 27.4574 33.6713C27.5399 33.6713 27.6224 33.6712 27.7074 33.6712C27.8742 33.6712 28.041 33.6712 28.2079 33.6712C30.8035 33.6711 33.3991 33.6729 35.9948 33.6764C38.9112 33.6802 41.8275 33.6823 44.7439 33.6821C46.288 33.682 47.8321 33.6827 49.3762 33.6854C50.6908 33.6877 52.0054 33.6882 53.32 33.6865C53.9907 33.6857 54.6615 33.6857 55.3323 33.6879C55.9464 33.6898 56.5605 33.6895 57.1747 33.6873C57.3967 33.6869 57.6188 33.6874 57.8409 33.6888C59.1267 33.6963 60.1925 33.6865 61.2272 32.8358C61.9047 32.0034 62.0928 31.4788 62.0568 30.3949C61.9482 29.631 61.5632 29.1449 61.0006 28.6405C60.3546 28.183 59.8328 28.0882 59.0519 28.0927C58.9095 28.0921 58.9095 28.0921 58.7641 28.0914C58.4448 28.0902 58.1255 28.0909 57.8062 28.0915C57.5754 28.091 57.3446 28.0904 57.1137 28.0898C56.4786 28.0882 55.8435 28.0883 55.2083 28.0886C54.5236 28.0886 53.839 28.0872 53.1543 28.086C51.8126 28.084 50.4709 28.0833 49.1292 28.0831C48.0388 28.083 46.9484 28.0825 45.858 28.0817C43.2709 28.0799 40.6837 28.0783 38.0966 28.0785C37.9725 28.0785 37.9725 28.0785 37.8458 28.0785C37.4264 28.0785 37.007 28.0785 36.5876 28.0785C36.5043 28.0786 36.421 28.0786 36.3352 28.0786C36.1668 28.0786 35.9983 28.0786 35.8299 28.0786C33.2091 28.0787 30.5883 28.0769 27.9675 28.0735C25.0234 28.0696 22.0792 28.0675 19.1351 28.0677C17.5761 28.0678 16.0172 28.0671 14.4582 28.0644C13.1309 28.0621 11.8037 28.0616 10.4764 28.0633C9.79906 28.0641 9.12175 28.0641 8.44442 28.0619C7.8244 28.06 7.20444 28.0603 6.58443 28.0625C6.36009 28.0629 6.13574 28.0624 5.9114 28.061C5.60637 28.0593 5.3015 28.0606 4.99647 28.0627C4.90944 28.0614 4.8224 28.0602 4.73272 28.0589C3.89701 28.071 3.10283 28.3959 2.57872 29.0624Z" fill="#CD3626"/>
<path d="M24.6777 15.3007C25.4988 15.8848 26.2001 16.7308 26.375 17.7499C26.4805 19.1389 26.3451 20.0862 25.4531 21.164C24.7736 21.8928 24.067 22.3081 23.0693 22.4257C21.7844 22.4585 20.8547 22.2317 19.8555 21.4008C19.1162 20.6412 18.7346 19.6648 18.6953 18.6093C18.7496 17.4307 19.2243 16.4867 20.0703 15.6718C21.4132 14.5461 23.1725 14.4267 24.6777 15.3007ZM20.998 17.6498C20.7605 18.0844 20.7073 18.5102 20.75 18.9999C20.9134 19.5144 21.1894 19.82 21.5859 20.1796C22.1216 20.4323 22.5428 20.4774 23.125 20.3749C23.7271 20.0796 24.0796 19.7271 24.375 19.1249C24.4923 18.5243 24.4496 18.0362 24.1172 17.5156C23.6932 16.9979 23.2172 16.8 22.5547 16.7031C21.895 16.8046 21.4042 17.1185 20.998 17.6498Z" fill="#CD3626"/>
<path d="M42.217 17.1334C42.776 17.5611 43.0888 18.0931 43.3401 18.7423C43.4571 19.7082 43.3686 20.4643 42.8073 21.2721C42.3732 21.8057 41.9434 22.2443 41.2463 22.3751C40.2884 22.472 39.4064 22.4867 38.6213 21.8751C38.044 21.3301 37.6681 20.7999 37.5793 19.9937C37.5674 18.9953 37.6334 18.2912 38.3142 17.5362C39.4376 16.4822 40.888 16.3307 42.217 17.1334ZM39.9104 18.8282C39.5897 19.1028 39.5897 19.1028 39.551 19.5001C39.5965 19.8815 39.5965 19.8815 39.8244 20.172C40.1149 20.3999 40.1149 20.3999 40.4963 20.4454C40.8896 20.4045 40.8896 20.4045 41.176 20.1095C41.401 19.761 41.401 19.761 41.3791 19.3595C41.2746 18.9805 41.2746 18.9805 40.9494 18.7657C40.4983 18.5724 40.333 18.5726 39.9104 18.8282Z" fill="#CD3626"/>
<path d="M15.625 20.5C15.9673 20.7768 15.9673 20.7768 16.2891 21.1171C16.3969 21.2291 16.5047 21.3411 16.6157 21.4565C16.9082 21.7875 16.9888 21.9161 17.0469 22.3515C17 22.75 17 22.75 16.7344 23.1093C16.375 23.375 16.375 23.375 16.0234 23.4687C15.4126 23.325 15.0634 22.9318 14.625 22.5C14.5245 22.4123 14.4239 22.3246 14.3203 22.2343C14.0752 21.9402 14.0186 21.7566 14 21.375C14.099 20.9592 14.2018 20.7901 14.5312 20.5156C14.9701 20.336 15.1698 20.3734 15.625 20.5Z" fill="#CD3626"/>
<path d="M32.2036 17.5142C32.8915 17.7718 33.4353 18.428 33.8745 19C34.0289 19.4572 34.0202 19.5739 33.8355 20.0312C33.6245 20.375 33.6245 20.375 33.3745 20.5C32.9253 20.5719 32.6246 20.5827 32.2373 20.3267C31.978 20.1032 31.7371 19.8713 31.4995 19.625C31.3964 19.5193 31.2933 19.4136 31.187 19.3047C30.9458 18.9127 30.924 18.703 30.9995 18.25C31.2763 17.7195 31.5819 17.4801 32.2036 17.5142Z" fill="#CD3626"/>
<path d="M31.6268 11.1251C31.869 11.2579 31.869 11.2579 32.0018 11.5001C32.0918 12.0312 32.12 12.3186 31.8231 12.7745C31.3973 13.2698 30.9536 13.7547 30.3299 13.9845C29.8826 14.0058 29.6286 13.8563 29.2518 13.6251C29.0541 13.2297 29.0803 12.9369 29.1268 12.5001C29.3474 12.2117 29.5337 12.0029 29.7987 11.7657C29.8939 11.6749 29.8939 11.6749 29.9911 11.5821C30.5849 11.0227 30.8182 10.9549 31.6268 11.1251Z" fill="#CD3626"/>
<path d="M50.25 19.5C50.6514 19.7967 50.8395 19.9918 50.9688 20.4765C50.8247 21.0889 50.4398 21.4416 50 21.875C49.8969 21.9781 49.7938 22.0812 49.6875 22.1875C49.261 22.4434 48.9886 22.446 48.5 22.375C48.0654 22.1075 48.0105 21.9183 47.8906 21.4218C47.917 20.7204 48.4702 20.3251 48.9521 19.8754C49.4005 19.4984 49.6634 19.431 50.25 19.5Z" fill="#CD3626"/>
</g>
<defs>
<clipPath id="clip0_2395_12049">
<rect width="64" height="64" fill="white"/>
</clipPath>
</defs>
</svg>
