<svg width="64" height="64" viewBox="0 0 64 64" fill="none" xmlns="http://www.w3.org/2000/svg">
<g clip-path="url(#clip0_2395_12029)">
<path d="M31.8693 23.1016C32.0214 23.1017 32.1735 23.1018 32.3302 23.1019C55.6408 23.133 55.6408 23.133 62.0465 29.148C63.1011 30.3129 63.2981 31.3717 63.2912 32.9063C63.2905 33.0669 63.2899 33.2275 63.2893 33.393C63.1982 40.9931 60.2602 48.2263 55.1505 53.8238C54.8855 54.1158 54.6275 54.413 54.3693 54.711C53.9937 55.1329 53.6042 55.5122 53.1725 55.8761C52.945 56.0678 52.7218 56.2622 52.4996 56.46C47.3921 60.9784 40.4 63.9894 33.528 64.0255C33.3591 64.0268 33.3591 64.0268 33.1869 64.0281C28.4576 64.0568 28.4576 64.0568 26.3771 63.6251C26.1908 63.5868 26.1908 63.5868 26.0007 63.5478C19.6303 62.2006 13.1113 58.9908 8.86342 53.9078C8.67544 53.6829 8.48424 53.4634 8.2892 53.2447C6.86097 51.6322 5.69719 49.8657 4.62709 48.0001C4.54524 47.8601 4.46338 47.72 4.37905 47.5758C2.59892 44.4036 1.52981 40.8361 1.00209 37.2501C0.987449 37.1538 0.972806 37.0575 0.95772 36.9583C0.764818 35.641 0.721578 34.3225 0.705217 32.9923C0.701954 32.8391 0.698691 32.6859 0.69533 32.5281C0.692741 31.1754 0.98525 30.1486 1.93129 29.1607C7.68433 24.0382 18.2806 23.6422 25.6271 23.2501C25.7254 23.2448 25.8237 23.2395 25.9249 23.234C27.9066 23.13 29.8851 23.0998 31.8693 23.1016ZM3.11928 30.3204C2.72074 30.7599 2.39701 31.1552 2.36147 31.7706C2.40045 32.4991 2.61625 32.8642 3.12709 33.3751C3.26182 33.173 3.39445 32.969 3.51283 32.7569C5.34667 29.6561 10.3224 28.6098 13.5772 27.7652C17.0483 26.9071 20.5814 26.4339 24.1364 26.0953C24.2177 26.0874 24.2991 26.0795 24.383 26.0713C26.0659 25.9172 27.7475 25.8545 29.4367 25.8497C29.6278 25.8488 29.8189 25.8479 30.0101 25.847C30.6168 25.8446 31.2235 25.844 31.8302 25.8438C31.9852 25.8437 31.9852 25.8437 32.1432 25.8436C35.2779 25.842 38.385 25.8877 41.5021 26.2501C41.7426 26.2762 41.7426 26.2762 41.9879 26.3028C56.454 27.8968 56.454 27.8968 60.338 32.5001C60.5219 32.7803 60.6385 33.0605 60.7521 33.3751C61.3874 32.7875 61.3874 32.7875 61.6593 31.9947C61.612 31.2306 61.3355 30.8072 60.8043 30.2657C55.9725 26.0193 46.9913 25.5417 40.8771 25.0391C40.7852 25.0315 40.6934 25.0239 40.5988 25.0161C37.7743 24.7854 34.9525 24.7242 32.1193 24.7266C31.9549 24.7267 31.7906 24.7268 31.6212 24.7269C16.4728 24.5547 16.4728 24.5547 3.11928 30.3204ZM22.6271 27.7501C22.4916 27.7664 22.4916 27.7664 22.3533 27.7831C12.9574 28.7245 12.9574 28.7245 5.05873 33.2291C4.90252 33.4489 4.90252 33.4489 4.75209 33.7501C5.02857 34.622 5.72997 34.9557 6.50209 35.3751C7.06989 35.621 7.6477 35.8184 8.23647 36.0079C8.31702 36.0343 8.39757 36.0606 8.48056 36.0878C10.2499 36.6645 12.0458 37.0483 13.8771 37.3751C13.9976 37.3979 14.1181 37.4206 14.2423 37.4441C25.0587 39.4856 36.6782 39.59 58.0827 34.7877C58.4983 34.4904 58.8777 34.2042 59.1271 33.7501C58.953 32.9896 58.3697 32.6584 57.7521 32.2501C51.2499 28.2867 42.0501 27.371 34.5753 27.3497C34.3837 27.3488 34.1921 27.3479 34.0004 27.347C33.3916 27.3446 32.7828 27.344 32.174 27.3438C32.0703 27.3438 31.9666 27.3437 31.8598 27.3437C28.7682 27.3428 25.6993 27.3678 22.6271 27.7501ZM2.50209 35.0001C2.62234 42.3351 6.50057 49.3241 11.6271 54.3751C12.187 54.9041 12.7748 55.3954 13.3771 55.8751C13.4532 55.9362 13.5293 55.9974 13.6077 56.0604C19.571 60.8113 27.425 63.1751 35.0183 62.3316C40.1106 61.7137 44.961 60.0438 49.1271 57.0001C49.2035 56.9445 49.28 56.8889 49.3587 56.8316C50.185 56.2254 50.9677 55.5781 51.7208 54.8829C51.9681 54.6563 52.2211 54.4413 52.4787 54.2266C57.6253 49.7104 60.6698 42.8243 61.5021 36.1251C61.5097 35.9195 61.5131 35.7136 61.5099 35.5079C61.5082 35.3631 61.5082 35.3631 61.5065 35.2154C61.505 35.1444 61.5036 35.0733 61.5021 35.0001C61.3387 35.0953 61.3387 35.0953 61.172 35.1925C61.0216 35.2794 60.8712 35.3663 60.7208 35.4532C60.6499 35.4946 60.579 35.536 60.506 35.5787C60.2564 35.7225 60.0049 35.8619 59.7521 36.0001C59.6466 36.0579 59.5411 36.1157 59.4324 36.1752C58.3602 36.738 57.2511 37.125 56.1037 37.5001C56.0044 37.5328 55.9051 37.5654 55.8027 37.5991C45.3573 41.0256 33.5429 41.0286 11.213 38.4376C11.1112 38.4152 11.0094 38.3927 10.9045 38.3696C8.8447 37.9118 6.88102 37.3085 4.98647 36.3673C4.85595 36.3043 4.72543 36.2414 4.59096 36.1766C3.86539 35.8225 3.17794 35.4417 2.50209 35.0001Z" fill="#CD3626"/>
<path d="M25.2324 -0.0476074C27.6068 -0.0422608 29.6399 0.723865 31.3743 2.37494C33.0954 4.18288 33.8266 6.33644 33.8186 8.7973C33.784 9.90729 33.5682 10.9794 33.3575 12.0671C32.8282 14.854 32.734 17.8155 34.0828 20.3994C34.3024 20.8617 34.2557 21.137 34.1243 21.6249C33.7493 21.8749 33.7493 21.8749 33.3367 21.8505C31.5778 21.4679 30.0178 20.0516 29.0569 18.5751C28.245 17.1292 27.9557 15.7746 27.9681 14.1328C27.9671 14.0052 27.9661 13.8777 27.9651 13.7463C27.967 13.0229 28.0312 12.3569 28.1887 11.6511C28.768 9.01397 28.036 6.24383 26.6243 3.99994C25.9634 3.02631 25.2354 2.19431 24.3416 1.4267C24.1243 1.12494 24.1243 1.12494 24.1375 0.666931C24.322 -0.0212603 24.5582 -0.034137 25.2324 -0.0476074ZM27.2493 1.87494C27.4819 2.29169 27.7168 2.70035 27.9788 3.09955C28.6566 4.14353 29.1245 5.18861 29.4993 6.37494C29.542 6.5061 29.5847 6.63726 29.6287 6.7724C30.1678 8.78319 30.0003 11.0596 29.6257 13.0852C29.3174 14.8014 29.7214 16.2753 30.513 17.7949C30.8251 18.2308 31.2069 18.5426 31.6243 18.8749C31.6168 18.8026 31.6092 18.7303 31.6014 18.6558C31.3312 16.0447 31.3495 13.6333 31.89 11.0546C32.3381 8.85221 32.3759 6.61882 31.0921 4.67084C30.0878 3.30629 28.9166 2.2949 27.2493 1.87494Z" fill="#CD3626"/>
<path d="M38.7671 4.93309C40.5918 5.33619 42.0358 6.37631 43.0625 7.9282C43.3567 8.4331 43.5711 8.94443 43.75 9.49998C43.7782 9.58667 43.8064 9.67336 43.8354 9.76268C44.2085 11.1364 44.0156 12.5057 43.75 13.875C43.3225 16.1153 43.1675 18.4746 44.2837 20.5317C44.4332 20.8892 44.3745 21.1432 44.25 21.5C44.1172 21.7422 44.1172 21.7422 43.875 21.875C42.6948 21.9171 41.7351 21.1142 40.875 20.375C39.5353 18.8551 39.0172 17.1223 39.125 15.125C39.1623 14.9158 39.2039 14.7074 39.25 14.5C39.5744 12.8781 39.5254 11.1528 38.875 9.62498C38.7955 9.43501 38.7955 9.43501 38.7144 9.24119C38.2318 8.18995 37.5543 7.32881 36.7568 6.49607C36.2516 5.9603 36.2516 5.9603 36.2422 5.46092C36.6164 4.51441 37.942 4.81081 38.7671 4.93309ZM39.5 6.99998C39.6652 7.43399 39.8577 7.84788 40.0642 8.26368C41.1188 10.421 41.2776 12.7242 40.8066 15.0757C40.5773 16.2876 40.8744 17.3557 41.4727 18.4062C41.6119 18.6433 41.6119 18.6433 41.875 18.75C41.8724 18.6508 41.8698 18.5516 41.8671 18.4494C41.8262 16.6572 41.7978 14.9186 42.1971 13.1586C42.5559 11.5628 42.4106 10.0534 41.5312 8.64061C41.0166 7.93314 40.3638 7.24294 39.5 6.99998Z" fill="#CD3626"/>
<path d="M17.5171 4.93309C19.3418 5.33619 20.7858 6.37631 21.8125 7.9282C22.1067 8.4331 22.3211 8.94443 22.5 9.49998C22.5282 9.58667 22.5564 9.67336 22.5854 9.76268C22.9585 11.1364 22.7656 12.5057 22.5 13.875C22.0725 16.1153 21.9175 18.4746 23.0337 20.5317C23.1832 20.8892 23.1245 21.1432 23 21.5C22.8672 21.7422 22.8672 21.7422 22.625 21.875C21.4448 21.9171 20.4851 21.1142 19.625 20.375C18.2853 18.8551 17.7672 17.1223 17.875 15.125C17.9123 14.9158 17.9539 14.7074 18 14.5C18.3244 12.8781 18.2754 11.1528 17.625 9.62498C17.5455 9.43501 17.5455 9.43501 17.4644 9.24119C16.9818 8.18995 16.3043 7.32881 15.5068 6.49607C15.0016 5.9603 15.0016 5.9603 14.9922 5.46092C15.3664 4.51441 16.692 4.81081 17.5171 4.93309ZM18.25 6.99998C18.4152 7.43399 18.6077 7.84788 18.8142 8.26368C19.8688 10.421 20.0276 12.7242 19.5566 15.0757C19.3273 16.2876 19.6244 17.3557 20.2227 18.4062C20.3619 18.6433 20.3619 18.6433 20.625 18.75C20.6224 18.6508 20.6198 18.5516 20.6171 18.4494C20.5762 16.6572 20.5478 14.9186 20.9471 13.1586C21.3059 11.5628 21.1606 10.0534 20.2812 8.64061C19.7666 7.93314 19.1138 7.24294 18.25 6.99998Z" fill="#CD3626"/>
<path d="M17.0833 31.2652C17.4794 31.5871 17.7041 31.9008 17.8016 32.4059C17.8028 33.0756 17.7357 33.4999 17.2474 34.0001C16.2699 34.3853 15.2386 34.5979 14.2164 34.8306C13.9188 34.8986 13.6217 34.9683 13.3245 35.038C13.1331 35.0819 12.9417 35.1258 12.7503 35.1695C12.6626 35.1902 12.575 35.2109 12.4847 35.2323C11.7799 35.3903 11.1531 35.4777 10.4661 35.2267C10.0638 34.9615 9.91999 34.8259 9.74736 34.3751C9.59284 33.4979 9.78616 32.9035 10.2767 32.1735C10.3495 32.075 10.4223 31.9765 10.4974 31.8751C10.565 31.7831 10.6327 31.6911 10.7024 31.5963C12.449 29.4213 14.9708 29.9418 17.0833 31.2652ZM11.7679 32.9025C11.6103 33.1436 11.5604 33.3463 11.4974 33.6251C12.4613 33.5437 13.3777 33.3415 14.3177 33.1173C14.4676 33.0821 14.6175 33.0469 14.772 33.0106C15.1389 32.9244 15.5057 32.8375 15.8724 32.7501C15.7859 32.3592 15.7859 32.3592 15.4739 32.2018C13.9114 31.4791 12.8944 31.5772 11.7679 32.9025Z" fill="#CD3626"/>
<path d="M52.8479 31.8119C53.1987 32.0484 53.334 32.2364 53.5017 32.6249C53.5699 33.2609 53.5131 33.6171 53.1267 34.1249C52.824 34.3182 52.5387 34.4801 52.2185 34.6376C52.0851 34.7057 52.0851 34.7057 51.949 34.7752C51.6653 34.9194 51.3804 35.0612 51.0955 35.203C50.9058 35.2992 50.7162 35.3956 50.5266 35.4921C48.1178 36.7125 48.1178 36.7125 47.3597 36.5814C46.8891 36.4167 46.5945 36.0603 46.3767 35.6249C46.3451 34.3631 46.7454 33.1685 47.5408 32.1874C48.9631 30.6936 51.1471 30.8931 52.8479 31.8119ZM48.658 33.4687C48.362 33.8962 48.2568 34.2511 48.1267 34.7499C48.5018 34.573 48.8768 34.3958 49.2517 34.2187C49.3566 34.1692 49.4615 34.1197 49.5696 34.0687C50.2179 33.7622 50.8615 33.448 51.5017 33.1249C50.5192 32.4699 49.4815 32.6451 48.658 33.4687Z" fill="#CD3626"/>
<path d="M30.4971 29.375C31.7212 30.4686 31.7212 30.4686 31.7725 31.0259C31.7929 32.1621 31.7929 32.1621 31.3721 32.625C30.7339 33.112 30.0542 33.0403 29.2892 33.0103C28.9337 32.9978 28.5783 32.9911 28.2227 32.9839C27.9417 32.9765 27.6608 32.9688 27.3799 32.9609C27.1754 32.9568 27.1754 32.9568 26.9669 32.9525C26.1477 32.9244 25.5476 32.8521 24.8955 32.3125C24.5739 31.9062 24.557 31.4242 24.5635 30.9258C24.7264 30.0894 25.5984 29.4916 26.2588 29.023C27.6223 28.1764 29.2535 28.471 30.4971 29.375ZM26.4971 31C26.4558 31.0825 26.4146 31.165 26.3721 31.25C27.5683 31.2913 28.7646 31.3325 29.9971 31.375C29.3516 30.5344 29.3516 30.5344 28.46 30.1992C27.5997 30.1664 27.1042 30.3881 26.4971 31Z" fill="#CD3626"/>
<path d="M32.375 33.9999C32.7799 34.2615 33.1422 34.5525 33.5 34.8749C33.5677 34.9357 33.6354 34.9964 33.7051 35.059C34.1217 35.4889 34.233 35.8994 34.2671 36.4775C34.2332 37.0182 34.0192 37.3693 33.625 37.7265C33.1016 38.0373 32.6204 38.0121 32.0327 37.998C31.8905 37.9949 31.8905 37.9949 31.7454 37.9917C31.5449 37.987 31.3443 37.982 31.1437 37.9766C30.8384 37.9687 30.5331 37.9635 30.2278 37.9584C30.0325 37.9535 29.8373 37.9485 29.6421 37.9433C29.5514 37.9421 29.4608 37.9409 29.3674 37.9397C28.6256 37.915 28.1125 37.7375 27.5859 37.2109C27.3404 36.8198 27.2592 36.5871 27.25 36.1249C27.4571 35.4691 27.7371 35.0767 28.25 34.6249C28.3377 34.5399 28.4253 34.4548 28.5156 34.3671C29.7289 33.5495 31.0455 33.3589 32.375 33.9999ZM29 36.2499C30.7325 36.3118 30.7325 36.3118 32.5 36.3749C31.962 35.7025 31.5301 35.356 30.6875 35.1874C29.9338 35.3382 29.4599 35.6368 29 36.2499Z" fill="#CD3626"/>
<path d="M41.5 33.5001C42.025 33.805 42.4074 34.0759 42.6953 34.6173C42.7871 35.2593 42.7171 35.6945 42.4219 36.2735C41.909 36.8244 41.1079 36.9106 40.4012 37.0639C40.1118 37.128 39.8246 37.199 39.5371 37.2711C39.3399 37.3189 39.1427 37.3666 38.9453 37.4141C38.808 37.4486 38.808 37.4486 38.6679 37.4838C38.0269 37.6308 37.5224 37.6277 36.875 37.5001C36.4493 37.2317 36.1488 36.9871 36 36.5001C35.8887 35.6931 36.0773 35.2271 36.5201 34.5499C37.8135 32.8637 39.6206 32.5676 41.5 33.5001ZM38.0235 35.3985C37.9332 35.5145 37.843 35.6305 37.75 35.7501C38.1704 35.8901 38.4463 35.8573 38.8731 35.7506C38.9899 35.722 39.1067 35.6934 39.2271 35.6639C39.3481 35.633 39.4691 35.6022 39.5938 35.5704C39.7167 35.54 39.8397 35.5096 39.9663 35.4784C40.2695 35.4033 40.5724 35.3272 40.875 35.2501C40.4353 34.7889 40.0788 34.6433 39.4375 34.586C38.7699 34.6456 38.4438 34.9005 38.0235 35.3985Z" fill="#CD3626"/>
<path d="M40.3555 28.3961C40.8808 28.794 41.1924 29.2361 41.2896 29.8922C41.3277 30.6176 41.1751 31.0392 40.75 31.6251C40.1261 32.2033 39.6367 32.2715 38.8125 32.2657C38.7233 32.2651 38.634 32.2645 38.5421 32.2639C36.3241 32.239 36.3241 32.239 35.625 31.6251C35.1378 31.0984 35.0206 30.7783 34.9688 30.0782C35.0174 29.3724 35.2624 28.9503 35.7734 28.4767C37.133 27.3998 38.9194 27.4864 40.3555 28.3961ZM36.75 29.7501C36.6074 29.9965 36.6074 29.9965 36.625 30.2501C37.1802 30.8053 38.3149 30.6436 39.0576 30.6539C39.3961 30.6574 39.3961 30.6574 39.625 30.3751C39.6519 30.1262 39.6519 30.1262 39.5 29.8751C38.9252 29.4441 38.4867 29.299 37.769 29.3346C37.3679 29.395 37.0812 29.5183 36.75 29.7501Z" fill="#CD3626"/>
<path d="M23.2052 32.5781C23.7731 32.9287 24.1248 33.3705 24.4239 33.9687C24.5659 34.7071 24.5138 35.4373 24.1583 36.1093C23.7549 36.6696 23.35 37.0505 22.6627 37.2182C21.6273 37.3332 20.5871 37.2785 19.752 36.6249C19.092 35.9292 18.9436 35.2764 18.9625 34.3403C19.0388 33.6833 19.3269 33.2911 19.8067 32.8359C20.7477 32.2162 22.1659 32.1012 23.2052 32.5781ZM20.627 34.3749C20.5541 34.7499 20.5541 34.7499 20.627 35.1249C20.8235 35.3808 20.9519 35.4851 21.2628 35.5771C21.7352 35.6303 22.0504 35.6537 22.502 35.4843C22.7675 35.2641 22.7675 35.2641 22.8927 34.9531C22.9041 34.6002 22.9041 34.6002 22.6427 34.2734C22.0489 33.8577 21.1232 33.7278 20.627 34.3749Z" fill="#CD3626"/>
</g>
<defs>
<clipPath id="clip0_2395_12029">
<rect width="64" height="64" fill="white"/>
</clipPath>
</defs>
</svg>
