<svg width="64" height="64" viewBox="0 0 64 64" fill="none" xmlns="http://www.w3.org/2000/svg">
<path d="M42.7468 15.125C42.9533 15.2267 43.16 15.3279 43.3669 15.4288C44.557 16.0124 45.7331 16.6211 46.9033 17.2435C47.8432 17.7407 48.7948 18.214 49.7468 18.6875C50.7679 19.1955 51.7874 19.7051 52.7936 20.2422C53.8513 20.8067 54.9235 21.3409 55.9968 21.875C57.3876 22.5674 58.7728 23.2676 60.1413 24.0035C60.3566 24.1171 60.5751 24.2248 60.7936 24.3321C61.6828 24.7766 62.1992 25.2674 62.6374 26.1622C62.9311 27.0695 62.8887 28.205 62.4889 29.0704C62.127 29.6909 61.6417 30.1776 60.9968 30.5C60.9981 30.578 60.9994 30.6559 61.0007 30.7362C61.0684 35.3836 61.0684 35.3836 59.6188 37.022C59.0746 37.5243 58.4965 37.8232 57.8005 38.0621C57.7194 38.0902 57.6384 38.1184 57.5548 38.1474C57.2806 38.2425 57.0059 38.3361 56.7311 38.4297C56.5307 38.499 56.3303 38.5683 56.1299 38.6378C55.6768 38.7948 55.2235 38.9513 54.7702 39.1075C53.9164 39.4023 53.064 39.7008 52.2116 39.9996C52.0562 40.054 51.9008 40.1085 51.7408 40.1646C51.5015 40.2485 51.2622 40.3324 51.023 40.4163C50.126 40.7307 49.2289 41.0446 48.3317 41.3584C48.2519 41.3864 48.1721 41.4143 48.0899 41.443C46.5579 41.9789 45.0254 42.5136 43.4928 43.0479C41.7415 43.6584 39.9908 44.2706 38.2403 44.8835C37.6878 45.0769 37.1353 45.2703 36.5828 45.4636C36.2625 45.5757 35.9421 45.6878 35.6218 45.7999C35.5416 45.8279 35.4614 45.856 35.3788 45.8849C34.338 46.2491 33.2973 46.6138 32.2569 46.9791C31.5281 47.2349 30.7993 47.4904 30.0704 47.7458C29.6332 47.8989 29.196 48.0523 28.759 48.206C28.2739 48.3766 27.7887 48.5465 27.3034 48.7164C27.1601 48.7669 27.0168 48.8174 26.8692 48.8695C24.5279 49.6869 22.1971 49.8625 19.8835 48.8394C19.0693 48.4289 18.3904 47.89 17.7009 47.2986C17.2988 46.9567 16.8891 46.6239 16.4811 46.2891C16.2972 46.1376 16.1133 45.9861 15.9294 45.8345C15.3894 45.3896 14.8494 44.9448 14.3093 44.5C13.7692 44.0553 13.2291 43.6105 12.6891 43.1656C11.5629 42.2376 11.5629 42.2376 10.4343 41.3125C9.68157 40.6974 8.93145 40.0792 8.18132 39.461C7.81117 39.1559 7.44072 38.8513 7.07 38.5469C6.24047 37.8657 5.41195 37.1832 4.5905 36.4922C4.46611 36.3877 4.34171 36.2831 4.21355 36.1753C3.70722 35.7305 3.23863 35.2836 2.85613 34.7266C2.79651 34.6423 2.73689 34.5581 2.67546 34.4712C2.19789 33.5461 2.06811 32.6281 2.07537 31.5992C2.0732 31.3611 2.071 31.1231 2.06877 30.8851C2.06751 30.515 2.06707 30.145 2.06728 29.775C2.06683 29.4142 2.06342 29.0536 2.05974 28.6929C2.06076 28.5825 2.06179 28.4721 2.06284 28.3583C2.05482 27.6966 1.98328 27.3634 1.49675 26.875C1.08678 26.0773 1.1074 25.0522 1.3239 24.1944C1.6829 23.3843 2.35649 22.79 3.16278 22.4492C3.88687 22.1845 4.63691 22.0339 5.38909 21.8712C5.55349 21.835 5.71788 21.7989 5.88225 21.7626C6.23464 21.685 6.58711 21.6079 6.93968 21.5312C7.49916 21.4094 8.0584 21.2866 8.61762 21.1637C9.50402 20.9689 10.3906 20.7749 11.2772 20.5811C12.8602 20.2352 14.443 19.8882 16.0257 19.5407C16.5796 19.4191 17.1336 19.2979 17.6876 19.177C19.8201 18.714 19.8201 18.714 21.9457 18.221C22.0883 18.1868 22.2308 18.1527 22.3777 18.1175C22.8744 17.9594 23.2845 17.721 23.7082 17.4209C24.3793 17.0235 24.9797 16.9823 25.738 17.0211C27.6788 17.1147 29.4586 16.6361 31.3249 16.1563C31.6488 16.0755 31.9729 15.9959 32.297 15.9161C33.5611 15.6015 34.8121 15.2879 36.0405 14.8513C36.5455 14.697 37.0343 14.671 37.5593 14.6641C41.6465 14.5513 41.6465 14.5513 42.7468 15.125ZM36.9968 16.375C37.2428 16.5005 37.4876 16.6212 37.7424 16.7281C38.592 17.0999 38.9849 17.6343 39.3405 18.4766C39.7113 19.5911 39.6116 20.475 39.2966 21.6001C39.2111 22.0036 39.2111 22.0036 39.4079 22.357C39.5997 22.6359 39.5997 22.6359 39.8718 22.75C40.1646 22.6764 40.4502 22.5953 40.7389 22.5079C41.7004 22.2365 42.5887 22.0465 43.5514 22.4141C44.0267 22.9126 44.1668 23.4783 44.3718 24.125C44.49 24.4203 44.6176 24.7094 44.7468 25C45.2978 25 45.3327 24.9773 45.7077 24.625C45.795 24.5454 45.8824 24.4658 45.9723 24.3838C46.1539 24.2126 46.3343 24.0401 46.5134 23.8663C47.1958 23.2229 47.8735 22.8395 48.7468 22.5C48.4103 22.1428 48.0822 21.8768 47.6613 21.6255C47.5467 21.5566 47.4322 21.4876 47.3141 21.4166C47.13 21.3071 47.13 21.3071 46.9421 21.1954C46.6805 21.0381 46.4189 20.8807 46.1574 20.7232C46.0255 20.6439 45.8935 20.5647 45.7576 20.483C45.1884 20.1394 44.6238 19.7887 44.0593 19.4375C43.8449 19.3049 43.6306 19.1722 43.4162 19.0396C43.0681 18.8243 42.7203 18.6086 42.373 18.3921C41.9904 18.1537 41.6069 17.9166 41.2233 17.6797C41.1068 17.6067 40.9903 17.5337 40.8703 17.4585C39.8772 16.8479 38.9285 16.2928 37.7311 16.3438C37.5916 16.3483 37.452 16.3528 37.3083 16.3575C37.2055 16.3633 37.1027 16.3691 36.9968 16.375ZM31.4284 17.7618C31.2701 17.8041 31.2701 17.8041 31.1086 17.8472C30.9995 17.877 30.8904 17.9068 30.778 17.9375C30.6115 17.9823 30.6115 17.9823 30.4416 18.0279C30.1681 18.1014 29.8949 18.1755 29.6218 18.25C30.0647 18.749 30.5888 19.0634 31.153 19.4063C31.2461 19.4637 31.3393 19.521 31.4352 19.5801C31.6637 19.7207 31.8927 19.8605 32.1218 20C32.2687 19.6291 32.2687 19.6291 32.2389 19.2344C32.248 18.6706 32.3586 18.1692 32.4968 17.625C32.0816 17.625 31.8184 17.6564 31.4284 17.7618ZM33.7468 19C33.7777 19.9598 34.0061 20.6282 34.6218 21.375C35.0886 21.8003 35.5948 22.1544 36.1218 22.5C36.2076 22.557 36.2934 22.6139 36.3818 22.6725C36.6532 22.8514 36.9261 23.0279 37.1999 23.2032C37.2873 23.2595 37.3747 23.3158 37.4647 23.3738C37.6789 23.5074 37.8998 23.6298 38.1218 23.75C38.2043 23.7088 38.2868 23.6675 38.3718 23.625C38.2519 23.4394 38.2519 23.4394 38.1296 23.25C37.6494 22.3858 37.7323 21.7708 37.9577 20.836C38.1399 20.0587 38.0994 19.5118 37.7931 18.7715C37.5008 18.3084 37.2161 18.1508 36.6921 18.0079C35.6664 17.9116 34.5392 18.3661 33.7468 19ZM23.5514 19.5704C23.3858 19.8513 23.3164 20.0615 23.2468 20.375C23.3286 20.3494 23.4105 20.3238 23.4948 20.2974C24.7248 19.9343 26.0071 19.6666 27.2468 20.125C28.1056 20.595 28.5598 21.2222 28.902 22.1236C29.1386 23.0639 29.0911 24.0865 28.8561 25.0235C28.7134 25.4678 28.7134 25.4678 28.8259 25.772C28.9822 26.0221 28.9822 26.0221 29.2721 26.1089C29.7164 26.1294 30.0437 26.0221 30.4655 25.8829C32.0668 25.4021 32.0668 25.4021 32.9186 25.8438C33.4806 26.3255 33.6834 26.7416 33.8874 27.4532C34.0353 27.989 34.0353 27.989 34.2468 28.5C34.9077 28.4637 35.1991 28.0723 35.6139 27.6094C36.3978 26.7743 37.1904 26.3106 38.2468 25.875C38.2468 25.7925 38.2468 25.71 38.2468 25.625C38.0432 25.4695 38.0432 25.4695 37.7746 25.3208C37.6728 25.2611 37.571 25.2013 37.4661 25.1398C37.3551 25.0756 37.244 25.0115 37.1296 24.9454C36.3143 24.4657 35.5065 23.9799 34.7155 23.461C33.7359 22.8199 32.7447 22.1982 31.7507 21.5798C31.0447 21.1403 30.3417 20.6968 29.642 20.2475C26.6281 18.297 26.6281 18.297 23.5514 19.5704ZM47.3718 19.5C47.6933 19.8604 48.0613 20.0815 48.4743 20.3282C48.5458 20.3711 48.6173 20.4141 48.6909 20.4584C48.8437 20.5502 48.9967 20.6418 49.1498 20.7332C49.5478 20.9708 49.9447 21.2102 50.3415 21.4498C50.4198 21.497 50.498 21.5443 50.5787 21.5929C51.3125 22.0372 52.0342 22.4989 52.7497 22.972C53.1911 23.2634 53.1911 23.2634 53.6608 23.5044C53.8718 23.625 53.8718 23.625 53.9791 23.8604C54.1501 24.1777 54.3117 24.2884 54.6149 24.48C54.7157 24.544 54.8164 24.6079 54.9202 24.6738C55.028 24.7402 55.1357 24.8066 55.2468 24.875C55.4089 24.9773 55.4089 24.9773 55.5743 25.0817C55.9148 25.2927 56.2595 25.4945 56.6061 25.6954C56.7207 25.7667 56.8353 25.838 56.9533 25.9114C57.6049 26.284 58.0059 26.4389 58.7477 26.2457C59.1326 26.1134 59.4054 25.9776 59.7468 25.75C59.031 25.2824 58.2961 24.8837 57.5295 24.5064C57.4144 24.4492 57.2994 24.392 57.1809 24.3331C56.8151 24.1513 56.4489 23.9701 56.0827 23.7891C54.6128 23.0613 53.1468 22.3293 51.6974 21.5613C50.8417 21.1079 49.9801 20.6677 49.1139 20.2344C48.9717 20.1626 48.8295 20.0907 48.683 20.0167C48.5479 19.949 48.4128 19.8813 48.2736 19.8116C48.1539 19.7514 48.0341 19.6913 47.9108 19.6294C47.6365 19.483 47.6365 19.483 47.3718 19.5ZM20.3464 20.2618C20.1627 20.3041 20.1627 20.3041 19.9753 20.3472C19.7848 20.3919 19.7848 20.3919 19.5905 20.4375C19.4616 20.4674 19.3327 20.4972 19.1999 20.5279C18.8821 20.6015 18.5644 20.6755 18.2468 20.75C18.725 21.2701 19.3451 21.5939 19.9421 21.961C20.0635 22.0368 20.1849 22.1126 20.31 22.1907C20.4259 22.2623 20.5419 22.334 20.6613 22.4078C20.7676 22.4735 20.8739 22.5391 20.9834 22.6068C21.2334 22.77 21.2334 22.77 21.4968 22.75C21.4968 21.8838 21.4968 21.0175 21.4968 20.125C21.0689 20.125 20.7572 20.1662 20.3464 20.2618ZM23.1218 22.125C23.1605 23.0158 23.5405 23.7948 24.1746 24.4275C24.7713 24.961 25.4341 25.3782 26.1139 25.7969C26.2233 25.8651 26.3326 25.9332 26.4452 26.0035C26.712 26.1697 26.9792 26.3352 27.2468 26.5C27.3751 26.1149 27.3662 25.9867 27.3014 25.6016C27.2494 25.1981 27.2497 24.8982 27.3639 24.5079C27.5596 23.8246 27.6442 23.139 27.3874 22.4615C27.0343 21.8285 26.6868 21.5795 25.9968 21.375C25.0165 21.375 23.998 21.6971 23.1218 22.125ZM13.4811 22.7813C13.4038 22.8947 13.3264 23.0082 13.2468 23.125C13.3333 23.098 13.4198 23.0709 13.509 23.043C14.6612 22.7151 16.0483 22.4455 17.1921 22.9375C17.9173 23.3853 18.4216 24.1597 18.6891 24.959C18.8541 25.7922 18.7831 26.664 18.6686 27.5C18.6102 27.9417 18.6478 28.2269 18.8718 28.625C19.0108 28.791 19.0108 28.791 19.3639 28.7813C19.7642 28.778 20.0873 28.6904 20.4655 28.5625C21.3035 28.2956 22.0951 28.2217 22.9264 28.5391C23.4003 29.0361 23.5461 29.6033 23.7468 30.25C23.8519 30.5706 23.9591 30.8258 24.1218 31.125C24.4971 31.2625 24.6784 31.2783 25.0505 31.1246C25.1513 31.0603 25.2522 30.996 25.3561 30.9297C25.4655 30.8601 25.5749 30.7905 25.6877 30.7188C25.9534 30.5308 26.1881 30.3378 26.4264 30.1172C26.9536 29.637 27.5933 29.3921 28.2468 29.125C27.9086 28.7668 27.5747 28.4949 27.1559 28.2364C27.0389 28.1637 26.9219 28.091 26.8013 28.0161C26.6119 27.8999 26.6119 27.8999 26.4186 27.7813C26.2866 27.6996 26.1546 27.6178 26.0186 27.5336C25.5952 27.2716 25.171 27.0107 24.7468 26.75C24.4676 26.5783 24.1885 26.4066 23.9094 26.2349C23.4964 25.981 23.0835 25.7271 22.6704 25.4735C21.8509 24.97 21.0353 24.461 20.2233 23.9454C19.511 23.4936 18.7966 23.046 18.0749 22.6094C17.9622 22.5407 17.9622 22.5407 17.8472 22.4705C16.5026 21.6635 14.604 21.454 13.4811 22.7813ZM10.7614 22.3723C10.6375 22.399 10.5136 22.4257 10.386 22.4533C10.2524 22.4826 10.1188 22.5119 9.98113 22.542C9.77517 22.5869 9.77517 22.5869 9.56505 22.6327C9.27458 22.6962 8.98416 22.7599 8.69377 22.8238C8.24873 22.9215 7.80342 23.0179 7.35808 23.1143C7.07616 23.1761 6.79426 23.2379 6.51238 23.2999C6.37878 23.3286 6.24518 23.3574 6.10753 23.3871C5.9217 23.4283 5.9217 23.4283 5.7321 23.4704C5.62304 23.4943 5.51397 23.5182 5.4016 23.5428C5.09014 23.6193 5.09014 23.6193 4.74675 23.875C5.05264 24.1328 5.36383 24.3833 5.67644 24.6329C5.80539 24.7417 5.80539 24.7417 5.93694 24.8528C6.37998 25.2011 6.7011 25.4345 7.278 25.379C7.4768 25.3403 7.67471 25.2969 7.87175 25.25C7.99382 25.2264 8.11589 25.2027 8.24166 25.1782C8.64293 25.1001 9.04242 25.0157 9.44207 24.9297C9.58008 24.9005 9.71809 24.8712 9.86028 24.8411C10.1975 24.7696 10.5347 24.6975 10.8718 24.625C10.9194 24.4621 10.9194 24.4621 10.9679 24.2959C11.011 24.1519 11.054 24.0078 11.0983 23.8594C11.1404 23.7173 11.1824 23.5752 11.2258 23.4288C11.3675 23.0126 11.541 22.6379 11.7468 22.25C11.3906 22.25 11.108 22.2971 10.7614 22.3723ZM41.4343 23.9297C40.674 24.1732 39.9152 24.214 39.1218 24.25C39.6788 24.7233 40.2838 25.0997 40.903 25.4844C41.3101 25.7383 41.7165 25.9932 42.1218 26.25C42.2248 26.3154 42.3279 26.3807 42.4341 26.448C42.5332 26.5122 42.6324 26.5764 42.7345 26.6426C42.8675 26.7282 42.8675 26.7282 43.0031 26.8156C44.1892 27.7134 44.6076 29.2672 44.9968 30.625C45.2443 30.5425 45.4918 30.46 45.7468 30.375C45.697 30.2653 45.697 30.2653 45.6462 30.1534C45.1896 29.0436 45.0957 27.9341 44.9968 26.75C44.9228 26.7317 44.8488 26.7133 44.7726 26.6944C44.2112 26.535 43.7403 26.3845 43.3791 25.8946C43.1222 25.3714 42.9899 24.8065 42.8464 24.2437C42.7841 23.8916 42.7841 23.8916 42.6218 23.75C42.1797 23.7205 41.8486 23.7814 41.4343 23.9297ZM47.2468 25.375C46.6732 26.2196 46.533 27.12 46.6218 28.125C46.7613 28.8249 46.9048 29.426 47.4968 29.875C47.6205 29.7925 47.7443 29.71 47.8718 29.625C47.8447 29.5508 47.8176 29.4765 47.7897 29.4C47.3805 28.1817 47.3495 27.1881 47.863 25.9996C47.9968 25.75 47.9968 25.75 48.2468 25.5C48.6843 25.4688 48.6843 25.4688 49.1218 25.5C49.3718 25.75 49.3718 25.75 49.4108 26.0938C49.3718 26.5 49.3718 26.5 49.1843 26.8672C48.8599 27.5294 48.9613 28.0648 49.1843 28.7422C49.2455 28.912 49.3075 29.0814 49.3718 29.25C49.6605 29.1675 49.9493 29.085 50.2468 29C50.2305 28.9261 50.2142 28.8521 50.1974 28.7759C50.1435 28.4668 50.1085 28.1889 50.1218 27.875C50.403 27.5235 50.403 27.5235 50.7468 27.25C50.9858 27.015 50.9858 27.015 51.1218 26.75C51.087 26.4508 51.087 26.4508 50.9968 26.125C50.9733 25.6641 50.9733 25.6641 50.9968 25.25C51.2468 25 51.2468 25 51.6139 24.961C51.9968 25 51.9968 25 52.2155 25.1329C52.6998 25.8835 52.6723 26.6514 52.4968 27.5C52.3014 27.9532 52.3014 27.9532 52.1218 28.25C52.761 28.1165 53.3808 27.9712 53.9968 27.75C53.8113 26.4239 53.2923 25.2406 52.1999 24.4141C50.4136 23.2182 48.5779 23.9214 47.2468 25.375ZM12.4968 25.375C12.5483 26.3202 12.802 27.0544 13.4826 27.7364C14.3451 28.4529 15.3029 29.0608 16.2306 29.689C16.8626 30.1175 17.489 30.5536 18.1139 30.9922C18.2174 31.0648 18.3208 31.1373 18.4273 31.212C18.8473 31.5066 19.267 31.8015 19.6868 32.0964C20.8571 32.9181 22.0291 33.7371 23.2077 34.5469C23.3615 34.653 23.3615 34.653 23.5185 34.7613C23.6124 34.8256 23.7062 34.8899 23.8029 34.9561C23.9273 35.0415 23.9273 35.0415 24.0542 35.1287C24.2264 35.2612 24.2264 35.2612 24.3718 35.25C24.4543 34.4663 24.5368 33.6825 24.6218 32.875C24.4284 32.8261 24.235 32.7771 24.0358 32.7266C23.4489 32.5453 23.1117 32.3902 22.7468 31.875C22.5534 31.4245 22.3999 30.9655 22.2468 30.5C22.165 30.2911 22.0821 30.0826 21.9968 29.875C21.5038 29.9269 21.0693 29.9759 20.5983 30.1329C19.8208 30.3241 18.8964 30.4401 18.1559 30.0879C17.6335 29.6966 17.323 29.2046 17.1755 28.5669C17.0947 27.8952 17.1515 27.2915 17.2468 26.625C17.3245 25.7955 17.2382 25.3076 16.7468 24.625C16.2856 24.2132 15.9643 24.1795 15.362 24.1973C14.3374 24.3453 13.3669 24.8287 12.4968 25.375ZM9.66082 26.4375C9.57308 26.4554 9.48534 26.4733 9.39495 26.4917C9.17882 26.5359 8.96278 26.5804 8.74675 26.625C8.74675 26.7075 8.74675 26.79 8.74675 26.875C8.91934 27.0336 8.91934 27.0336 9.15105 27.189C9.23966 27.2518 9.32828 27.3147 9.41957 27.3794C9.51723 27.4476 9.61489 27.5158 9.7155 27.586C9.9235 27.7336 10.1313 27.8814 10.339 28.0293C10.4476 28.1066 10.5561 28.1839 10.668 28.2635C11.1975 28.6445 11.7182 29.0369 12.2389 29.4297C13.3461 30.2635 14.46 31.0877 15.5769 31.9083C16.0714 32.2718 16.5653 32.6359 17.0593 33C17.2572 33.1459 17.4551 33.2917 17.653 33.4375C18.8405 34.3125 18.8405 34.3125 19.1379 34.5317C19.3341 34.6763 19.5304 34.8209 19.7267 34.9655C20.2466 35.3485 20.7663 35.7317 21.2858 36.1153C21.3943 36.1954 21.5029 36.2754 21.6147 36.358C21.8232 36.5119 22.0317 36.6658 22.2402 36.8199C22.3339 36.889 22.4276 36.9581 22.5241 37.0293C22.6065 37.0902 22.6889 37.1511 22.7739 37.2138C23.2421 37.5691 23.2421 37.5691 23.8249 37.5938C23.9641 37.5629 24.1033 37.5319 24.2468 37.5C24.288 37.4175 24.3293 37.335 24.3718 37.25C24.2564 37.1711 24.141 37.0921 24.0221 37.0108C22.7398 36.1319 21.465 35.2426 20.1923 34.3498C19.669 33.9829 19.1454 33.6165 18.6218 33.25C18.4139 33.1045 18.2061 32.959 17.9982 32.8135C17.4705 32.4441 16.9426 32.075 16.4148 31.7058C16.1028 31.4875 15.7909 31.269 15.4792 31.0503C15.075 30.767 14.67 30.4849 14.2643 30.2037C14.0736 30.0707 13.8828 29.9377 13.6921 29.8047C13.6056 29.7452 13.5191 29.6856 13.43 29.6243C12.2092 28.7703 11.328 27.7254 10.9968 26.25C10.5366 26.25 10.109 26.3446 9.66082 26.4375ZM55.4968 26.875C55.4968 26.9575 55.4968 27.04 55.4968 27.125C55.6205 27.0838 55.7443 27.0425 55.8718 27C55.748 26.9588 55.6243 26.9175 55.4968 26.875ZM31.1081 27.2618C30.9667 27.3041 30.9667 27.3041 30.8224 27.3472C30.7253 27.377 30.6281 27.4068 30.528 27.4375C30.4289 27.4674 30.3298 27.4972 30.2277 27.5279C29.9839 27.6013 29.7403 27.6756 29.4968 27.75C30.1441 28.3025 30.8697 28.7241 31.5951 29.1644C33.0695 30.0772 34.0752 31.08 34.6218 32.75C34.7479 32.3576 34.7297 32.1424 34.6218 31.75C34.5943 31.4692 34.5711 31.1878 34.5514 30.9063C34.541 30.76 34.5305 30.6137 34.5197 30.4629C34.5121 30.3514 34.5046 30.2399 34.4968 30.125C34.4199 30.0994 34.343 30.0738 34.2638 30.0474C33.8415 29.9066 33.4191 29.7658 32.9968 29.625C32.8688 29.3658 32.8688 29.3658 32.7468 29C32.6936 28.8446 32.6404 28.6891 32.5856 28.5289C32.5298 28.3605 32.4741 28.192 32.4186 28.0235C32.3756 27.8936 32.3756 27.8936 32.3317 27.761C32.2616 27.5491 32.1916 27.3371 32.1218 27.125C31.7123 27.125 31.4842 27.1478 31.1081 27.2618ZM36.8718 28.625C36.2721 29.3824 36.0582 30.1726 36.0715 31.128C36.1767 31.9067 36.473 32.6418 36.7468 33.375C36.953 33.2925 37.1593 33.21 37.3718 33.125C37.3447 33.0522 37.3176 32.9794 37.2897 32.9043C36.8689 31.6653 36.835 30.5786 37.363 29.3702C37.4968 29.125 37.4968 29.125 37.7468 28.875C38.0173 28.8506 38.0173 28.8506 38.3249 28.8594C38.4781 28.8628 38.4781 28.8628 38.6344 28.8663C38.7519 28.8706 38.7519 28.8706 38.8718 28.875C38.9099 29.6116 38.8288 29.9609 38.4968 30.625C38.4217 31.4009 38.5664 31.9125 38.8718 32.625C39.2018 32.5425 39.5318 32.46 39.8718 32.375C39.7893 32.2513 39.7068 32.1275 39.6218 32C39.5593 31.5704 39.5593 31.5704 39.6218 31.125C39.8659 30.9499 40.1164 30.7834 40.3718 30.625C40.5879 30.1646 40.6589 29.9866 40.4968 29.5C40.4733 29.0547 40.4733 29.0547 40.4968 28.625C40.7468 28.375 40.7468 28.375 40.9899 28.3506C41.2422 28.3588 41.4945 28.3669 41.7468 28.375C42.0602 29.3225 42.3095 30.1929 41.8757 31.1392C41.7584 31.3482 41.6287 31.55 41.4968 31.75C42.136 31.6165 42.7558 31.4712 43.3718 31.25C43.3667 30.1032 43.0119 29.1012 42.2599 28.2237C41.3911 27.4114 40.5459 27.1715 39.3664 27.2071C38.3328 27.3272 37.5792 27.8904 36.8718 28.625ZM2.99675 24.625C2.80024 25.0181 2.80701 25.4473 2.87175 25.875C3.127 26.418 3.46353 26.7021 3.94207 27.0547C4.08896 27.1645 4.23576 27.2744 4.3825 27.3843C4.46141 27.443 4.54032 27.5018 4.62163 27.5622C5.07161 27.9001 5.51417 28.2475 5.95769 28.5938C6.15087 28.7442 6.34407 28.8946 6.53728 29.045C6.68239 29.158 6.68239 29.158 6.83043 29.2732C7.3024 29.6407 7.77459 30.0079 8.24675 30.375C8.43425 30.5209 8.62175 30.6667 8.80925 30.8125C8.94847 30.9208 8.94847 30.9208 9.0905 31.0313C16.6843 36.9375 16.6843 36.9375 16.9657 37.1565C17.1524 37.3017 17.3391 37.4468 17.5258 37.5919C18.0077 37.9664 18.4891 38.3417 18.9694 38.7183C21.4285 40.8272 21.4285 40.8272 24.4968 41.375C24.8032 41.2993 25.1022 41.2181 25.404 41.127C25.4954 41.0997 25.5869 41.0724 25.6811 41.0443C27.0546 40.6267 28.4072 40.1445 29.7624 39.6719C30.066 39.5665 30.3696 39.4611 30.6733 39.3558C31.2234 39.1649 31.7736 38.9738 32.3236 38.7826C33.7181 38.2978 35.1136 37.816 36.5091 37.3343C37.2248 37.0873 37.9404 36.84 38.6559 36.5928C38.7979 36.5438 38.9399 36.4947 39.0862 36.4442C39.938 36.1499 40.7898 35.8556 41.6415 35.5612C42.3485 35.3168 43.0554 35.0725 43.7624 34.8282C43.9023 34.7798 44.0423 34.7314 44.1865 34.6816C46.022 34.0473 47.8579 33.4145 49.6943 32.7832C50.9792 32.3415 52.2637 31.899 53.5481 31.4561C54.3872 31.1668 55.2266 30.8783 56.0662 30.5906C56.5373 30.4289 57.008 30.2664 57.4787 30.1036C57.6907 30.0304 57.9028 29.9577 58.1151 29.8853C58.4013 29.7877 58.6871 29.6887 58.9728 29.5894C59.0541 29.562 59.1354 29.5347 59.2191 29.5065C60.0709 29.207 60.705 28.8176 61.1218 28C61.1637 27.5311 61.1637 27.5311 61.1218 27.125C60.0377 27.4053 58.9763 27.7433 57.9137 28.0953C57.7364 28.1537 57.5591 28.2121 57.3818 28.2705C57.0059 28.3943 56.6301 28.5183 56.2543 28.6425C55.6604 28.8388 55.0664 29.0345 54.4723 29.2302C54.272 29.2962 54.0717 29.3622 53.8714 29.4281C53.7725 29.4607 53.6736 29.4933 53.5717 29.5269C53.2722 29.6255 52.9728 29.7242 52.6734 29.8229C51.079 30.3484 49.4835 30.8705 47.8874 31.3907C45.5636 32.1484 43.2409 32.9096 40.9186 33.6719C40.2359 33.8961 39.5531 34.1202 38.8703 34.3443C38.7862 34.3719 38.7021 34.3995 38.6155 34.4279C37.4268 34.8181 36.238 35.2079 35.049 35.5972C34.9037 35.6448 34.7584 35.6924 34.6088 35.7414C33.8987 35.9739 33.1886 36.2061 32.4784 36.4379C31.2104 36.8519 29.943 37.2671 28.6775 37.6884C28.1074 37.8781 27.537 38.0669 26.9666 38.2555C26.698 38.3446 26.4296 38.4342 26.1614 38.5243C25.7931 38.6479 25.4243 38.7699 25.0553 38.8917C24.8939 38.9465 24.8939 38.9465 24.7293 39.0025C24.1346 39.1967 23.6306 39.3066 22.9968 39.25C22.6261 39.0567 22.6261 39.0567 22.2546 38.7813C22.1856 38.7311 22.1167 38.6808 22.0456 38.629C21.8193 38.4632 21.5955 38.2943 21.3718 38.125C21.2164 38.0092 21.061 37.8935 20.9054 37.7779C20.5722 37.5293 20.24 37.2795 19.9084 37.0289C19.3446 36.6035 18.7766 36.1841 18.2077 35.7657C18.1083 35.6926 18.009 35.6195 17.9066 35.5441C17.7043 35.3954 17.502 35.2466 17.2997 35.0978C16.8026 34.7323 16.3059 34.3661 15.8093 34C15.6113 33.8542 15.4134 33.7084 15.2155 33.5625C14.8197 33.2709 14.4238 32.9792 14.028 32.6875C13.93 32.6153 13.832 32.5431 13.731 32.4687C13.5334 32.3231 13.3358 32.1775 13.1382 32.0318C12.6389 31.6639 12.1395 31.2961 11.6398 30.9288C10.6324 30.1878 9.6276 29.4436 8.62816 28.6918C7.79377 28.0649 6.95343 27.4462 6.11248 26.8282C5.68168 26.5115 5.2518 26.1937 4.82244 25.875C4.713 25.794 4.60356 25.7129 4.4908 25.6294C4.27919 25.4726 4.06773 25.3156 3.85646 25.1583C3.76193 25.0884 3.66739 25.0184 3.57 24.9463C3.48627 24.8842 3.40254 24.822 3.31627 24.7579C3.14381 24.6133 3.14381 24.6133 2.99675 24.625ZM26.7468 32C26.0788 33.1327 25.8795 34.1938 25.9968 35.5C26.1228 35.902 26.286 36.2609 26.4968 36.625C26.868 36.5632 26.868 36.5632 27.2468 36.5C27.2197 36.4063 27.1926 36.3125 27.1647 36.2159C26.8209 34.9519 26.6692 33.8421 27.2468 32.625C27.4733 32.3047 27.4733 32.3047 27.7468 32.125C28.1374 32.0782 28.1374 32.0782 28.4968 32.125C28.7468 32.375 28.7468 32.375 28.7858 32.7891C28.744 33.2822 28.6198 33.4617 28.3718 33.875C28.2822 34.6363 28.5059 35.2876 28.7468 36C29.0768 35.8763 29.4068 35.7525 29.7468 35.625C29.6643 35.5013 29.5818 35.3775 29.4968 35.25C29.4646 34.9132 29.4856 34.5894 29.4968 34.25C29.5921 34.2191 29.6875 34.1882 29.7858 34.1563C30.171 33.9771 30.291 33.8685 30.4968 33.5C30.5057 33.0972 30.5057 33.0972 30.4421 32.6719C30.3879 32.2374 30.3879 32.2374 30.3718 31.875C30.6218 31.625 30.6218 31.625 30.8649 31.6006C31.1172 31.6088 31.3695 31.6169 31.6218 31.625C32.1874 33.2985 32.1874 33.2985 31.884 34.0171C31.7954 34.1927 31.703 34.3665 31.6061 34.5376C31.4777 34.7473 31.4777 34.7473 31.4968 35C32.136 34.8665 32.7558 34.7212 33.3718 34.5C33.2082 33.2164 32.8511 32.0799 31.8727 31.1841C30.1132 29.8936 28.0922 30.4291 26.7468 32ZM3.74675 29C3.73424 29.4934 3.72525 29.9867 3.71929 30.4802C3.71558 30.729 3.70923 30.9778 3.70281 31.2266C3.6907 32.425 3.82017 33.5128 4.66423 34.4317C5.16717 34.9003 5.70906 35.3225 6.24675 35.75C6.46061 35.9241 6.67416 36.0986 6.88738 36.2735C7.00082 36.3663 7.11425 36.4591 7.23113 36.5547C7.97838 37.167 8.7235 37.7819 9.46904 38.3962C9.91571 38.7643 10.3625 39.1321 10.8093 39.5C10.9863 39.6459 11.1634 39.7917 11.3405 39.9375C11.4282 40.0097 11.5158 40.0819 11.6061 40.1563C14.528 42.5625 14.528 42.5625 14.7937 42.7814C14.9705 42.9269 15.1473 43.0725 15.3241 43.218C15.7719 43.5866 16.2194 43.9557 16.6662 44.3257C17.1081 44.6915 17.551 45.056 17.995 45.4191C18.1601 45.5542 18.325 45.6895 18.4897 45.8251C20.2913 47.3047 21.8556 48.0358 24.2091 47.904C25.002 47.8242 25.7384 47.5394 26.4811 47.2657C26.6717 47.1985 26.8624 47.1316 27.0533 47.0651C27.4728 46.9183 27.8915 46.7695 28.3099 46.6195C29.0455 46.3565 29.7841 46.1025 30.5231 45.8492C33.3015 44.8957 36.0733 43.9239 38.8409 42.9396C40.8681 42.2189 42.9 41.5129 44.9343 40.8125C47.7599 39.8396 50.5795 38.8506 53.3944 37.8473C54.0063 37.6294 54.6188 37.413 55.2322 37.1994C55.4862 37.111 55.74 37.0222 55.9937 36.9332C56.2846 36.8314 56.5757 36.7303 56.8672 36.6301C58.1604 36.1777 58.1604 36.1777 59.0202 35.147C59.4384 34.0271 59.4574 32.7781 59.3079 31.6052C59.2877 31.4467 59.2676 31.2883 59.2468 31.125C56.9249 31.8896 54.6083 32.6677 52.3014 33.4766C50.0464 34.2673 47.7874 35.046 45.5269 35.8208C44.7103 36.1007 43.8938 36.3806 43.0773 36.6607C42.9883 36.6912 42.8992 36.7218 42.8075 36.7533C41.0883 37.343 39.3703 37.9362 37.653 38.5313C37.5244 38.5759 37.3958 38.6204 37.2632 38.6663C36.7451 38.8459 36.2271 39.0254 35.709 39.205C34.2217 39.7205 32.7342 40.2353 31.2466 40.7497C30.95 40.8522 30.6535 40.9548 30.3571 41.0574C29.4457 41.3729 28.534 41.6873 27.6218 42C27.5087 42.0389 27.3956 42.0778 27.2791 42.1178C26.9681 42.2244 26.6568 42.3302 26.3454 42.4356C26.2565 42.4661 26.1676 42.4967 26.076 42.5281C24.3978 43.0918 22.7509 42.9762 21.1374 42.25C20.354 41.831 19.6815 41.2581 18.995 40.7001C18.5525 40.3435 18.1023 39.9966 17.653 39.6485C17.4609 39.4993 17.2689 39.35 17.0768 39.2007C16.9809 39.1262 16.8849 39.0516 16.7861 38.9748C16.3145 38.6084 15.8431 38.2417 15.3718 37.875C15.1843 37.7292 14.9968 37.5834 14.8093 37.4375C11.9968 35.25 11.9968 35.25 9.18425 33.0625C9.09136 32.9903 8.99847 32.9181 8.90276 32.8436C8.71606 32.6984 8.52938 32.5532 8.3427 32.4079C7.86171 32.0338 7.38054 31.6598 6.8991 31.2862C6.70248 31.1335 6.50587 30.9808 6.30925 30.8282C6.21531 30.7553 6.12137 30.6825 6.02459 30.6074C5.41394 30.133 4.81062 29.6511 4.2155 29.1573C4.00782 28.9757 4.00782 28.9757 3.74675 29ZM34.7468 32.75C34.788 33.1625 34.8293 33.575 34.8718 34C34.9955 33.9175 35.1193 33.835 35.2468 33.75C35.123 33.42 34.9993 33.09 34.8718 32.75C34.8305 32.75 34.7893 32.75 34.7468 32.75Z" fill="#CD3626"/>
</svg>
