<svg width="17" height="17" viewBox="0 0 17 17" fill="none" xmlns="http://www.w3.org/2000/svg">
<mask id="path-1-inside-1_2387_11882" fill="white">
<path d="M9.4514 7.9654L13.5798 3.1665H12.6015L9.01681 7.33332L6.15376 3.1665H2.85156L7.18106 9.46746L2.85156 14.4998H3.82991L7.6154 10.0995L10.639 14.4998H13.9412L9.45116 7.9654H9.4514ZM8.11142 9.52297L7.67275 8.89554L4.18242 3.90299H5.6851L8.50184 7.93214L8.94051 8.55957L12.6019 13.7968H11.0993L8.11142 9.52321V9.52297Z"/>
</mask>
<path d="M9.4514 7.9654L13.5798 3.1665H12.6015L9.01681 7.33332L6.15376 3.1665H2.85156L7.18106 9.46746L2.85156 14.4998H3.82991L7.6154 10.0995L10.639 14.4998H13.9412L9.45116 7.9654H9.4514ZM8.11142 9.52297L7.67275 8.89554L4.18242 3.90299H5.6851L8.50184 7.93214L8.94051 8.55957L12.6019 13.7968H11.0993L8.11142 9.52321V9.52297Z" fill="black"/>
<path d="M9.4514 7.9654V9.4654H10.1397L10.5885 8.94363L9.4514 7.9654ZM13.5798 3.1665L14.7169 4.14474L16.8488 1.6665L13.5798 1.6665V3.1665ZM12.6015 3.1665V1.6665H11.9132L11.4644 2.18826L12.6015 3.1665ZM9.01681 7.33332L7.78053 8.18278L8.88361 9.78818L10.1539 8.31156L9.01681 7.33332ZM6.15376 3.1665L7.39005 2.31704L6.94306 1.6665H6.15376V3.1665ZM2.85156 3.1665V1.6665H0.00091395L1.61528 4.01598L2.85156 3.1665ZM7.18106 9.46746L8.31816 10.4457L9.07153 9.57005L8.41735 8.61799L7.18106 9.46746ZM2.85156 14.4998L1.71447 13.5216L-0.417663 15.9998H2.85156V14.4998ZM3.82991 14.4998V15.9998H4.51817L4.96703 15.4781L3.82991 14.4998ZM7.6154 10.0995L8.85167 9.25006L7.74857 7.6447L6.47828 9.1213L7.6154 10.0995ZM10.639 14.4998L9.40272 15.3493L9.84971 15.9998H10.639V14.4998ZM13.9412 14.4998V15.9998H16.7919L15.1775 13.6504L13.9412 14.4998ZM9.45116 7.9654V6.4654H6.60047L8.21488 8.81488L9.45116 7.9654ZM8.11142 9.52297H9.61142V9.05061L9.34076 8.66348L8.11142 9.52297ZM7.67275 8.89554L6.44339 9.755L6.44341 9.75503L7.67275 8.89554ZM4.18242 3.90299V2.40299H1.30354L2.95306 4.76245L4.18242 3.90299ZM5.6851 3.90299L6.91447 3.04355L6.46667 2.40299H5.6851V3.90299ZM8.50184 7.93214L7.27247 8.79158L7.2725 8.79163L8.50184 7.93214ZM8.94051 8.55957L10.1699 7.70011L10.1698 7.70008L8.94051 8.55957ZM12.6019 13.7968V15.2968H15.4808L13.8313 12.9374L12.6019 13.7968ZM11.0993 13.7968L9.8699 14.6563L10.3177 15.2968H11.0993V13.7968ZM8.11142 9.52321H6.61142V9.99557L6.88207 10.3827L8.11142 9.52321ZM10.5885 8.94363L14.7169 4.14474L12.4426 2.18827L8.31427 6.98716L10.5885 8.94363ZM13.5798 1.6665H12.6015V4.6665H13.5798V1.6665ZM11.4644 2.18826L7.8797 6.35507L10.1539 8.31156L13.7386 4.14475L11.4644 2.18826ZM10.2531 6.48385L7.39005 2.31704L4.91747 4.01597L7.78053 8.18278L10.2531 6.48385ZM6.15376 1.6665H2.85156V4.6665H6.15376V1.6665ZM1.61528 4.01598L5.94478 10.3169L8.41735 8.61799L4.08785 2.31703L1.61528 4.01598ZM6.04397 8.48919L1.71447 13.5216L3.98866 15.4781L8.31816 10.4457L6.04397 8.48919ZM2.85156 15.9998H3.82991V12.9998H2.85156V15.9998ZM4.96703 15.4781L8.75252 11.0778L6.47828 9.1213L2.69279 13.5216L4.96703 15.4781ZM6.37913 10.949L9.40272 15.3493L11.8753 13.6503L8.85167 9.25006L6.37913 10.949ZM10.639 15.9998H13.9412V12.9998H10.639V15.9998ZM15.1775 13.6504L10.6874 7.11591L8.21488 8.81488L12.7049 15.3493L15.1775 13.6504ZM9.45116 9.4654H9.4514V6.4654H9.45116V9.4654ZM9.34076 8.66348L8.90209 8.03605L6.44341 9.75503L6.88208 10.3825L9.34076 8.66348ZM8.90211 8.03608L5.41178 3.04353L2.95306 4.76245L6.44339 9.755L8.90211 8.03608ZM4.18242 5.40299H5.6851V2.40299H4.18242V5.40299ZM4.45573 4.76243L7.27247 8.79158L9.73121 7.07269L6.91447 3.04355L4.45573 4.76243ZM7.2725 8.79163L7.71117 9.41906L10.1698 7.70008L9.73118 7.07265L7.2725 8.79163ZM7.71115 9.41903L11.3726 14.6563L13.8313 12.9374L10.1699 7.70011L7.71115 9.41903ZM12.6019 12.2968H11.0993V15.2968H12.6019V12.2968ZM12.3286 12.9374L9.34077 8.66374L6.88207 10.3827L9.8699 14.6563L12.3286 12.9374ZM9.61142 9.52321V9.52297H6.61142V9.52321H9.61142Z" fill="black" mask="url(#path-1-inside-1_2387_11882)"/>
</svg>
